<?xml version="1.0" encoding="UTF-8" standalone="no"?><!DOCTYPE svg PUBLIC "-//W3C//DTD SVG 1.1//EN" "http://www.w3.org/Graphics/SVG/1.1/DTD/svg11.dtd"><svg width="100%" height="100%" viewBox="0 0 334 334" version="1.1" xmlns="http://www.w3.org/2000/svg" xmlns:xlink="http://www.w3.org/1999/xlink" xml:space="preserve" xmlns:serif="http://www.serif.com/" style="fill-rule:evenodd;clip-rule:evenodd;stroke-linejoin:round;stroke-miterlimit:2;"><g><path d="M166.667,327.488c-88.809,-0 -160.817,-72 -160.817,-160.821c0,-88.817 72.008,-160.817 160.817,-160.817c88.816,0 160.825,72 160.825,160.817c-0,88.821 -72.009,160.821 -160.825,160.821m-0,-327.488c-92.046,0 -166.667,74.621 -166.667,166.667c0,92.05 74.625,166.662 166.667,166.662c92.054,0 166.666,-74.612 166.666,-166.667c0,-92.037 -74.612,-166.662 -166.666,-166.662"/><path d="M166.667,312.867c-80.742,-0 -146.196,-65.45 -146.196,-146.196c-0,-80.742 65.454,-146.2 146.196,-146.2c80.746,-0 146.2,65.458 146.2,146.2c-0,80.746 -65.459,146.196 -146.2,146.196m-0,-307.017c-88.809,-0.004 -160.817,71.996 -160.817,160.817c0,88.82 72.008,160.816 160.817,160.816c88.816,0 160.825,-72 160.825,-160.816c-0,-88.813 -72.009,-160.817 -160.825,-160.817" style="fill:#fff;"/><path d="M166.667,20.467c-80.742,-0 -146.196,65.458 -146.196,146.2c-0,80.75 65.454,146.2 146.196,146.2c80.746,-0 146.2,-65.455 146.2,-146.2c-0,-80.742 -65.459,-146.2 -146.2,-146.2" style="fill:#ff7d13;"/><path d="M134.108,106.342l0,116.987l-21.316,0l-0,-66.9c-0,-11.096 -0,-14.387 -9.542,-14.387l-19.058,-0l-0,-13.346l2.25,-0c10.925,-0.171 25.658,-0.346 30.333,-22.354l17.333,-0Zm98.755,98.962l-0,18.029l-79.555,0l0,-16.808c14.909,-10.229 29.642,-24.267 36.584,-31.371c6.408,-6.583 17.15,-17.854 17.15,-33.283c-0,-9.013 -4.5,-17.5 -15.417,-17.5c-17.167,-0 -16.65,18.717 -16.475,27.033l-21.842,-1.904c0,-16.467 5.379,-27.037 9.88,-32.412c6.416,-7.45 17.504,-12.646 30.166,-12.646c22.175,-0 37.6,14.379 37.6,36.566c0,18.892 -11.608,32.417 -24.425,44.021c-2.604,2.254 -18.2,15.425 -24.791,20.279l51.125,0l-0,-0.004Z" style="fill:#fff;"/></g></svg>