<?xml version="1.0" encoding="UTF-8" standalone="no"?><!DOCTYPE svg PUBLIC "-//W3C//DTD SVG 1.1//EN" "http://www.w3.org/Graphics/SVG/1.1/DTD/svg11.dtd"><svg width="100%" height="100%" viewBox="0 0 334 334" version="1.1" xmlns="http://www.w3.org/2000/svg" xmlns:xlink="http://www.w3.org/1999/xlink" xml:space="preserve" xmlns:serif="http://www.serif.com/" style="fill-rule:evenodd;clip-rule:evenodd;stroke-linejoin:round;stroke-miterlimit:2;"><g><path d="M166.667,327.488c-88.821,-0 -160.825,-72 -160.825,-160.821c0.004,-88.817 72.008,-160.817 160.825,-160.817c88.816,0 160.821,72 160.821,160.817c-0,88.821 -72.001,160.821 -160.821,160.821m-0,-327.488c-92.042,0 -166.667,74.621 -166.667,166.667c0,92.05 74.617,166.662 166.667,166.662c92.046,0 166.666,-74.612 166.666,-166.667c0,-92.037 -74.625,-166.662 -166.666,-166.662"/><path d="M166.667,312.867c-80.746,-0 -146.2,-65.45 -146.2,-146.196c-0,-80.742 65.458,-146.2 146.2,-146.2c80.75,-0 146.2,65.458 146.2,146.2c-0,80.746 -65.455,146.196 -146.2,146.196m-0,-307.017c-88.817,-0.004 -160.821,71.996 -160.821,160.817c-0,88.82 72.004,160.816 160.821,160.816c88.816,0 160.821,-72 160.821,-160.816c-0,-88.817 -72,-160.821 -160.821,-160.821" style="fill:#fff;"/><path d="M166.667,20.467c-80.75,-0 -146.205,65.458 -146.205,146.2c0.001,80.75 65.459,146.2 146.196,146.2c80.75,-0 146.2,-65.455 146.2,-146.2c0.005,-80.742 -65.45,-146.2 -146.191,-146.2" style="fill:#ff7d13;"/><path d="M83.958,106.342l0,116.987l-21.312,0l-0,-66.9c-0,-11.096 -0,-14.387 -9.542,-14.387l-19.054,-0l0,-13.346l2.25,-0c10.925,-0.171 25.658,-0.346 30.333,-22.354l17.33,-0l-0.005,-0Zm98.759,98.962l-0,18.029l-79.55,0l-0,-16.812c14.904,-10.225 29.637,-24.263 36.571,-31.367c6.412,-6.583 17.154,-17.854 17.154,-33.283c-0,-9.013 -4.5,-17.5 -15.421,-17.5c-17.167,-0 -16.642,18.717 -16.467,27.033l-21.837,-1.904c-0,-16.467 5.375,-27.037 9.875,-32.412c6.412,-7.45 17.5,-12.65 30.162,-12.65c22.179,-0 37.608,14.383 37.608,36.57c0,18.892 -11.612,32.409 -24.433,44.021c-2.604,2.254 -18.2,15.425 -24.792,20.279l51.125,0l0.005,-0.004Zm80.85,-4.754l-43.734,0l-6.77,22.783l-23.267,0l39.279,-116.525l24.754,0l39.779,116.525l-23.275,0l-6.766,-22.779l-0,-0.004Zm-5.779,-18.979l-16.001,-53.642l-16.174,53.642l32.175,-0Z" style="fill:#fff;"/></g></svg>