<?xml version="1.0" encoding="UTF-8" standalone="no"?><!DOCTYPE svg PUBLIC "-//W3C//DTD SVG 1.1//EN" "http://www.w3.org/Graphics/SVG/1.1/DTD/svg11.dtd"><svg width="100%" height="100%" viewBox="0 0 334 334" version="1.1" xmlns="http://www.w3.org/2000/svg" xmlns:xlink="http://www.w3.org/1999/xlink" xml:space="preserve" xmlns:serif="http://www.serif.com/" style="fill-rule:evenodd;clip-rule:evenodd;stroke-linejoin:round;stroke-miterlimit:2;"><g><path d="M166.667,327.488c-88.813,-0 -160.817,-72 -160.817,-160.821c0,-88.817 72.004,-160.817 160.817,-160.817c88.812,0 160.821,72 160.821,160.817c-0,88.821 -72.009,160.821 -160.821,160.821m-0,-327.488c-92.042,0 -166.663,74.621 -166.663,166.667c0,92.05 74.617,166.662 166.667,166.662c92.046,0 166.667,-74.612 166.667,-166.667c-0.005,-92.037 -74.625,-166.662 -166.671,-166.662"/><path d="M166.667,312.867c-80.742,-0 -146.196,-65.45 -146.196,-146.196c-0,-80.742 65.458,-146.2 146.196,-146.2c80.75,-0 146.2,65.458 146.2,146.2c-0,80.746 -65.45,146.196 -146.2,146.196m-0,-307.017c-88.813,-0.004 -160.817,71.996 -160.817,160.817c0,88.82 72.004,160.816 160.817,160.816c88.812,0 160.821,-72 160.821,-160.816c-0,-88.813 -72.009,-160.817 -160.821,-160.817" style="fill:#fff;"/><path d="M166.667,20.467c-80.742,-0 -146.196,65.458 -146.196,146.2c-0,80.75 65.458,146.2 146.196,146.2c80.75,-0 146.2,-65.455 146.2,-146.2c-0,-80.742 -65.45,-146.2 -146.2,-146.2" style="fill:#fb4f93;"/><path d="M134.083,106.333l0,116.992l-21.312,0l-0,-66.9c-0,-11.096 -0,-14.383 -9.542,-14.383l-19.058,-0l-0,-13.346l2.25,-0c10.925,-0.175 25.654,-0.346 30.333,-22.358l17.329,-0l0,-0.005Zm90.788,19.242l-45.579,0l-3.988,25.821c5.196,-5.196 13.517,-8.667 22.529,-8.667c20.796,0 35.53,15.425 35.53,39c-0,24.092 -15.771,43.154 -43.5,43.154c-7.8,0 -15.43,-1.383 -22.192,-4.85c-16.292,-8.666 -17.5,-23.75 -18.021,-29.462l24.267,-1.738c0.516,11.959 7.971,17.334 16.812,17.334c3.988,-0 7.45,-0.867 10.221,-2.775c5.2,-3.467 8.842,-11.609 8.842,-20.796c-0,-14.563 -9.013,-22.013 -19.409,-22.013c-7.975,0 -14.733,3.642 -17.508,10.917l-19.587,-1.208l8.316,-64.304l65,-0l-1.733,19.583l-0,0.004Z" style="fill:#fff;"/></g></svg>