<?xml version="1.0" encoding="UTF-8" standalone="no"?><!DOCTYPE svg PUBLIC "-//W3C//DTD SVG 1.1//EN" "http://www.w3.org/Graphics/SVG/1.1/DTD/svg11.dtd"><svg width="100%" height="100%" viewBox="0 0 334 334" version="1.1" xmlns="http://www.w3.org/2000/svg" xmlns:xlink="http://www.w3.org/1999/xlink" xml:space="preserve" xmlns:serif="http://www.serif.com/" style="fill-rule:evenodd;clip-rule:evenodd;stroke-linejoin:round;stroke-miterlimit:2;"><g><path d="M166.667,327.488c-88.809,-0 -160.817,-72 -160.817,-160.821c0,-88.817 72.008,-160.817 160.817,-160.817c88.816,0 160.825,72 160.825,160.817c-0,88.821 -72.009,160.821 -160.825,160.821m-0,-327.488c-92.046,0 -166.667,74.621 -166.667,166.667c0,92.05 74.625,166.662 166.667,166.662c92.05,0 166.666,-74.612 166.666,-166.667c0,-92.037 -74.616,-166.662 -166.666,-166.662"/><path d="M166.667,312.867c-80.742,-0 -146.196,-65.45 -146.196,-146.196c-0,-80.742 65.454,-146.2 146.196,-146.2c80.746,-0 146.2,65.458 146.2,146.2c-0,80.746 -65.459,146.196 -146.2,146.196m-0,-307.017c-88.809,-0.004 -160.817,71.996 -160.817,160.817c0,88.82 72.008,160.816 160.817,160.816c88.816,0 160.825,-72 160.825,-160.816c-0,-88.813 -72.009,-160.817 -160.825,-160.817" style="fill:#fff;"/><path d="M166.667,20.467c-80.742,-0 -146.196,65.458 -146.196,146.2c-0,80.75 65.454,146.2 146.196,146.2c80.746,-0 146.2,-65.455 146.2,-146.2c-0,-80.742 -65.459,-146.2 -146.2,-146.2" style="fill:#dc0a0a;"/><path d="M134.083,106.333l0,116.992l-21.308,0l0,-66.9c0,-11.092 0,-14.383 -9.542,-14.383l-19.062,-0l-0,-13.346l2.25,-0c10.929,-0.175 25.662,-0.346 30.341,-22.358l17.321,-0l0,-0.005Zm101.359,83.367c-0,21.317 -18.367,35.179 -43.842,35.179c-26.7,0 -43.167,-14.9 -43.167,-35.179c0,-18.375 13.35,-24.783 19.242,-27.554c-12.479,-5.896 -15.075,-18.55 -15.075,-25.479c0,-18.2 15.075,-32.242 40.208,-32.242c24.096,0 39.863,13 39.863,33.279c-0,10.229 -4.167,19.063 -15.254,24.442c13.52,6.758 18.025,16.808 18.025,27.554m-62.571,-0.692c-0,9.875 6.937,16.638 19.766,16.638c11.267,-0 19.584,-5.896 19.584,-16.817c-0,-2.075 -0.346,-16.633 -19.584,-16.633c-18.549,-0 -19.766,13.171 -19.766,16.812m1.912,-49.741c0,5.2 2.25,15.421 18.029,15.421c13.696,-0 17.159,-8.834 17.159,-15.417c-0,-13.354 -10.575,-15.779 -17.334,-15.779c-14.737,-0.167 -17.854,9.358 -17.854,15.775" style="fill:#fff;"/></g></svg>