<?xml version="1.0" encoding="UTF-8" standalone="no"?><!DOCTYPE svg PUBLIC "-//W3C//DTD SVG 1.1//EN" "http://www.w3.org/Graphics/SVG/1.1/DTD/svg11.dtd"><svg width="100%" height="100%" viewBox="0 0 375 334" version="1.1" xmlns="http://www.w3.org/2000/svg" xmlns:xlink="http://www.w3.org/1999/xlink" xml:space="preserve" xmlns:serif="http://www.serif.com/" style="fill-rule:evenodd;clip-rule:evenodd;stroke-linejoin:round;stroke-miterlimit:2;"><g><path d="M364.771,312.892c-5.162,9.063 -14.845,14.654 -25.275,14.595l-303.996,0c-10.429,0.06 -20.112,-5.53 -25.275,-14.591c-5.267,-9.004 -5.269,-20.187 -0.004,-29.192l152,-263.262c5.162,-9.065 14.848,-14.656 25.279,-14.592c10.55,-0 20,5.454 25.275,14.592l151.996,263.262c5.272,9.001 5.272,20.186 -0,29.188m5.062,-32.113l-152,-263.262c-6.194,-10.878 -17.816,-17.589 -30.333,-17.517c-12.518,-0.074 -24.141,6.636 -30.338,17.513l-152,263.27c-6.321,10.806 -6.321,24.228 0,35.034c6.199,10.877 17.823,17.586 30.342,17.512l303.992,0c12.517,0.074 24.139,-6.635 30.333,-17.512c6.326,-10.808 6.326,-24.234 0,-35.042"/><path d="M339.492,312.863l-303.992,-0c-11.208,-0 -18.217,-12.138 -12.613,-21.846l152.001,-263.267c2.577,-4.518 7.406,-7.306 12.608,-7.279c4.904,-0 9.812,2.425 12.616,7.279l151.992,263.267c5.608,9.708 -1.4,21.845 -12.612,21.845m25.275,-29.158l-151.992,-263.266c-5.164,-9.061 -14.846,-14.651 -25.275,-14.592c-10.429,-0.06 -20.112,5.53 -25.275,14.592l-152,263.27c-5.269,9.004 -5.268,20.189 0.004,29.192c5.16,9.063 14.843,14.653 25.271,14.592l303.992,-0c10.43,0.061 20.114,-5.531 25.275,-14.596c5.272,-9.001 5.272,-20.186 -0,-29.188" style="fill:#fff;"/><path d="M200.113,27.75c-2.582,-4.516 -7.412,-7.3 -12.613,-7.271c-5.205,-0.03 -10.038,2.758 -12.617,7.279l-151.996,263.263c-5.604,9.708 1.405,21.846 12.613,21.846l303.992,-0c11.216,-0 18.221,-12.138 12.616,-21.846l-151.996,-263.271Z" style="fill:#fbad00;"/><path d="M99.475,172.083l37.5,0c6.142,0 12.6,0 19.063,1.738c10.87,2.996 26.154,12.758 26.154,35.287c-0,14.809 -6.934,30.721 -26.784,35.125c-6.145,1.43 -11.975,1.43 -18.75,1.43l-16.225,-0l0,37.645l-20.958,0l0,-111.225Zm20.958,17.805l0,38.604l14.967,-0c4.412,-0 8.192,-0 11.813,-0.95c12.916,-3.15 13.704,-14.963 13.704,-18.909c-0,-8.187 -3.625,-12.441 -5.509,-14.175c-5.2,-4.416 -12.446,-4.571 -19.22,-4.571l-15.755,0Zm167.85,32.613l0,60.813l-17.8,-0l0,-9.459c-9.925,9.775 -21.112,12.288 -30.408,12.288c-34.342,-0 -52.458,-27.417 -52.458,-57.338c-0,-34.975 23.154,-59.554 53.716,-59.554c23.167,0 40.175,14.183 46.95,32.771l-19.854,8.037c-2.042,-6.15 -8.025,-22.058 -26.937,-22.058c-20.95,0 -31.192,18.271 -31.192,40.167c-0,24.425 13.392,38.446 31.508,38.446c11.667,-0 25.525,-6.15 27.417,-25.838l-27.733,0l-0,-18.275l46.791,-0Z" style="fill:#fff;"/></g></svg>