<?xml version="1.0" encoding="UTF-8" standalone="no"?><!DOCTYPE svg PUBLIC "-//W3C//DTD SVG 1.1//EN" "http://www.w3.org/Graphics/SVG/1.1/DTD/svg11.dtd"><svg width="100%" height="100%" viewBox="0 0 375 334" version="1.1" xmlns="http://www.w3.org/2000/svg" xmlns:xlink="http://www.w3.org/1999/xlink" xml:space="preserve" xmlns:serif="http://www.serif.com/" style="fill-rule:evenodd;clip-rule:evenodd;stroke-linejoin:round;stroke-miterlimit:2;"><g><path d="M364.771,312.892c-5.163,9.062 -14.846,14.653 -25.275,14.596l-303.992,-0c-10.43,0.058 -20.113,-5.531 -25.279,-14.592c-5.268,-9.004 -5.268,-20.188 -0,-29.192l152,-263.262c5.161,-9.062 14.843,-14.653 25.271,-14.592c10.55,-0 20,5.454 25.279,14.592l151.992,263.262c5.271,9.001 5.273,20.185 0.004,29.188m5.062,-32.113l-151.996,-263.262c-6.196,-10.878 -17.818,-17.589 -30.337,-17.517c-12.516,-0.072 -24.137,6.637 -30.333,17.513l-152.009,263.27c-6.323,10.806 -6.323,24.228 0,35.034c6.198,10.878 17.823,17.588 30.342,17.512l304,0c12.518,0.075 24.142,-6.635 30.337,-17.512c6.326,-10.808 6.326,-24.234 0,-35.042"/><path d="M339.496,312.863l-303.996,-0c-11.212,-0 -18.221,-12.138 -12.613,-21.846l151.996,-263.267c2.58,-4.52 7.412,-7.308 12.617,-7.279c4.904,-0 9.808,2.425 12.613,7.279l151.991,263.267c5.608,9.708 -1.4,21.845 -12.608,21.845m25.271,-29.158l-151.992,-263.266c-5.163,-9.062 -14.846,-14.652 -25.275,-14.592c-10.554,-0 -20,5.458 -25.279,14.592l-151.992,263.27c-5.272,9.003 -5.272,20.189 0,29.192c5.163,9.062 14.846,14.652 25.275,14.592l303.992,-0c10.55,-0 20,-5.459 25.275,-14.596c5.269,-9.003 5.267,-20.187 -0.004,-29.188" style="fill:#fff;"/><path d="M200.113,27.75c-2.581,-4.516 -7.411,-7.301 -12.613,-7.271c-5.205,-0.029 -10.037,2.759 -12.617,7.279l-151.991,263.263c-5.609,9.708 1.4,21.846 12.612,21.846l303.992,-0c11.208,-0 18.216,-12.138 12.612,-21.846l-152,-263.271l0.004,0Z" style="fill:#0ac700;"/><path d="M234.454,160.604l0,73.442c-0.166,13.208 -0.166,24.092 -12.546,34.65c-11.879,10.404 -27.229,11.396 -35.146,11.396c-7.1,-0 -14.033,-0.825 -20.637,-3.134c-13.867,-4.791 -21.292,-14.858 -23.933,-23.6c-1.484,-5.116 -1.484,-8.75 -1.65,-23.275l-0,-69.479l21.787,0l0,71.625c0,4.958 -0.167,9.738 1.488,14.2c4.454,11.217 16.666,12.534 23.6,12.534c3.466,-0 12.216,-0.163 18.65,-5.771c6.433,-5.775 6.433,-12.375 6.433,-22.117l0,-70.471l21.954,0Z" style="fill:#fff;"/></g></svg>