<?xml version="1.0" encoding="UTF-8"?>
<svg width="268px" height="85px" viewBox="0 0 268 85" version="1.1" xmlns="http://www.w3.org/2000/svg" xmlns:xlink="http://www.w3.org/1999/xlink">
    <!-- Generator: Sketch 50.2 (55047) - http://www.bohemiancoding.com/sketch -->
    <title>Logo/White/Landscape</title>
    <desc>Created with Sketch.</desc>
    <defs/>
    <g id="Site" stroke="none" stroke-width="1" fill="none" fill-rule="evenodd">
        <g id="Home" transform="translate(-230.000000, -5552.000000)" fill="#FFFFFF">
            <g id="Footer" transform="translate(0.000000, 5512.000000)">
                <g id="Logo-&amp;-Social-icons" transform="translate(230.000000, 40.000000)">
                    <g id="Logo/White/Landscape">
                        <polyline id="Fill-1" points="38.6203099 23.1681667 38.6203099 17.1973889 43.0017324 17.1973889 43.0017324 13.6840556 38.6203099 13.6840556 38.6203099 11.016 43.1668732 11.016 43.1668732 7.50172222 34.6276761 7.50172222 34.6276761 23.1681667 38.6203099 23.1681667"/>
                        <polyline id="Fill-2" points="77.4218028 38.6173889 77.4218028 34.6167222 61.7721127 34.6167222 61.7721127 38.6173889 68.0323662 38.6173889 68.0323662 43.7419444 61.7721127 43.7419444 61.7721127 47.7416667 77.4218028 47.7416667 77.4218028 43.7419444 71.5427887 43.7419444 71.5427887 38.6173889 77.4218028 38.6173889"/>
                        <polyline id="Fill-3" points="15.7902958 71.9355 12.8489014 61.8384444 7.4964507 61.8384444 7.4964507 77.5048889 11.1786197 77.5048889 11.052169 65.7767778 14.4408592 77.5048889 17.079338 77.5048889 20.4680282 65.7767778 20.3396901 77.5048889 24.0218592 77.5048889 24.0218592 61.8384444 18.6486479 61.8384444 15.7902958 71.9355"/>
                        <path d="M57.7775915,81.4961111 L81.4191549,81.4961111 L81.4191549,30.6661111 L57.7775915,30.6661111 L57.7775915,81.4961111 Z M3.49721127,81.4961111 L54.2813239,81.4961111 L54.2813239,57.834 L3.49721127,57.834 L3.49721127,81.4961111 Z M3.49721127,54.3329444 L27.1387746,54.3329444 L27.1387746,3.502 L3.49721127,3.502 L3.49721127,54.3329444 Z M30.6388169,54.3329444 L54.2822676,54.3329444 L54.2822676,30.6661111 L30.6388169,30.6661111 L30.6388169,54.3329444 Z M30.6388169,27.1631667 L81.4191549,27.1631667 L81.4191549,3.502 L30.6388169,3.502 L30.6388169,27.1631667 Z M0,85 L84.9163662,85 L84.9163662,0 L0,0 L0,85 Z" id="Fill-5"/>
                        <polyline id="Fill-7" points="119.085423 40.2616667 119.085423 30.1721667 126.487507 30.1721667 126.487507 24.2316111 119.085423 24.2316111 119.085423 19.7247222 126.777211 19.7247222 126.777211 13.7832222 112.326915 13.7832222 112.326915 40.2616667 119.085423 40.2616667"/>
                        <polygon id="Fill-8" points="129.413803 18.2929444 135.349437 18.2929444 135.349437 13.7832222 129.413803 13.7832222"/>
                        <polygon id="Fill-9" points="129.413803 40.2607222 135.349437 40.2607222 135.349437 20.4028333 129.413803 20.4028333"/>
                        <polygon id="Fill-10" points="138.166268 40.2616667 144.103789 40.2616667 144.103789 13.7832222 138.166268 13.7832222"/>
                        <path d="M152.854366,29.7056111 C152.854366,29.0992778 152.854366,28.0254444 153.28562,27.0592778 C153.709324,26.0940556 154.53031,25.3054444 156.217577,25.3054444 C157.713282,25.3054444 158.435183,26.0572222 158.825859,26.9893889 C159.180676,27.8837778 159.180676,28.9198333 159.180676,29.4562778 L159.180676,40.2616667 L165.11631,40.2616667 L165.11631,29.4222778 C165.11631,28.8499444 165.11631,27.8450556 165.549451,26.9506667 C165.94107,26.0572222 166.764887,25.3054444 168.412521,25.3054444 C169.944085,25.3054444 170.699014,25.9845 171.053831,26.9176111 C171.446394,27.812 171.446394,28.8839444 171.446394,29.7056111 L171.446394,40.2616667 L177.382028,40.2616667 L177.382028,29.4222778 C177.382028,25.0183333 177.097042,23.6961111 175.238972,21.726 C173.628141,20.0458333 171.408648,19.7247222 170.021465,19.7247222 C167.946352,19.7247222 166.337408,20.4765 165.153113,21.5484444 C164.584085,22.0480556 164.116972,22.6581667 163.725352,23.2654444 C163.364873,22.5873333 162.974197,22.0480556 162.542944,21.6202222 C161.07838,20.0817222 159.358085,19.7247222 158.002986,19.7247222 C155.928817,19.7247222 154.53031,20.4028333 153.676296,21.1187222 C152.822282,21.7977778 152.466521,22.5146111 152.466521,22.5146111 L152.466521,20.4028333 L146.916845,20.4028333 L146.916845,40.2616667 L152.854366,40.2616667 L152.854366,29.7056111" id="Fill-11"/>
                        <polyline id="Fill-12" points="194.682183 13.7737778 187.929338 13.7737778 187.929338 40.2503333 194.682183 40.2503333 194.682183 29.6602778 203.338394 29.6602778 203.338394 40.2503333 210.095958 40.2503333 210.095958 13.7737778 203.338394 13.7737778 203.338394 23.7206667 194.682183 23.7206667 194.682183 13.7737778"/>
                        <path d="M218.847479,31.2365556 L218.847479,20.3924444 L212.913732,20.3924444 L212.913732,32.8090556 C212.913732,35.4903333 213.595056,40.9331667 220.312986,40.9331667 C223.890408,40.9331667 225.140761,39.1056667 225.821141,38.1395 L225.821141,40.2503333 L231.363268,40.2503333 L231.363268,20.3924444 L225.427634,20.3924444 L225.427634,31.1978333 C225.427634,33.2425556 224.961465,35.3524444 221.994592,35.3524444 C219.314592,35.3524444 218.847479,33.4191667 218.847479,31.2365556" id="Fill-13"/>
                        <path d="M239.901521,30.2703889 C239.901521,27.7997222 241.687873,25.2591667 244.833099,25.2591667 C247.764113,25.2591667 249.694845,27.7279444 249.694845,30.2703889 L249.694845,30.3043889 C249.694845,32.9129444 247.764113,35.3855 244.728352,35.3855 C241.760535,35.3855 239.901521,33.0243889 239.901521,30.2703889 Z M239.864718,40.2503333 L239.864718,38.1395 C240.689479,39.5722222 242.832535,40.9331667 245.622,40.9331667 C250.662099,40.9331667 255.631423,37.3565556 255.631423,30.1986111 C255.631423,22.6846111 250.019465,19.7133889 245.875845,19.7133889 C245.051085,19.7133889 242.224817,19.7133889 240.11762,21.9677778 L240.11762,13.7737778 L234.178211,13.7737778 L234.178211,40.2503333 L239.864718,40.2503333 Z" id="Fill-14"/>
                        <polyline id="Fill-15" points="126.34407 61.7685556 121.371915 44.6977222 112.326915 44.6977222 112.326915 71.1799444 118.549423 71.1799444 118.330493 51.3560556 124.057577 71.1799444 128.518268 71.1799444 134.243465 51.3560556 134.033028 71.1799444 140.247042 71.1799444 140.247042 44.6977222 131.169958 44.6977222 126.34407 61.7685556"/>
                        <polygon id="Fill-16" points="143.074254 71.1799444 149.000451 71.1799444 149.000451 51.3173333 143.074254 51.3173333"/>
                        <polygon id="Fill-17" points="143.074254 49.2055556 149.000451 49.2055556 149.000451 44.6977222 143.074254 44.6977222"/>
                        <path d="M165.481507,64.7718889 C164.553887,65.705 163.228042,66.2773333 161.802169,66.2773333 C159.007042,66.2773333 156.830014,64.2363889 156.830014,61.1962222 L156.830014,61.1593889 C156.830014,58.8691111 158.439901,56.1868889 161.869169,56.1868889 C163.266732,56.1868889 164.520859,56.6865 165.409789,57.5808889 C166.308155,58.4412778 166.873408,59.6577222 166.873408,61.0913889 C166.951732,62.5562222 166.409127,63.8435 165.481507,64.7718889 Z M166.55162,50.8536111 L166.55162,52.9993889 C165.908042,52.3543333 164.232099,50.6392222 160.727338,50.6392222 C155.687239,50.6392222 150.89438,54.4661111 150.89438,61.1962222 C150.89438,67.1707778 154.822845,71.8231111 160.836803,71.8231111 C164.836986,71.8231111 166.26569,69.8539444 166.84038,69.0313333 L166.84038,71.1799444 L172.489141,71.1799444 L172.489141,44.6977222 L166.55162,44.6977222 L166.55162,50.8536111 Z" id="Fill-18"/>
                        <polygon id="Fill-19" points="175.312577 71.1799444 181.244437 71.1799444 181.244437 44.6977222 175.312577 44.6977222"/>
                        <path d="M198.973014,61.5522778 C198.903183,62.4476111 198.651225,63.3051667 198.152028,64.0937778 C197.398986,65.3102222 196.113718,66.3132222 194.000859,66.3132222 C190.427211,66.3132222 189.074,63.1635 189.074,61.336 L189.074,61.3010556 C189.074,59.0476111 190.570648,56.1868889 193.965944,56.1868889 C196.47231,56.1868889 197.832127,57.5808889 198.474761,58.9408889 C198.864493,59.7625556 199.041901,60.6578889 198.973014,61.5522778 Z M198.973014,53.4300556 C198.188831,52.2107778 196.362845,50.6392222 193.11193,50.6392222 C187.819873,50.6392222 183.136479,54.7192222 183.136479,61.2302222 C183.136479,66.9214444 186.816761,71.8580556 193.11193,71.8580556 C195.433338,71.8580556 197.90007,70.9636667 198.973014,69.0313333 L198.973014,71.1799444 L204.906761,71.1799444 L204.906761,51.3173333 L198.973014,51.3173333 L198.973014,53.4300556 Z" id="Fill-20"/>
                        <path d="M218.740845,50.6392222 C215.200225,50.6392222 213.947986,52.4638889 213.269493,53.4300556 L213.269493,51.3173333 L207.727366,51.3173333 L207.727366,71.1799444 L213.661113,71.1799444 L213.661113,60.3717222 C213.661113,58.3326667 214.124451,56.2208889 217.059239,56.2208889 C219.698662,56.2208889 220.166718,58.1522778 220.166718,60.3358333 L220.166718,71.1799444 L226.102352,71.1799444 L226.102352,58.7642778 C226.102352,56.0763889 225.423859,50.6392222 218.740845,50.6392222" id="Fill-21"/>
                        <path d="M242.579634,64.7718889 C241.650127,65.705 240.326169,66.2773333 238.897465,66.2773333 C236.108944,66.2773333 233.930028,64.2363889 233.930028,61.1962222 L233.930028,61.1593889 C233.930028,58.8691111 235.536141,56.1868889 238.97107,56.1868889 C240.362972,56.1868889 241.613324,56.6865 242.51169,57.5808889 C243.398732,58.4412778 243.973423,59.6577222 243.973423,61.0913889 C244.04231,62.5562222 243.509141,63.8435 242.579634,64.7718889 Z M243.652577,50.8536111 L243.652577,52.9993889 C243.009,52.3543333 241.327394,50.6392222 237.823577,50.6392222 C232.785366,50.6392222 227.994394,54.4661111 227.994394,61.1962222 C227.994394,67.1707778 231.924746,71.8231111 237.93493,71.8231111 C241.935113,71.8231111 243.365704,69.8539444 243.938507,69.0313333 L243.938507,71.1799444 L249.586324,71.1799444 L249.586324,44.6977222 L243.652577,44.6977222 L243.652577,50.8536111 Z" id="Fill-22"/>
                        <path d="M260.558282,58.6915556 C258.988028,58.2259444 257.523465,57.6158333 257.523465,56.7195556 C257.523465,56.1868889 257.951887,55.3973333 259.198465,55.3973333 C260.952732,55.3973333 261.024451,56.4692778 261.059366,56.8999444 L266.888366,56.8999444 C266.384451,51.6781111 261.878465,50.6392222 259.27207,50.6392222 C255.158648,50.6392222 251.585944,53.2496667 251.585944,57.3655556 C251.585944,60.0525 253.727113,61.7307778 256.302366,62.5562222 C260.097775,64.022 261.562338,64.1995556 261.562338,65.5605 C261.562338,66.5276111 260.48562,67.099 259.487225,67.099 C259.231493,67.099 257.483831,67.099 257.233761,65.2724444 L251.333042,65.2724444 C251.87093,70.499 256.412775,71.8580556 259.415507,71.8580556 C263.810141,71.8580556 267.494197,69.2816111 267.494197,64.9163889 C267.494197,60.6238889 263.921493,59.6199444 260.558282,58.6915556" id="Fill-23"/>
                    </g>
                </g>
            </g>
        </g>
    </g>
</svg>