<?xml version="1.0" encoding="utf-8"?>
<!-- Generator: Adobe Illustrator 16.0.0, SVG Export Plug-In . SVG Version: 6.00 Build 0)  -->
<!DOCTYPE svg PUBLIC "-//W3C//DTD SVG 1.1//EN" "http://www.w3.org/Graphics/SVG/1.1/DTD/svg11.dtd">
<svg version="1.1" id="Layer_1" xmlns="http://www.w3.org/2000/svg" xmlns:xlink="http://www.w3.org/1999/xlink" x="0px" y="0px"
	 width="134.333px" height="93.333px" viewBox="0 0 134.333 93.333" enable-background="new 0 0 134.333 93.333"
	 xml:space="preserve">
<g>
	<defs>
		<rect id="SVGID_1_" x="-7.833" y="-3.834" width="150" height="122.333"/>
	</defs>
	<clipPath id="SVGID_2_">
		<use xlink:href="#SVGID_1_"  overflow="visible"/>
	</clipPath>
	<path clip-path="url(#SVGID_2_)" fill="#FFFFFF" d="M25.129,20.333c-0.545,1.042-1.313,1.844-2.304,2.409
		c-0.992,0.564-2.141,0.847-3.45,0.847c-1.268,0-2.452-0.308-3.552-0.923c-1.101-0.613-1.918-1.426-2.454-2.437
		c-0.495,1.011-1.292,1.824-2.393,2.437c-1.099,0.615-2.284,0.923-3.553,0.923c-1.308,0-2.468-0.283-3.479-0.847
		c-1.01-0.565-1.794-1.367-2.349-2.409c-0.553-1.04-0.832-2.235-0.832-3.583V7.502h3.865v9.069c0,1.032,0.313,1.848,0.937,2.453
		c0.624,0.604,1.451,0.906,2.483,0.906c1.031,0,1.848-0.302,2.453-0.906c0.604-0.605,0.907-1.421,0.907-2.453V7.502h3.894v9.069
		c0,1.032,0.317,1.848,0.952,2.453c0.634,0.604,1.476,0.906,2.527,0.906c0.991,0,1.788-0.306,2.393-0.921
		c0.605-0.614,0.907-1.427,0.907-2.438V7.502h3.865v9.247C25.946,18.098,25.675,19.292,25.129,20.333"/>
	<path clip-path="url(#SVGID_2_)" fill="#FFFFFF" d="M40.81,19.172c0.813-0.782,1.279-1.817,1.397-3.106v-1.129
		c-0.118-1.289-0.584-2.324-1.397-3.108c-0.813-0.782-1.844-1.174-3.092-1.174c-1.328,0-2.409,0.45-3.241,1.352
		c-0.832,0.903-1.259,2.067-1.278,3.495c0.019,1.426,0.446,2.591,1.278,3.492c0.832,0.904,1.913,1.353,3.241,1.353
		C38.966,20.347,39.997,19.956,40.81,19.172 M46.073,7.503v15.906h-3.866v-2.526c-0.574,0.871-1.313,1.541-2.215,2.007
		c-0.901,0.466-1.938,0.698-3.107,0.698c-1.507,0-2.83-0.341-3.97-1.025c-1.139-0.684-2.026-1.645-2.659-2.884
		c-0.635-1.239-0.953-2.662-0.953-4.267c0-1.586,0.318-2.989,0.953-4.207c0.633-1.22,1.52-2.166,2.659-2.84
		c1.14-0.673,2.454-1.01,3.941-1.01c1.17,0,2.21,0.232,3.122,0.699c0.911,0.465,1.655,1.134,2.229,2.006V7.503H46.073z"/>
	<path clip-path="url(#SVGID_2_)" fill="#FFFFFF" d="M56.97,8.202c0.921-0.545,1.996-0.827,3.226-0.848v3.747
		c-1.646-0.099-2.958,0.282-3.939,1.144c-0.982,0.863-1.473,2.027-1.473,3.494v7.671H50.92V7.503h3.864v3.062
		C55.32,9.536,56.048,8.748,56.97,8.202"/>
	<path clip-path="url(#SVGID_2_)" fill="#FFFFFF" d="M87.193,20.333c-0.546,1.042-1.313,1.844-2.304,2.409
		c-0.993,0.564-2.142,0.847-3.449,0.847c-1.268,0-2.453-0.308-3.554-0.923c-1.101-0.613-1.917-1.426-2.453-2.437
		c-0.495,1.011-1.292,1.824-2.394,2.437c-1.1,0.615-2.283,0.923-3.553,0.923c-1.308,0-2.468-0.283-3.479-0.847
		c-1.01-0.565-1.794-1.367-2.349-2.409c-0.554-1.04-0.832-2.235-0.832-3.583V7.502h3.865v9.069c0,1.032,0.313,1.848,0.937,2.453
		c0.625,0.604,1.451,0.906,2.482,0.906s1.849-0.302,2.453-0.906c0.604-0.605,0.906-1.421,0.906-2.453V7.502h3.896v9.069
		c0,1.032,0.316,1.848,0.951,2.453c0.635,0.604,1.477,0.906,2.527,0.906c0.99,0,1.788-0.306,2.394-0.921
		c0.604-0.614,0.908-1.427,0.908-2.438V7.502h3.863v9.247C88.009,18.098,87.739,19.292,87.193,20.333"/>
	<path clip-path="url(#SVGID_2_)" fill="#FFFFFF" d="M92.469,7.503h3.866v15.906h-3.866V7.503z M95.949,1.319
		c0.416,0.437,0.624,0.992,0.624,1.666c0,0.653-0.208,1.199-0.624,1.634c-0.416,0.436-0.941,0.654-1.576,0.654
		c-0.634,0-1.159-0.218-1.575-0.654c-0.416-0.435-0.626-0.981-0.626-1.634c0-0.674,0.21-1.229,0.626-1.666
		c0.416-0.436,0.941-0.654,1.575-0.654C95.007,0.665,95.533,0.883,95.949,1.319"/>
	<path clip-path="url(#SVGID_2_)" fill="#FFFFFF" d="M108.246,10.773c-1.289,0-2.333,0.437-3.137,1.309
		c-0.803,0.871-1.204,2.002-1.204,3.389c0,1.427,0.401,2.576,1.204,3.449c0.804,0.873,1.848,1.308,3.137,1.308
		c1.903,0,3.329-0.624,4.282-1.872l2.407,1.991c-0.713,1.03-1.654,1.824-2.823,2.378c-1.171,0.555-2.528,0.833-4.074,0.833
		c-1.566,0-2.959-0.337-4.177-1.011c-1.22-0.673-2.166-1.62-2.842-2.839c-0.673-1.22-1.009-2.621-1.009-4.207
		c0-1.606,0.342-3.023,1.025-4.252s1.636-2.181,2.854-2.855c1.219-0.674,2.62-1.01,4.207-1.01c1.447,0,2.739,0.252,3.881,0.757
		c1.139,0.507,2.064,1.224,2.778,2.156l-2.349,2.231C111.338,11.359,109.95,10.773,108.246,10.773"/>
	<polygon clip-path="url(#SVGID_2_)" fill="#FFFFFF" points="128.952,23.41 124.64,16.453 122.203,19.011 122.203,23.41 
		118.336,23.41 118.336,1.348 122.203,1.348 122.203,14.134 128.744,7.534 133.203,7.534 127.316,13.659 133.561,23.41 	"/>
	<path clip-path="url(#SVGID_2_)" fill="#FFFFFF" d="M63.434,57.908V34.065c0-0.93-0.754-1.685-1.685-1.685H14.822
		c-7.492,0-13.918,5.86-14.055,13.351c-0.141,7.632,6.002,13.862,13.602,13.862l47.38-0.001
		C62.68,59.592,63.434,58.838,63.434,57.908"/>
	<path clip-path="url(#SVGID_2_)" fill="#FFFFFF" d="M0.764,90.98V67.137c0-0.93,0.754-1.684,1.685-1.684l46.927-0.001
		c7.492,0,13.918,5.86,14.055,13.351c0.141,7.632-6.002,13.862-13.602,13.862l-47.38-0.001C1.518,92.665,0.764,91.911,0.764,90.98"
		/>
	<path clip-path="url(#SVGID_2_)" fill="#FFFFFF" d="M98.16,61.271V34.064c0-0.93-0.754-1.685-1.685-1.685H72.86
		c-0.932,0-1.687,0.756-1.685,1.688l0.043,27.44c0,17.206,13.948,31.155,31.154,31.155s31.154-13.949,31.154-31.155l0.043-27.44
		c0.001-0.932-0.754-1.688-1.686-1.688h-23.615c-0.93,0-1.685,0.755-1.685,1.685v27.207C106.584,67.194,98.16,67.201,98.16,61.271"
		/>
</g>
</svg>
