<?xml version="1.0" encoding="utf-8"?>
<!-- Generator: Adobe Illustrator 26.0.3, SVG Export Plug-In . SVG Version: 6.00 Build 0)  -->
<svg version="1.0" id="Layer_1" xmlns="http://www.w3.org/2000/svg" xmlns:xlink="http://www.w3.org/1999/xlink" x="0px" y="0px"
	 viewBox="0 0 993.4 700.6" style="enable-background:new 0 0 993.4 700.6;" xml:space="preserve">
<style type="text/css">
	.st0{fill:#FFFFFF;}
</style>
<path fill="#FFFFFF" d="M836.1,556.8h-3.5V592h3.5v-18.7h0.1l17.6,18.7h5.3l-18.7-19.2l17.7-16h-5.1l-16.7,15.8h-0.1L836.1,556.8z M822.4,584.5
	c-1.1,1.7-2.7,3.1-4.6,4c-1.8,0.8-3.8,1.3-5.8,1.3c-2.1,0-4.2-0.4-6.1-1.3c-1.7-0.8-3.3-1.9-4.6-3.3c-1.3-1.4-2.3-3.1-2.9-4.9
	c-1.4-3.8-1.4-7.9,0-11.7c0.6-1.8,1.6-3.5,2.9-4.9c2.7-3,6.6-4.7,10.7-4.6c1.1,0,2.1,0.1,3.1,0.4c0.9,0.2,1.8,0.6,2.7,1
	c0.8,0.4,1.5,0.9,2.2,1.5c0.6,0.5,1.1,1.1,1.5,1.7l3-2.2c-0.6-0.9-1.4-1.7-2.2-2.3c-0.9-0.7-1.9-1.3-3-1.7c-1.1-0.5-2.3-0.9-3.5-1.2
	c-1.3-0.2-2.5-0.4-3.8-0.4c-2.5,0-5,0.5-7.3,1.4c-2.2,0.9-4.2,2.2-5.8,3.8c-3.4,3.5-5.3,8.3-5.2,13.2c0,2.5,0.5,5,1.4,7.4
	c0.9,2.2,2.1,4.2,3.8,5.8c1.7,1.6,3.6,3,5.8,3.9c2.3,0.9,4.8,1.4,7.3,1.4c1.5,0,3-0.2,4.4-0.5c1.3-0.3,2.5-0.8,3.7-1.5
	c1.1-0.6,2.1-1.3,3-2.1c0.8-0.8,1.5-1.6,2.2-2.5L822.4,584.5z M785.7,556.8h-3.5V592h3.5V556.8z M732.5,556.8h-3.8l10.4,35.2h4.2
	l8.8-30.2h0.1L761,592h4.2l10.4-35.2h-3.8l-8.6,30.2H763l-8.8-30.2h-4.3l-8.8,30.2H741L732.5,556.8z M704.6,559.9h6.3
	c1.2,0,2.4,0.1,3.6,0.4c1,0.2,1.9,0.6,2.8,1.1c0.8,0.5,1.4,1.1,1.8,1.9c0.5,0.9,0.7,2,0.7,3c0.1,1.9-0.8,3.7-2.3,4.7
	c-2,1.2-4.3,1.7-6.6,1.6h-6.2L704.6,559.9L704.6,559.9z M704.6,575.5h6l9.8,16.4h4.3l-10.3-16.7c1.2-0.1,2.4-0.4,3.5-0.9
	c1.1-0.4,2-1.1,2.8-1.9c0.8-0.8,1.4-1.7,1.9-2.8c0.5-1.1,0.7-2.3,0.7-3.5c0.1-1.5-0.3-3-0.9-4.3c-0.6-1.2-1.4-2.2-2.5-2.9
	c-1.2-0.8-2.4-1.3-3.8-1.6c-1.6-0.3-3.2-0.5-4.8-0.5H701v35.2h3.5L704.6,575.5L704.6,575.5z M678.5,560.8l7.8,18.7h-15.5
	L678.5,560.8z M669.4,582.7h18.2l3.8,9.2h4l-15.1-35.2h-3.5l-15.2,35.2h3.9L669.4,582.7z M620.4,556.8h-3.8l10.4,35.2h4.1l8.8-30.2
	h0.1l8.8,30.2h4.2l10.3-35.2h-3.7l-8.6,30.2H651l-8.8-30.2h-4.3l-8.8,30.2h-0.1L620.4,556.8z M583.4,575.3h16.4v-3.2h-16.4V560h17.6
	v-3.2h-21.2v35.2h3.5L583.4,575.3z M567.1,580.3c-0.6,1.8-1.6,3.5-2.9,4.9c-2.7,3-6.6,4.6-10.7,4.6c-2.1,0-4.2-0.4-6.1-1.3
	c-3.5-1.6-6.2-4.5-7.5-8.2c-1.3-3.8-1.3-7.9,0-11.7c1.3-3.6,4-6.6,7.5-8.2c1.9-0.9,4-1.3,6.1-1.2c2.1,0,4.2,0.4,6.1,1.2
	c1.7,0.8,3.3,1.9,4.6,3.4c1.3,1.4,2.3,3.1,2.9,4.9C568.5,572.4,568.5,576.5,567.1,580.3 M570.5,567c-0.9-2.2-2.2-4.2-3.8-5.8
	c-1.7-1.7-3.7-3-5.9-3.8c-2.3-0.9-4.8-1.4-7.3-1.4c-2.5,0-5,0.5-7.3,1.4c-2.2,0.9-4.1,2.2-5.8,3.8c-1.7,1.7-3,3.7-3.8,5.8
	c-0.9,2.4-1.4,4.9-1.4,7.4c0,2.5,0.5,5,1.4,7.4c0.9,2.2,2.2,4.2,3.8,5.8c1.7,1.6,3.6,2.9,5.8,3.9c4.7,1.8,9.9,1.8,14.6,0
	c2.2-0.9,4.2-2.2,5.9-3.9c1.7-1.7,3-3.7,3.8-5.8C572.3,577.1,572.3,571.8,570.5,567 M507.1,576.8l13.1-20h-4.2l-10.7,17l-10.6-17
	h-4.5l13.2,20V592h3.6L507.1,576.8z M474.5,560h11.8v-3.2h-27.1v3.2H471v32h3.5L474.5,560z M454.2,556.9h-3.5V592h3.5V556.9z
	 M442.7,560.2c-1-1.3-2.3-2.3-3.8-3c-1.9-0.9-4-1.3-6.1-1.3c-1.3,0-2.6,0.2-3.9,0.5c-1.3,0.4-2.5,1-3.6,1.8c-1.1,0.8-2,1.8-2.6,3
	c-0.7,1.4-1,2.9-1,4.4c0,1.4,0.3,2.7,0.8,4c0.5,1.1,1.3,2,2.2,2.8c0.9,0.7,1.9,1.3,3,1.8c1.1,0.5,2.3,0.9,3.4,1.3s2.2,0.7,3.2,1.1
	c1,0.3,1.9,0.8,2.7,1.4c0.8,0.5,1.4,1.2,1.9,2c1,1.9,1,4.1,0,6c-0.5,0.8-1.1,1.5-1.9,2.1c-0.7,0.6-1.6,1.1-2.5,1.3
	c-0.9,0.3-1.8,0.4-2.7,0.4c-1.7,0-3.4-0.4-4.8-1.3c-1.3-0.8-2.4-1.8-3.2-3.1l-3.1,2.3c0.6,0.8,1.4,1.6,2.2,2.3
	c0.8,0.7,1.7,1.2,2.7,1.6c1,0.5,2,0.8,3,1c1,0.2,2.1,0.3,3.2,0.3c1.4,0,2.8-0.2,4.2-0.6c1.3-0.4,2.6-1,3.7-1.9
	c1.1-0.8,2-1.9,2.6-3.1c0.7-1.4,1-3,1-4.5c0.1-2.8-1.1-5.5-3.4-7.2c-1-0.7-2.2-1.3-3.4-1.8c-1.2-0.5-2.5-0.9-3.7-1.3
	c-1-0.4-1.9-0.7-2.8-1c-0.9-0.3-1.7-0.7-2.4-1.3c-0.7-0.5-1.3-1.1-1.7-1.9c-0.5-0.8-0.7-1.8-0.7-2.8c0-1,0.2-2,0.7-3
	c0.4-0.8,1-1.5,1.8-2c0.7-0.5,1.5-1,2.4-1.2c0.9-0.2,1.8-0.4,2.6-0.4c1.5-0.1,3,0.3,4.3,1c1.2,0.6,2.2,1.5,3,2.5L442.7,560.2z
	 M396.2,559.9h6.4c1.2,0,2.4,0.1,3.6,0.4c1,0.2,1.9,0.6,2.8,1.1c0.8,0.5,1.4,1.1,1.8,1.9c0.5,0.9,0.7,2,0.7,3
	c0.1,1.9-0.8,3.7-2.4,4.7c-2,1.2-4.3,1.7-6.6,1.6h-6.2L396.2,559.9L396.2,559.9z M396.2,575.5h6l9.8,16.4h4.4l-10.3-16.7
	c1.2-0.1,2.4-0.4,3.5-0.9c1.1-0.4,2-1.1,2.8-1.9c0.8-0.8,1.5-1.7,1.9-2.8c0.5-1.1,0.7-2.3,0.7-3.5c0.1-1.5-0.3-3-0.9-4.3
	c-0.6-1.2-1.4-2.1-2.5-2.9c-1.2-0.8-2.5-1.3-3.9-1.6c-1.6-0.3-3.2-0.5-4.8-0.5h-10.3V592h3.5v-16.5H396.2z M366.4,575.2h17V572h-17
	v-12h18.1v-3.2h-21.8v35.2h22.4v-3.2h-18.8L366.4,575.2z M330.7,556.8h-3.9l13.4,35.2h3.8l13.4-35.2h-3.9l-11.4,30.5H342
	L330.7,556.8z M320.8,556.8h-3.5V592h3.5V556.8z M284.8,556.8h-4.5V592h3.6v-30.2h0.1l20.5,30.2h4.4v-35.2h-3.6v29.9h-0.1
	L284.8,556.8z M265.4,591.5c1.6-0.8,3-2,4-3.4c1-1.4,1.7-2.9,2-4.5c0.3-1.5,0.5-3.1,0.5-4.6v-22h-3.5v21.7c0,1.4-0.1,2.8-0.5,4.2
	c-0.3,1.3-0.9,2.5-1.6,3.6c-0.8,1.1-1.8,1.9-3,2.5c-1.4,0.7-2.9,1-4.5,1c-1.6,0.1-3.1-0.3-4.5-1c-1.2-0.6-2.2-1.5-3-2.5
	c-0.7-1.1-1.3-2.3-1.6-3.6c-0.4-1.4-0.5-2.8-0.5-4.2v-21.7h-3.6v22c0,1.6,0.2,3.1,0.5,4.6c0.4,1.6,1,3.2,2,4.5
	c1.1,1.4,2.4,2.6,4,3.4c2,1,4.3,1.5,6.5,1.4c2.3,0.1,4.5-0.4,6.5-1.4 M206.8,575.2h17V572h-17v-12h18.2v-3.2h-21.8v35.2h22.4v-3.2
	h-18.8V575.2z M167.8,591.9h3.5v-16.7h19.2v16.6h3.6v-35.1h-3.6V572h-19.2v-15.2h-3.5V591.9z M149.6,560h11.7v-3.2h-27.1v3.2h11.7
	v32h3.5L149.6,560L149.6,560z"/>
<path fill="#FFFFFF" d="M244.8,521.6l32.1-109.5h-10.8l-27.8,97l-25.8-87.7h-13.3L173,509.1l-27.8-97h-10.8l32.1,109.5h12.8l26.5-88.1l26.1,88.1
	H244.8z M626.1,521.6h10.5V412.1h-10.5V521.6z M626.1,521.6h10.5V412.1h-10.5V521.6z M626.1,521.6h10.5V412.1h-10.5V521.6z
	 M844.1,521.6h15l-57.8-54.7l54.7-54.7h-14.4l-55.9,54.7L844.1,521.6z"/>
<rect fill="#FFFFFF" x="769.5" y="412.1" width="10.5" height="109.5"/>
<path fill="#FFFFFF" d="M324.2,412.1h-9.8l-48.9,109.5h10.9l12.6-29.1h60.5l12.6,29.1H373L324.2,412.1z M293.2,483.3l26.1-60l26.1,60H293.2z"/>
<path fill="#FFFFFF" d="M324.2,412.1h-9.8l-48.9,109.5h10.9l12.6-29.1h60.5l12.6,29.1H373L324.2,412.1z M293.2,483.3l26.1-60l26.1,60H293.2z"/>
<polygon fill="#FFFFFF" points="576.4,521.6 608.5,412.1 597.8,412.1 570,509.1 544.7,421.4 530.4,421.4 504.6,509.1 476.8,412.1 466,412.1
	498.2,521.6 511,521.6 537.6,433.4 563.6,521.6 "/>
<path fill="#FFFFFF" d="M712.9,515.1c-29.3,0-47.5-21-47.5-48.3l0,0c0-27.2,18.2-48.5,47.5-48.5c11.3,0,25.2,5.2,33,17l8.5-6.3
	c-10.6-14.2-25.2-19.9-41.6-19.9c-34.2,0-57.9,24.4-57.9,57.8l0,0c0,33.4,23.7,57.6,57.9,57.6c16.4,0,31-5.7,41.6-20l-8.5-6.3
	C738.1,509.8,724.2,515.1,712.9,515.1z"/>
<path fill="#FFFFFF" d="M427.9,470.6c12.2-2.1,27.5-8.5,27.5-28.8c0-28.8-29.1-29.7-37.9-29.7h-31.4v109.5h10.4V421.4h22.4
	c22,0,26.1,12.9,26.1,20.5s-4.3,20.5-26.1,20.5H407v9.3h10.5l30,50h11.9L427.9,470.6z"/>
<polygon fill="#FFFFFF" class="st0" points="243.8,107.5 385.8,357.5 497.3,160.3 609.3,357.5 750.6,107.5 "/>
<polygon fill="#FFFFFF" id="SVGID" points="243.8,107.5 385.8,357.5 497.3,160.3 609.3,357.5 750.6,107.5 "/>
</svg>
