<?xml version="1.0" encoding="UTF-8" standalone="no"?><!DOCTYPE svg PUBLIC "-//W3C//DTD SVG 1.1//EN" "http://www.w3.org/Graphics/SVG/1.1/DTD/svg11.dtd"><svg width="100%" height="100%" viewBox="0 0 1067 1067" version="1.1" xmlns="http://www.w3.org/2000/svg" xmlns:xlink="http://www.w3.org/1999/xlink" xml:space="preserve" xmlns:serif="http://www.serif.com/" style="fill-rule:evenodd;clip-rule:evenodd;stroke-miterlimit:2.6131;"><g id="Layer_1"><g><g><g><g><path d="M939.529,518.579l0,-51.092l-59.383,0c-29.817,-135.641 -137.029,-242.837 -272.671,-272.654l0,-59.404l-51.083,0l-0,103.254c148.521,12.35 267.537,131.375 279.891,279.896l103.246,0Zm-817.371,0l0,-51.087l59.384,-0c29.816,-135.638 137.029,-242.838 272.675,-272.655l-0,-59.404l51.087,0l0,103.259c-148.521,12.35 -267.541,131.366 -279.9,279.887l-103.246,0Zm383.146,434.238l-51.087,-0l-0,-59.392c-135.642,-29.817 -242.842,-137.029 -272.654,-272.671l-59.405,0l0,-51.083l103.255,-0c12.354,148.521 131.37,267.537 279.891,279.891l0,103.255Zm434.225,-383.146l0,51.083l-59.383,0c-29.817,135.638 -137.029,242.838 -272.671,272.659l0,59.408l-51.083,-0l-0,-103.263c148.521,-12.346 267.537,-131.362 279.891,-279.883l103.246,0l0,-0.004Z" style="fill:#fff;"/></g></g><g opacity="0"><g><path d="M939.529,518.579l0,-51.092l-59.383,0c-29.817,-135.641 -137.029,-242.837 -272.671,-272.654l0,-59.404l-51.083,0l-0,103.254c148.521,12.35 267.537,131.375 279.891,279.896l103.246,0Zm-817.371,0l0,-51.087l59.384,-0c29.816,-135.638 137.029,-242.838 272.675,-272.655l-0,-59.404l51.087,0l0,103.259c-148.521,12.35 -267.541,131.366 -279.9,279.887l-103.246,0Zm383.146,434.238l-51.087,-0l-0,-59.392c-135.642,-29.817 -242.842,-137.029 -272.654,-272.671l-59.405,0l0,-51.083l103.255,-0c12.354,148.521 131.37,267.537 279.891,279.891l0,103.255Zm434.225,-383.146l0,51.083l-59.383,0c-29.817,135.638 -137.029,242.838 -272.671,272.659l0,59.408l-51.083,-0l-0,-103.263c148.521,-12.346 267.537,-131.362 279.891,-279.883l103.246,0l0,-0.004Z" style="fill:none;fill-rule:nonzero;stroke:#fff;stroke-width:0.92px;"/></g></g></g><path d="M461.725,328.829c-1.992,3.833 -3.908,6.95 -5.758,9.354c6.862,4.975 13.429,9.234 19.166,10.13c-4.045,-2.859 -8.52,-9.338 -13.408,-19.484Zm-27.117,-5.346c-1.458,-5.72 -2.791,-12.629 -3.995,-20.741c-0.8,6.912 -1.596,12.795 -2.401,17.75c2.026,0.754 4.151,1.758 6.396,2.991Zm-26.129,1.121c-1.125,-2.483 -2.312,-5.2 -3.566,-8.125c-3.5,-8.404 -7,-19.721 -10.505,-28.129c-7.008,11.208 -19.829,26.296 -26.837,37.504c67.946,46.221 57.437,61.638 -31.517,46.221c104.779,76.488 30.259,55.846 -8.404,54.638c76.663,59.662 40.121,75.02 -12.604,84.05c73.116,38.545 123.025,74.983 10.504,96.654c78.467,19.962 104.383,55.679 14.708,126.083c35.096,-12.654 56.367,-13.458 68.767,-6.487c4.267,-8.067 8.304,-16.446 10.354,-25.488l4.508,-314.654c1.475,-25.542 -9.066,-22.883 -13.27,-29.263c-5.83,-8.858 -12.925,-18.712 -4.446,-30.216c0.762,-1.025 1.533,-1.954 2.308,-2.788Zm132.563,408.842c7.187,2.733 16.025,8.137 26.041,15.446c-15.691,-41.896 9.538,-35.742 53.371,-7.763c-47.712,-32.179 -41.562,-51.271 3.883,-52.391c-21.108,-27.842 -35.075,-54.371 0.967,-71.809c-54.737,-12.066 -22.15,-57.958 5.817,-67.921c-40.925,-4.37 -33.804,-21.191 -4.85,-43.67c-52.596,-9.042 -28.909,-28.775 -0.967,-45.605c-47.704,0.967 -52.562,-8.737 -1.946,-38.816c-48.691,-0.434 -31.479,-21.313 -4.841,-45.117c-32.675,22.8 -43.342,11.971 -32.034,-30.083c-13.037,14.425 -29.925,40.587 -32.47,17.066c-2.825,0.013 -5.805,-0.437 -8.88,-1.237c6.175,9.317 9.725,19.512 10.367,30.575l5.021,311.429c-2.479,15.2 -11.692,23.313 -19.479,29.896Z" style="fill:#fff;fill-opacity:0;stroke:#fff;stroke-width:2.38px;"/><path d="M560.525,703.546c-5.475,33.562 -43.787,32.591 -27.021,56.796c27.329,1.304 57.375,-29.467 71.738,1.466c14.371,30.942 -127.055,120.73 -127,155.25c-6.284,6.925 -10.742,8.334 -13.35,4.242c-1.609,9.075 -5.742,11.817 -11.025,11.713c-2.292,6.891 -5.042,12.875 -11.017,12.404c-0.921,-3.45 -0.921,-6.892 0,-10.334c-4.371,5.975 -8.508,11.929 -11.025,17.913c-5.967,2.979 -10.104,-0.463 -12.396,-10.333c-2.758,11.362 -5.508,16.412 -8.266,18.595c-3.038,-3.596 -4.601,-9.17 -13.517,-4.933c2.571,-31.883 105.629,-128.221 87.058,-162.133c-18.571,-33.913 -53.596,30.312 -80.696,-2.15c-26.204,-31.388 5.509,-55.355 14.517,-87.192l31.9,10.212l110.071,-12.8l0.029,1.284Zm-136.712,-311.534l0.075,-5.137c1.474,-25.542 -9.067,-22.883 -13.271,-29.263c-5.829,-8.858 -12.925,-18.712 -4.446,-30.216c8.729,-11.842 18.454,-10.363 32.829,-1.309c18.475,11.634 37.933,33.284 48.471,15.863c17.392,-28.754 -55.813,-22.546 -54.621,-57.763c1.317,-38.862 123.979,-20.716 109.558,-76.708c-31.2,-121.171 -105.616,-56.879 -95.329,-187.142c5.546,7.792 10.575,10.855 15.609,9.546c-2.625,-5.687 -0.875,-10.496 5.25,-14.433c4.375,4.596 7.87,11.812 10.5,21.654c3.933,-3.5 8.75,-7.871 14.437,-13.125c3.058,1.304 6.121,3.479 9.183,11.813c6.13,-3.721 11.375,-10.938 15.75,-21.655c5.25,3.28 7.875,7.438 7.875,12.471c1.53,-3.721 3.063,-7.437 4.596,-11.158c0.088,11.9 9.5,9.8 17.063,10.504c0.221,-4.162 0.437,-8.317 0.658,-12.471c6.338,-2.187 12.679,-3.504 19.025,-3.937c-1.971,3.721 -3.937,7.437 -5.908,11.158c3.279,-0.442 6.566,-0.875 9.846,-1.312l-0,8.529c4.029,-2.642 8.058,-5.292 12.091,-7.934c-25.087,48.825 -41.266,31.842 -13.746,120.563c23.692,76.375 -38.279,142.45 -48.529,154.142c-23.221,26.479 66.759,30.329 49.367,59.075c-5.6,9.25 -14.821,10.437 -25.017,7.783c6.175,9.317 9.725,19.512 10.367,30.575l0.05,2.854l-105.121,-14.671l-26.612,11.704Zm121.325,-30.47l-73.134,-13.421l73.134,13.421Zm-77.775,422.483l108.112,-34.033l-108.112,34.033Z" style="fill:#fff;fill-rule:nonzero;stroke:#fff;stroke-width:2.58px;"/><g><g><path d="M560.525,703.546c-5.475,33.562 -43.787,32.591 -27.021,56.796c27.329,1.304 57.375,-29.467 71.738,1.466c14.371,30.942 -127.055,120.73 -127,155.25c-6.284,6.925 -10.742,8.334 -13.35,4.242c-1.609,9.075 -5.742,11.817 -11.025,11.713c-2.292,6.891 -5.042,12.875 -11.017,12.404c-0.921,-3.45 -0.921,-6.892 0,-10.334c-4.371,5.975 -8.508,11.929 -11.025,17.913c-5.967,2.979 -10.104,-0.463 -12.396,-10.333c-2.758,11.362 -5.508,16.412 -8.266,18.595c-3.038,-3.596 -4.601,-9.17 -13.517,-4.933c2.571,-31.883 105.629,-128.221 87.058,-162.133c-18.571,-33.913 -53.596,30.312 -80.696,-2.15c-26.204,-31.388 5.509,-55.355 14.517,-87.192l31.9,10.212l110.071,-12.8l0.029,1.284Zm-136.712,-311.534l0.075,-5.137c1.474,-25.542 -9.067,-22.883 -13.271,-29.263c-5.829,-8.858 -12.925,-18.712 -4.446,-30.216c8.729,-11.842 18.454,-10.363 32.829,-1.309c18.475,11.634 37.933,33.284 48.471,15.863c17.392,-28.754 -55.813,-22.546 -54.621,-57.763c1.317,-38.862 123.979,-20.716 109.558,-76.708c-31.2,-121.171 -105.616,-56.879 -95.329,-187.142c5.546,7.792 10.575,10.855 15.609,9.546c-2.625,-5.687 -0.875,-10.496 5.25,-14.433c4.375,4.596 7.87,11.812 10.5,21.654c3.933,-3.5 8.75,-7.871 14.437,-13.125c3.058,1.304 6.121,3.479 9.183,11.813c6.13,-3.721 11.375,-10.938 15.75,-21.655c5.25,3.28 7.875,7.438 7.875,12.471c1.53,-3.721 3.063,-7.437 4.596,-11.158c0.088,11.9 9.5,9.8 17.063,10.504c0.221,-4.162 0.437,-8.317 0.658,-12.471c6.338,-2.187 12.679,-3.504 19.025,-3.937c-1.971,3.721 -3.937,7.437 -5.908,11.158c3.279,-0.442 6.566,-0.875 9.846,-1.312l-0,8.529c4.029,-2.642 8.058,-5.292 12.091,-7.934c-25.087,48.825 -41.266,31.842 -13.746,120.563c23.692,76.375 -38.279,142.45 -48.529,154.142c-23.221,26.479 66.759,30.329 49.367,59.075c-5.6,9.25 -14.821,10.437 -25.017,7.783c6.175,9.317 9.725,19.512 10.367,30.575l0.05,2.854l-105.121,-14.671l-26.612,11.704Zm121.325,-30.47l-73.134,-13.421l73.134,13.421Zm-77.775,422.483l108.112,-34.033l-108.112,34.033Z" style="fill:#fff;"/></g><g opacity="0"><path d="M560.525,703.546c-5.475,33.562 -43.787,32.591 -27.021,56.796c27.329,1.304 57.375,-29.467 71.738,1.466c14.371,30.942 -127.055,120.73 -127,155.25c-6.284,6.925 -10.742,8.334 -13.35,4.242c-1.609,9.075 -5.742,11.817 -11.025,11.713c-2.292,6.891 -5.042,12.875 -11.017,12.404c-0.921,-3.45 -0.921,-6.892 0,-10.334c-4.371,5.975 -8.508,11.929 -11.025,17.913c-5.967,2.979 -10.104,-0.463 -12.396,-10.333c-2.758,11.362 -5.508,16.412 -8.266,18.595c-3.038,-3.596 -4.601,-9.17 -13.517,-4.933c2.571,-31.883 105.629,-128.221 87.058,-162.133c-18.571,-33.913 -53.596,30.312 -80.696,-2.15c-26.204,-31.388 5.509,-55.355 14.517,-87.192l31.9,10.212l110.071,-12.8l0.029,1.284Zm-136.712,-311.534l0.075,-5.137c1.474,-25.542 -9.067,-22.883 -13.271,-29.263c-5.829,-8.858 -12.925,-18.712 -4.446,-30.216c8.729,-11.842 18.454,-10.363 32.829,-1.309c18.475,11.634 37.933,33.284 48.471,15.863c17.392,-28.754 -55.813,-22.546 -54.621,-57.763c1.317,-38.862 123.979,-20.716 109.558,-76.708c-31.2,-121.171 -105.616,-56.879 -95.329,-187.142c5.546,7.792 10.575,10.855 15.609,9.546c-2.625,-5.687 -0.875,-10.496 5.25,-14.433c4.375,4.596 7.87,11.812 10.5,21.654c3.933,-3.5 8.75,-7.871 14.437,-13.125c3.058,1.304 6.121,3.479 9.183,11.813c6.13,-3.721 11.375,-10.938 15.75,-21.655c5.25,3.28 7.875,7.438 7.875,12.471c1.53,-3.721 3.063,-7.437 4.596,-11.158c0.088,11.9 9.5,9.8 17.063,10.504c0.221,-4.162 0.437,-8.317 0.658,-12.471c6.338,-2.187 12.679,-3.504 19.025,-3.937c-1.971,3.721 -3.937,7.437 -5.908,11.158c3.279,-0.442 6.566,-0.875 9.846,-1.312l-0,8.529c4.029,-2.642 8.058,-5.292 12.091,-7.934c-25.087,48.825 -41.266,31.842 -13.746,120.563c23.692,76.375 -38.279,142.45 -48.529,154.142c-23.221,26.479 66.759,30.329 49.367,59.075c-5.6,9.25 -14.821,10.437 -25.017,7.783c6.175,9.317 9.725,19.512 10.367,30.575l0.05,2.854l-105.121,-14.671l-26.612,11.704Zm121.325,-30.47l-73.134,-13.421l73.134,13.421Zm-77.775,422.483l108.112,-34.033l-108.112,34.033Z" style="fill:none;fill-rule:nonzero;stroke:#fff;stroke-width:2.92px;stroke-miterlimit:10;"/></g></g><path d="M481.179,349.804c4.888,-1.312 8.954,-9.337 12.158,-23.983c12.934,21.991 21.996,20.7 27.171,-3.884c1.725,20.951 4.975,33.242 12.184,37.317c7.837,-1.175 14.608,-10.525 22.746,-27.612c-1.759,14.816 -2.117,24.783 -1.425,31.137c-2.825,0.013 -5.805,-0.437 -8.88,-1.237c6.175,9.316 9.725,19.512 10.367,30.575l5.021,311.429c-2.483,15.2 -11.696,23.316 -19.475,29.9c-14.288,-5.454 -22.05,-0.358 -19.575,21.271c-22.642,-26.521 -33.642,-24.584 -32.996,5.816c-9.4,-23.787 -18.408,-27.466 -33.954,5.817c-6.2,-22.267 -16.275,-19.962 -30.229,6.933c1.312,-21.287 -1.542,-38.55 -15.271,-46.27c4.267,-8.067 8.304,-16.446 10.354,-25.488l4.508,-314.654c1.475,-25.542 -9.066,-22.883 -13.27,-29.263c-5.83,-8.858 -12.926,-18.712 -4.446,-30.216c0.762,-1.034 1.529,-1.959 2.308,-2.792c9.729,21.471 14.929,25.454 19.729,-4.112c2.025,0.754 4.15,1.758 6.396,2.991c5.421,21.292 12.583,26.104 21.358,14.7c16.038,9.938 16.038,9.938 20.005,10.671c1.837,1.079 3.57,1.396 5.216,0.954Z" style="fill:#fff;fill-rule:nonzero;stroke:#fff;stroke-width:2.38px;"/><path d="M481.179,349.804c4.888,-1.312 8.954,-9.337 12.158,-23.983c12.934,21.991 21.996,20.7 27.171,-3.884c1.725,20.951 4.975,33.242 12.184,37.317c7.837,-1.175 14.608,-10.525 22.746,-27.612c-1.759,14.816 -2.117,24.783 -1.425,31.137c-2.825,0.013 -5.805,-0.437 -8.88,-1.237c6.175,9.316 9.725,19.512 10.367,30.575l5.021,311.429c-2.483,15.2 -11.696,23.316 -19.475,29.9c-14.288,-5.454 -22.05,-0.358 -19.575,21.271c-22.642,-26.521 -33.642,-24.584 -32.996,5.816c-9.4,-23.787 -18.408,-27.466 -33.954,5.817c-6.2,-22.267 -16.275,-19.962 -30.229,6.933c1.312,-21.287 -1.542,-38.55 -15.271,-46.27c4.267,-8.067 8.304,-16.446 10.354,-25.488l4.508,-314.654c1.475,-25.542 -9.066,-22.883 -13.27,-29.263c-5.83,-8.858 -12.926,-18.712 -4.446,-30.216c0.762,-1.034 1.529,-1.959 2.308,-2.792c9.729,21.471 14.929,25.454 19.729,-4.112c2.025,0.754 4.15,1.758 6.396,2.991c5.421,21.292 12.583,26.104 21.358,14.7c16.038,9.938 16.038,9.938 20.005,10.671c1.837,1.079 3.57,1.396 5.216,0.954Z" style="fill:#fff;stroke:#fff;stroke-opacity:0;stroke-width:2.71px;stroke-miterlimit:10;"/><path d="M450.433,380.3l129.671,18.096l0,301.579l-129.671,15.079l0,-334.754Z" style="fill:#fff;fill-rule:nonzero;stroke:#fff;stroke-width:6px;"/><path d="M450.433,380.3l129.671,18.096l0,301.579l-129.671,15.079l0,-334.754Z" style="fill:#fff;stroke:#fff;stroke-opacity:0;stroke-width:6.46px;stroke-miterlimit:10;"/><path d="M514.933,451.738l109.996,-22.921c-15.787,28.741 -28.571,69.733 -28.571,118.104c0,48.633 13.088,89.362 29.046,117.971l-116.779,-25.017c-15.896,-3.408 -39.704,-44.621 -39.704,-92.954c-0,-48.333 23.292,-90.446 46.012,-95.183Z" style="fill:#fff;fill-rule:nonzero;stroke:#fff;stroke-width:6px;"/><path d="M514.933,451.738l109.996,-22.921c-15.787,28.741 -28.571,69.733 -28.571,118.104c0,48.633 13.088,89.362 29.046,117.971l-116.779,-25.017c-15.896,-3.408 -39.704,-44.621 -39.704,-92.954c-0,-48.333 23.292,-90.446 46.012,-95.183Z" style="fill:#fff;stroke:#fff;stroke-opacity:0;stroke-width:6.46px;stroke-miterlimit:10;"/><path d="M450.433,380.3l-37.7,16.588l0,306.099l37.7,12.067l0,-334.754Z" style="fill:#fff;fill-rule:nonzero;stroke:#fff;stroke-width:6px;"/><path d="M450.433,380.3l-37.7,16.588l0,306.099l37.7,12.067l0,-334.754Z" style="fill:#fff;stroke:#fff;stroke-opacity:0;stroke-width:6.46px;stroke-miterlimit:10;"/><path d="M128.413,440.629l-72.746,-5.254l3.104,-9.046l47.204,4.892c4.942,0.491 9.817,1.117 14.612,1.887c-6.55,-4.154 -10.308,-6.566 -11.295,-7.241l-40.65,-28.192l3.662,-10.642l37.038,2.071c9.179,0.475 17.65,1.463 25.383,2.942c-3.925,-2.3 -8.375,-5.075 -13.367,-8.309l-39.237,-25.22l3.05,-8.863l60.371,41.242l-2.921,8.487l-55.625,-3.429c-4.663,-0.279 -7.5,-0.479 -8.554,-0.608c2.825,1.758 5.204,3.3 7.158,4.662l45.921,31.621l-3.109,9Z" style="fill:#fff;"/><path d="M151.088,374.875l-47.53,-58.696l5.038,-8.716l75.475,10.262l-5.317,9.208l-22.591,-3.562l-14.742,25.529l14.612,17.387l-4.945,8.588Zm-14.905,-32.1l11.955,-20.704l-20.588,-3.383c-6.254,-1.017 -11.312,-2.021 -15.154,-2.988c3.467,3.037 6.717,6.387 9.754,10.033l14.033,17.042Z" style="fill:#fff;"/><path d="M187.258,311.579l-54.804,-44.379l19.667,-24.283c3.958,-4.892 7.454,-8.209 10.508,-9.95c3.038,-1.742 6.421,-2.363 10.146,-1.871c3.725,0.492 7.092,1.971 10.112,4.4c3.876,3.15 6.142,7.075 6.767,11.737c0.621,4.679 -0.821,9.95 -4.35,15.796c2.463,-1.183 4.567,-1.904 6.271,-2.166c3.646,-0.542 7.7,-0.592 12.15,-0.117l22.642,2.546l-7.388,9.112l-17.275,-1.971c-5.008,-0.558 -8.933,-0.837 -11.787,-0.887c-2.859,-0.05 -5.075,0.196 -6.65,0.725c-1.575,0.508 -2.954,1.216 -4.138,2.117c-0.837,0.691 -2.021,1.954 -3.529,3.825l-6.812,8.408l24.35,19.717l-5.88,7.241Zm-24.741,-32.029l12.625,-15.6c2.675,-3.312 4.433,-6.171 5.271,-8.6c0.82,-2.429 0.87,-4.729 0.15,-6.929c-0.721,-2.184 -1.955,-4.004 -3.73,-5.434c-2.596,-2.104 -5.479,-2.891 -8.683,-2.366c-3.188,0.542 -6.438,2.841 -9.721,6.896l-14.037,17.337l18.125,14.696Z" style="fill:#fff;"/><path d="M240.175,248.388l-60.371,-40.93l7.225,-6.27l38.417,27.845c4.037,2.888 7.946,5.88 11.708,8.934c-3.579,-6.863 -5.633,-10.838 -6.158,-11.917l-21.096,-44.725l8.488,-7.387l31.029,20.308c7.716,5.008 14.546,10.079 20.504,15.237c-2.25,-3.958 -4.713,-8.587 -7.404,-13.887l-21.375,-41.438l7.075,-6.158l31.654,65.888l-6.779,5.908l-46.446,-30.8c-3.892,-2.563 -6.254,-4.154 -7.092,-4.779c1.558,2.925 2.842,5.454 3.859,7.587l23.954,50.354l-7.192,6.23Z" style="fill:#fff;"/><path d="M304.238,197.492l-37.355,-59.796l7.917,-4.942l37.35,59.779l-7.912,4.959Z" style="fill:#fff;"/><path d="M359.254,138.288l9.392,-2.134c1.725,7.717 1.25,14.513 -1.446,20.408c-2.708,5.896 -7.321,10.505 -13.875,13.838c-6.767,3.45 -12.971,4.875 -18.617,4.271c-5.645,-0.592 -10.904,-2.942 -15.779,-7.042c-4.875,-4.087 -8.85,-9.146 -11.9,-15.137c-3.333,-6.534 -4.991,-12.888 -4.975,-19.025c0.017,-6.142 1.692,-11.659 5.025,-16.534c3.317,-4.875 7.75,-8.716 13.3,-11.541c6.271,-3.204 12.379,-4.3 18.288,-3.284c5.908,1.017 11.183,3.992 15.829,8.934l-7.208,6.108c-3.776,-3.842 -7.584,-6.092 -11.413,-6.767c-3.842,-0.675 -7.846,0.067 -12.05,2.2c-4.825,2.463 -8.275,5.684 -10.342,9.638c-2.05,3.975 -2.758,8.241 -2.083,12.808c0.671,4.567 2.067,8.917 4.183,13.054c2.709,5.35 5.863,9.621 9.459,12.805c3.579,3.187 7.521,4.941 11.804,5.237c4.3,0.296 8.354,-0.542 12.183,-2.479c4.646,-2.379 7.913,-5.729 9.767,-10.067c1.854,-4.325 2.017,-9.429 0.458,-15.291Z" style="fill:#fff;"/><path d="M390.104,153.192l-18.241,-68.084l9.016,-2.412l9.046,33.771l24.758,-42.834l12.213,-3.283l-21.163,35.25l40.667,32.504l-11.887,3.204l-33.475,-27.975l-8.242,13.855l6.321,23.591l-9.013,2.413Z" style="fill:#fff;"/><path d="M639.096,118.629l8.579,2.134c-0.758,3.479 -0.775,6.533 -0.083,9.162c0.7,2.625 2.346,5.137 4.925,7.483c2.579,2.367 5.762,4.205 9.554,5.517c3.371,1.15 6.504,1.675 9.425,1.563c2.921,-0.113 5.321,-0.821 7.179,-2.134c1.854,-1.312 3.133,-2.987 3.842,-5.058c0.725,-2.083 0.75,-4.121 0.083,-6.109c-0.675,-1.97 -2.237,-3.974 -4.646,-5.991c-1.562,-1.313 -5.141,-3.759 -10.758,-7.338c-5.608,-3.579 -9.425,-6.454 -11.442,-8.604c-2.612,-2.758 -4.262,-5.646 -4.971,-8.654c-0.708,-3.008 -0.545,-6.042 0.505,-9.096c1.17,-3.366 3.208,-6.187 6.129,-8.454c2.921,-2.267 6.471,-3.529 10.654,-3.779c4.192,-0.263 8.537,0.396 13.021,1.937c4.941,1.692 9.033,3.988 12.246,6.88c3.237,2.887 5.32,6.237 6.291,10.033c0.967,3.791 0.854,7.667 -0.341,11.625l-8.675,-2.263c0.983,-4.366 0.545,-8.095 -1.325,-11.15c-1.888,-3.054 -5.388,-5.466 -10.505,-7.225c-5.337,-1.837 -9.554,-2.2 -12.679,-1.083c-3.116,1.117 -5.133,3.05 -6.087,5.813c-0.821,2.399 -0.642,4.662 0.554,6.795c1.171,2.134 5.046,5.255 11.662,9.342c6.617,4.087 11.042,7.192 13.296,9.325c3.246,3.121 5.338,6.387 6.259,9.75c0.895,3.383 0.733,6.863 -0.496,10.442c-1.229,3.546 -3.4,6.533 -6.504,8.979c-3.117,2.429 -6.875,3.875 -11.28,4.3c-4.404,0.442 -8.975,-0.167 -13.737,-1.809c-6.046,-2.083 -10.792,-4.695 -14.259,-7.862c-3.474,-3.15 -5.762,-6.896 -6.858,-11.229c-1.129,-4.329 -0.962,-8.746 0.442,-13.242Z" style="fill:#fff;"/><path d="M713.046,170.888l28.225,-55.396l-20.704,-10.542l3.775,-7.421l49.783,25.363l-3.779,7.425l-20.767,-10.592l-28.221,55.396l-8.312,-4.233Z" style="fill:#fff;"/><path d="M828.113,160.017l7.65,5.35l-23.363,33.362c-4.079,5.813 -7.95,9.95 -11.663,12.446c-3.695,2.496 -8.008,3.613 -12.933,3.35c-4.933,-0.246 -10.162,-2.333 -15.729,-6.225c-5.421,-3.792 -9.196,-7.812 -11.329,-12.1c-2.134,-4.267 -2.692,-8.683 -1.692,-13.25c1,-4.567 3.646,-9.9 7.925,-16.008l23.363,-33.359l7.633,5.334l-23.325,33.329c-3.517,5.008 -5.633,9.029 -6.371,12.067c-0.725,3.02 -0.417,5.979 0.967,8.849c1.358,2.888 3.696,5.467 6.975,7.767c5.617,3.942 10.512,5.467 14.679,4.6c4.183,-0.871 8.796,-4.941 13.875,-12.183l23.337,-33.329Z" style="fill:#fff;"/><path d="M808.158,232.733l50.717,-48.975l16.879,17.467c3.809,3.942 6.471,7.192 8,9.738c2.133,3.545 3.313,7.191 3.55,10.933c0.309,4.862 -0.641,9.654 -2.879,14.383c-2.229,4.713 -5.608,9.263 -10.125,13.629c-3.858,3.709 -7.7,6.567 -11.546,8.538c-3.841,1.971 -7.412,3.2 -10.733,3.675c-3.296,0.475 -6.325,0.412 -9.05,-0.179c-2.733,-0.592 -5.525,-1.788 -8.392,-3.596c-2.871,-1.808 -5.779,-4.254 -8.733,-7.321l-17.688,-18.292Zm12.484,0.934l10.458,10.821c3.213,3.35 6.054,5.662 8.521,6.962c2.458,1.313 4.808,1.987 7.025,2.017c3.142,0.05 6.471,-0.771 10.017,-2.479c3.533,-1.709 7.225,-4.417 11.05,-8.113c5.295,-5.121 8.537,-9.917 9.7,-14.412c1.162,-4.496 1.033,-8.455 -0.392,-11.871c-1.05,-2.48 -3.5,-5.7 -7.358,-9.688l-10.296,-10.654l-38.725,37.417Z" style="fill:#fff;"/><path d="M855.95,284.796l57.042,-41.438l29.962,41.242l-6.729,4.892l-24.479,-33.709l-17.471,12.709l22.917,31.537l-6.684,4.863l-22.933,-31.542l-19.408,14.104l25.433,35.004l-6.733,4.892l-30.917,-42.554Z" style="fill:#fff;"/><path d="M893.029,339.288l62.238,-33.101l4.5,8.455l-31.492,58.696l48.875,-25.988l4.208,7.896l-62.262,33.096l-4.492,-8.45l31.534,-58.713l-48.925,26.021l-4.184,-7.912Z" style="fill:#fff;"/><path d="M929.258,420.263l59.767,-17.142l-6.404,-22.329l7.991,-2.279l15.405,53.7l-8,2.3l-6.421,-22.425l-59.775,17.137l-2.563,-8.962Z" style="fill:#fff;"/><path d="M260.004,1036.57l9.342,2.366c-1.954,7.65 -5.483,13.492 -10.558,17.538c-5.092,4.021 -11.296,6.021 -18.65,6.021c-7.605,-0 -13.775,-1.546 -18.538,-4.629c-4.762,-3.1 -8.392,-7.584 -10.871,-13.446c-2.479,-5.883 -3.725,-12.184 -3.725,-18.913c0,-7.341 1.396,-13.745 4.204,-19.212c2.809,-5.467 6.796,-9.621 11.984,-12.458c5.171,-2.842 10.866,-4.255 17.091,-4.255c7.059,0 12.988,1.792 17.796,5.388c4.809,3.596 8.159,8.633 10.046,15.154l-9.179,2.171c-1.642,-5.142 -4.004,-8.871 -7.125,-11.213c-3.104,-2.35 -7.008,-3.516 -11.738,-3.516c-5.416,-0 -9.933,1.296 -13.575,3.891c-3.645,2.613 -6.208,6.096 -7.666,10.475c-1.475,4.371 -2.217,8.888 -2.217,13.534c-0,6.004 0.867,11.229 2.608,15.708c1.754,4.467 4.463,7.821 8.159,10.033c3.695,2.213 7.683,3.313 11.983,3.313c5.221,-0 9.638,-1.504 13.267,-4.509c3.633,-3.033 6.083,-7.508 7.362,-13.441Z" style="fill:#fff;"/><rect x="337.171" y="990.788" width="9.325" height="70.517" style="fill:#fff;"/><path d="M417.583,1061.3l0,-70.516l9.575,-0l37.038,55.362l-0,-55.362l8.946,-0l-0,70.516l-9.571,0l-37.038,-55.412l0,55.412l-8.95,0Z" style="fill:#fff;"/><path d="M543.762,1061.3l0,-70.516l50.976,-0l-0,8.324l-41.659,0l0,21.592l39.013,0l-0,8.267l-39.013,-0l0,24.008l43.296,0l-0,8.325l-52.613,0Z" style="fill:#fff;"/><path d="M663.708,1061.3l0,-70.516l14.055,-0l16.683,49.925c1.537,4.645 2.679,8.12 3.362,10.441c0.805,-2.562 2.059,-6.337 3.759,-11.312l16.879,-49.055l12.567,0l-0,70.517l-9,0l-0,-59.025l-20.492,59.025l-8.421,0l-20.387,-60.025l-0,60.025l-9.005,0Z" style="fill:#fff;"/><path d="M793.054,1061.3l27.084,-70.516l10.05,-0l28.866,70.516l-10.646,0l-8.22,-21.362l-29.492,-0l-7.729,21.362l-9.913,0Zm20.338,-28.962l23.925,-0l-7.375,-19.525c-2.238,-5.925 -3.909,-10.8 -4.996,-14.625c-0.896,4.525 -2.167,9.008 -3.808,13.475l-7.746,20.675Z" style="fill:#fff;"/><path d="M260.004,1036.57l9.342,2.366c-1.954,7.65 -5.483,13.492 -10.558,17.538c-5.092,4.021 -11.296,6.021 -18.65,6.021c-7.605,-0 -13.775,-1.546 -18.538,-4.629c-4.762,-3.1 -8.392,-7.584 -10.871,-13.446c-2.479,-5.883 -3.725,-12.184 -3.725,-18.913c0,-7.341 1.396,-13.745 4.204,-19.212c2.809,-5.467 6.796,-9.621 11.984,-12.458c5.171,-2.842 10.866,-4.255 17.091,-4.255c7.059,0 12.988,1.792 17.796,5.388c4.809,3.596 8.159,8.633 10.046,15.154l-9.179,2.171c-1.642,-5.142 -4.004,-8.871 -7.125,-11.213c-3.104,-2.35 -7.008,-3.516 -11.738,-3.516c-5.416,-0 -9.933,1.296 -13.575,3.891c-3.645,2.613 -6.208,6.096 -7.666,10.475c-1.475,4.371 -2.217,8.888 -2.217,13.534c-0,6.004 0.867,11.229 2.608,15.708c1.754,4.467 4.463,7.821 8.159,10.033c3.695,2.213 7.683,3.313 11.983,3.313c5.221,-0 9.638,-1.504 13.267,-4.509c3.633,-3.033 6.083,-7.508 7.362,-13.441Zm77.167,24.733l-0,-70.517l9.325,0l-0,70.517l-9.325,0Zm80.412,0l0,-70.517l9.571,0l37.038,55.363l-0,-55.363l8.945,0l0,70.517l-9.57,0l-37.042,-55.412l-0,55.412l-8.942,0Zm126.179,0l0,-70.517l50.976,0l-0,8.325l-41.659,0l0,21.592l39.013,0l-0,8.267l-39.013,-0l0,24.008l43.296,0l-0,8.325l-52.613,0Zm119.946,0l0,-70.517l14.054,0l16.684,49.926c1.537,4.645 2.679,8.12 3.362,10.441c0.804,-2.562 2.059,-6.337 3.759,-11.312l16.879,-49.055l12.567,0l-0,70.517l-9,0l-0,-59.025l-20.492,59.025l-8.421,0l-20.387,-60.025l-0,60.025l-9.005,0Zm129.346,0l27.083,-70.517l10.05,0l28.867,70.517l-10.646,0l-8.221,-21.362l-29.491,-0l-7.729,21.362l-9.913,0Zm20.338,-28.962l23.925,-0l-7.375,-19.525c-2.238,-5.925 -3.909,-10.8 -4.996,-14.625c-0.896,4.525 -2.167,9.008 -3.808,13.475l-7.746,20.675Z" style="fill:#fff;fill-rule:nonzero;"/><path d="M665.304,708.642c-25.041,-10.059 -68.946,-72.65 -68.946,-161.721c0,-89.071 43.35,-153.142 68.946,-161.721l64.121,-21.487c-30.737,0.725 -75.488,84.037 -75.488,185.47c0,102.159 45.184,185.467 76.146,185.467l-64.779,-26.008Z" style="fill:#fff;fill-rule:nonzero;stroke:#fff;stroke-width:6px;"/><path d="M665.304,708.642c-25.041,-10.059 -68.946,-72.65 -68.946,-161.721c0,-89.071 43.35,-153.142 68.946,-161.721l64.121,-21.487c-30.737,0.725 -75.488,84.037 -75.488,185.47c0,102.159 45.184,185.467 76.146,185.467l-64.779,-26.008Z" style="fill:#fff;stroke:#fff;stroke-opacity:0;stroke-width:6.46px;stroke-miterlimit:10;"/><path d="M798.463,546.925c-0,102.158 -37.434,187.738 -68.392,187.738c-30.958,-0 -76.138,-83.317 -76.138,-185.476c0,-102.154 45.184,-185.47 76.138,-185.47c30.954,-0 68.392,81.05 68.392,183.208Zm-3.425,0c-0,95.929 -35.896,176.425 -64.967,176.425c-29.071,0 -72.713,-78.229 -72.713,-174.162c0,-95.925 43.646,-174.163 72.713,-174.163c29.067,0 64.966,75.975 64.966,171.9Z" style="fill:#fff;fill-opacity:0;fill-rule:nonzero;stroke:#fff;stroke-width:6px;"/><path d="M798.463,546.925c-0,102.158 -37.434,187.738 -68.392,187.738c-30.958,-0 -76.138,-83.317 -76.138,-185.476c0,-102.154 45.184,-185.47 76.138,-185.47c30.954,-0 68.392,81.05 68.392,183.208Zm-3.425,0c-0,95.929 -35.896,176.425 -64.967,176.425c-29.071,0 -72.713,-78.229 -72.713,-174.162c0,-95.925 43.646,-174.163 72.713,-174.163c29.067,0 64.966,75.975 64.966,171.9Z" style="fill:#fff;stroke:#fff;stroke-opacity:0;stroke-width:6.46px;stroke-miterlimit:10;"/><path d="M567.742,135.429l-11.354,0l-0,103.254c0.945,0.08 1.879,0.179 2.816,0.267m-88.529,605.721c11.333,2.271 22.888,3.912 34.629,4.9l0,27.646" style="fill:#fff;fill-rule:nonzero;stroke:#fff;stroke-opacity:0;stroke-width:2.58px;"/><path d="M454.212,933.008l0,-39.583c-5.137,-1.129 -10.233,-2.383 -15.287,-3.733" style="fill:#fff;fill-rule:nonzero;stroke:#fff;stroke-opacity:0;stroke-width:2.38px;"/></g></g></svg>