<?xml version="1.0" encoding="UTF-8" standalone="no"?><!DOCTYPE svg PUBLIC "-//W3C//DTD SVG 1.1//EN" "http://www.w3.org/Graphics/SVG/1.1/DTD/svg11.dtd"><svg width="100%" height="100%" viewBox="0 0 35721 9030" version="1.1" xmlns="http://www.w3.org/2000/svg" xmlns:xlink="http://www.w3.org/1999/xlink" xml:space="preserve" xmlns:serif="http://www.serif.com/" style="fill-rule:evenodd;clip-rule:evenodd;stroke-linejoin:round;stroke-miterlimit:2;"><g id="Ebene-1" serif:id="Ebene 1"><path id="path2016" d="M15435.3,8752.42l-1523.12,-0l-0,-2722.9l1549.56,-0c559.221,-0 762.575,244.025 762.575,689.366l-0,1277.06c-0,595.825 -250.125,756.475 -789.013,756.475m168.784,-2025.4l-241.992,-248.092l-827.65,0l0,1828.15l823.583,-0c164.717,-0 246.059,-50.754 246.059,-241.988l-0,-1338.07Zm1266.89,2025.4l620.084,-0l-0,-2724.53l-620.084,0l0,2724.53Zm3160.12,-0l-65.071,-185.05c-91.429,117.941 -268.429,231.821 -697.504,231.821l-307.067,-0c-530.75,-0 -821.546,-160.567 -821.546,-742.242l0,-1364.5c0,-711.738 544.988,-719.871 923.225,-719.871l730.042,0c276.558,0 518.55,52.871 638.529,117.942l0,349.771l-1405.17,-0c-164.716,-0 -266.391,40.67 -266.391,262.325l-0,1419.41l262.325,221.654l433.141,0l437.213,-97.608l-0,-634.463l-583.625,0l-0,-400.608l1187.58,-0l0,1541.42l-465.679,-0Zm1132.68,-0l620.213,-0l-0,-2724.53l-620.213,0l0,2724.53Zm2428.04,-2279.6l-0,2279.6l-620.225,-0l-0,-2279.6l-839.854,-0l-0,-445.342l2287.73,0l-0,445.342" style="fill:#fff;fill-rule:nonzero;"/><g id="g2018"><path id="path2020" d="M26467.3,8752.5l-235.892,-699.538l-1085.91,0.001l-231.821,699.537l-553.121,0l994.396,-2749.34l738.175,0l1006.6,2749.34l-632.429,0Zm-740.209,-2218.59l-36.604,-162.679l-14.233,0l-38.638,162.679l-345.7,1063.54l791.046,0l-355.871,-1063.54Zm1907.46,2218.59l-0,-2722.91l618.196,-0l-0,2259.26l1283.16,0l-0,463.65" style="fill:#fff;fill-rule:nonzero;"/></g><g id="g2022"><path id="path2024" d="M34540.4,366.188l-1159.11,2049.8l-1120.48,-2049.8l-1049.3,0c195.217,347.734 1569.89,2869.32 1569.89,2869.32l0,1665.46l1126.58,-0c2.033,-225.721 -0,-1657.33 -0,-1657.33c-0,-0 1427.54,-2527.69 1628.86,-2877.45l-996.433,0Zm-34366.8,8488l12636.2,-0.001l0,-8680.54l-12636.2,-0l-0,8680.54Zm2930.33,-1126.58l-1437.71,0l0,-6430.04l1437.71,-0c1496.68,-0 2747.31,1470.25 2747.31,3202.82c-0,1785.44 -1250.62,3227.22 -2747.31,3227.22m8215.5,0l-1441.78,0c-1498.72,0 -2745.28,-1441.78 -2745.28,-3227.22c0,-1732.58 1246.56,-3202.82 2745.28,-3202.82l1441.78,-0" style="fill:#fff;fill-rule:nonzero;"/></g><g id="g2026"><path id="path2028" d="M21934.5,3312.78c0,803.25 -286.729,988.3 -1096.08,988.3c-807.313,0 -1096.08,-185.05 -1096.08,-988.3l-0,-1358.4c-0,-784.946 288.762,-953.729 1096.08,-953.729c809.35,0 1096.08,168.783 1096.08,953.729l0,1358.4Zm461.613,-2696.47c-317.234,-217.588 -856.121,-329.434 -1557.69,-329.434c-685.3,0 -1179.45,91.509 -1561.75,331.467c-398.575,250.125 -585.659,671.067 -585.659,1329.93l0,1427.54c0,658.867 195.221,1104.21 581.592,1325.87c313.162,211.487 823.583,313.162 1565.82,313.162c734.108,0 1258.76,-103.708 1557.69,-307.062c388.405,-237.925 589.725,-693.438 589.725,-1331.97l0,-1427.54c0,-626.329 -197.254,-1073.71 -589.725,-1331.97m-5413.29,2588.69c-0,795.113 -435.175,994.4 -799.179,994.4l-1285.2,0l-0,-3170.28l1285.2,-0c364.004,-0 799.179,201.321 799.179,941.525l-0,1234.36Zm-807.313,-2840.85l-2324.33,0l-0,4536.83l2487.02,-0c1228.25,-0 1683.77,-488.046 1683.77,-1803.75l0,-998.467c0,-1248.59 -518.554,-1734.6 -1846.45,-1734.6m8628.29,-0l-1047.27,-0l0,4536.83l2983.2,0l0,-756.475l-1935.93,0l0,-3780.36Z" style="fill:#fff;fill-rule:nonzero;"/></g><g id="g2030"><path id="path2032" d="M29865.3,2499.37c823.579,-73.209 1000.5,-467.713 1000.5,-1033.04c0,-500.25 -213.521,-754.442 -451.442,-896.787c-199.287,-122.013 -435.179,-205.388 -925.258,-205.388l-2175.89,0l-0,4536.83l2202.32,-0.001c677.167,0.001 957.796,-132.179 1085.91,-219.62c225.725,-144.38 516.521,-467.713 516.521,-986.263c-0,-608.029 -217.592,-1218.09 -1252.66,-1195.72m-557.191,1740.71l-943.559,-0l0,-3225.19l1028.97,-0c349.771,-0 567.358,270.462 567.358,640.567c0,569.387 -280.629,581.591 -1085.91,612.091l0,524.654c717.838,0 1293.33,-44.737 1293.33,681.234c0,366.037 -235.891,766.646 -860.187,766.646" style="fill:#fff;fill-rule:nonzero;"/></g></g></svg>