<?xml version="1.0" encoding="UTF-8" standalone="no"?><!DOCTYPE svg PUBLIC "-//W3C//DTD SVG 1.1//EN" "http://www.w3.org/Graphics/SVG/1.1/DTD/svg11.dtd"><svg width="100%" height="100%" viewBox="0 0 6025 1146" version="1.1" xmlns="http://www.w3.org/2000/svg" xmlns:xlink="http://www.w3.org/1999/xlink" xml:space="preserve" xmlns:serif="http://www.serif.com/" style="fill-rule:evenodd;clip-rule:evenodd;stroke-linejoin:round;stroke-miterlimit:2;"><g><path d="M651.096,248.054c-73.65,0.521 -156.7,-3.45 -192.833,68.625l-13.4,46.729c-22.767,219.571 71.975,494.746 -145.301,626.638c-86.245,48.437 -191.487,50.146 -299.562,46.725l0,-239.6c71.942,0.325 150.746,9.062 188.296,-64.946l13.333,-50.983l3.704,-394.521c8.563,-87.488 58.03,-160.983 128.588,-218.804c89.912,-58.075 200.275,-66.075 317.175,-60.429l-0,240.566Zm761.237,-21.7c42.667,93.454 31.267,209.092 30.4,317.638c-0.8,178.621 -23.316,360.696 -188.266,453.791c-151.325,66.4 -342.55,35.346 -517.738,43.83l0,-708.134l243.813,0l-2.284,455.825c61.121,3.384 136.542,21.604 182.338,-27.412c24.987,-21.35 31.817,-49.821 33.554,-80.588l0,-334.408c-7.375,-36.442 -33.296,-68.688 -67.983,-85.717c-124.304,-15.962 -260.013,-5.708 -389.438,-8.062l0,-245.534c249.159,15.125 568.075,-66.304 675.604,218.771Zm505.463,-214.775c125.467,7.163 244.408,109.421 291.612,223.9c45.209,145.275 19.621,325.317 21.355,483.425c-11.405,118.834 -90.505,228.154 -197.446,288.009c-142.242,52.141 -394.529,26.183 -504.6,34.7l3.666,-708.1l239.525,-0l0,459.208l9.117,7.933c71.979,0 153.871,10.838 192.846,-60.079c29.304,-123.637 24.496,-271.721 12.275,-401.904c-8.838,-31.892 -35.296,-67.846 -68.35,-77.458c-123.179,-15.963 -256.883,-5.709 -385.442,-8.063l0,-241.538l385.442,-0.033Zm1002.15,241.538c-72.221,-1.354 -151.613,-10.254 -189.163,63.591l-12.483,38.509c-32.762,240.662 82.725,587.004 -222.467,668.204c-71.979,19.092 -151.65,19.092 -231.008,18.192l3.717,-240.992c76.545,5.679 156.996,1.454 192.604,-72.363c34.117,-170.883 -15.679,-376.558 42.933,-536.379c49.534,-111.641 164.654,-170.333 277.621,-180.3l138.246,0l-0,241.538Zm177.554,397.425l32.396,-0c47.55,-0 67.742,4.225 85.329,17.637c28.179,22.542 41.579,67.434 41.579,144.667c0,77.233 -10.817,127.15 -33.004,155.079c-14.529,18.446 -39.008,25.896 -80.763,25.313l-45.537,-0l-0,-342.696Zm-52.346,-43.05l0,429.312l109.758,0c54.655,0 83.959,-10.254 109.809,-41.308c12.829,-14.288 22.45,-32.442 28.996,-51.275c10.554,-36.538 16.541,-83.459 16.541,-133.892c0,-92.037 -19.371,-147.246 -61.437,-179.717c-24.792,-16.254 -54.584,-23.12 -122.275,-23.12l-81.392,-0Zm311.738,-0l-0,59.883l49.566,-0l0,-59.883l-49.566,-0Zm-0,106.287l-0,323.058l49.566,0l0,-323.058l-49.566,0Zm138.004,157.754c-0,-88.55 17.987,-122.991 61.7,-122.991c42.691,-0 61.112,36.15 61.112,119.608c0,87.487 -19.062,125.637 -63.662,125.637c-41.546,0 -59.15,-35.02 -59.15,-122.254Zm-42.396,195.459c4.029,52.466 37.237,78.841 98.75,78.841c29.237,0 54.896,-7.058 73.904,-20.475c30.696,-22.733 39.254,-50.95 39.863,-123.058l-0.659,-12.221l0,-276.3l-45.783,0l-0,9.708c-0,13.351 -0,18.767 1.112,28.796c-15.575,-30.25 -39.254,-45.341 -72.516,-45.341c-69.688,-0 -103.854,54.983 -103.854,168.108c-0,106.804 33.837,160.367 99.254,160.367c33.333,-0 53.783,-12.542 75.971,-45.854c-2.259,7.416 -2.259,12.77 -2.259,21.991l0,23.542c0,47.854 -21.004,72.108 -64.025,72.108c-30.937,0 -48.371,-13.416 -52.016,-40.183l-47.742,-0.029Zm270.192,-459.5l-0,59.883l49.825,-0l-0,-59.883l-49.825,-0Zm-0,106.287l-0,323.058l49.825,0l-0,-323.058l-49.825,0Zm81.962,0l0,38.471l46.667,-0l-0,209.612c-0,62.98 15.9,78.363 72.271,78.363c13.908,0 20.504,-0.325 34.637,-1.712l0,-40.759c-6.996,0.725 -14.012,1.104 -21.058,1.129c-29.567,0 -35.558,-6.612 -35.767,-41.891l0,-204.771l55.696,-0l0,-38.475l-55.696,-0l0,-89.679l-50.083,-0l-0,89.712l-46.667,0Zm332.533,146.983l-1.129,0l0,61.792c0,52.4 -23.887,80.875 -66.041,80.875c-30.138,0 -46.338,-18.512 -46.338,-52.337c0,-35.959 12.517,-51.017 51.529,-63.563l24.721,-7.737c19.359,-5.905 30.175,-11.642 37.258,-19.03Zm-155.608,-49.304l47.5,0l0,-2c0,-45.858 16.788,-65.175 55.488,-65.175c35.554,0 51.525,17.125 51.525,53.534c-0,32.762 -3.696,35.341 -67.1,54.112c-39.88,11.417 -48.384,14.608 -62.638,23.671c-21.841,15.317 -34.117,42.758 -34.117,77.717c0.001,58.204 30.384,90.645 83.892,90.645c36.684,0 63.159,-13.737 82.517,-45.337c1.387,28.537 17.362,41.629 49.167,41.629c11.145,0 15.104,-0.321 25.937,-4.837l0,-34.763c-4.846,1.708 -6.617,2.838 -10.833,2.838c-14.775,-0 -18.23,-8.254 -18.23,-36.409l0,-166.395c0,-37.021 -4.758,-54.371 -21.891,-70.592c-17.034,-15.092 -44.95,-23.121 -76.804,-23.121c-40.125,-0 -69.117,11.417 -87.313,35.083c-12.742,15.934 -17.1,32.7 -17.1,65.496l0,3.904Zm257.225,-203.966l0,429.312l49.496,0l-0,-429.312l-49.496,-0Zm184.583,295.162l0.001,8.579c-0.001,91.067 40.641,133.829 128.02,133.829c86.492,0 135.084,-44.47 135.084,-124.22c-0,-60.08 -26.475,-94.905 -89.617,-115.642l-40.938,-14.542c-52.012,-17.058 -71.945,-39.571 -71.945,-80.041c-0,-44.984 25.279,-69.2 70.558,-69.2c46.129,-0 65.675,22.475 66.858,75.75l52.013,-0l-0,-3.971c-0,-74.588 -41.25,-114.8 -119.775,-114.8c-78.246,-0 -122.884,43.887 -122.884,118.771c0,59.012 28.75,93.708 96.096,116.512l42.709,14.479c44.912,15.121 64.008,38.18 64.008,78.359c0,49.016 -30.208,76.912 -81.075,76.912c-51.529,0 -75.904,-30.183 -75.904,-93.971l-0,-6.804l-53.209,0Zm346.459,-26.25c-0,-93.646 18.8,-132.15 64.6,-132.15c44.079,0 61.108,35.892 61.108,128.992c0,93.775 -19.321,131.891 -63.142,131.891c-44.895,0 -62.566,-37.02 -62.566,-128.733Zm-51.479,-1.387c-0,120.187 32.729,168.916 114.046,168.916c79.116,0 114.358,-51.825 114.358,-168.916c-0,-117.092 -33.525,-168.109 -111.529,-168.109c-80.188,0 -116.875,52.467 -116.875,168.109Zm273.941,-161.238l0,224.221c0,74.329 25.28,105.933 82.763,105.933c34.167,0 61.442,-14.287 82.758,-46.179l-0.296,6.288l-1.179,14.22l0,18.509l46.667,-0l-0,-322.992l-49.183,0l-0,223.608c-0,38.18 -26.475,66.075 -64.342,66.075c-34.113,0 -47.725,-19.641 -47.725,-68.333l-0,-221.317l-49.463,-0.033Zm313.717,0l-45.729,0l-0,323.058l49.183,0l0,-217.416c0,-44.725 23.838,-70.846 62.571,-70.846c38.938,-0 47.725,15.058 48.625,84.583l0,203.68l50.071,-0l-0,-229.317c-0,-36.213 -4.529,-53.854 -17.029,-71.879c-12.813,-18.767 -36.738,-30.121 -63.475,-30.121c-34.984,-0.371 -67.517,17.971 -85.346,48.116c1.129,-9.387 1.129,-13.095 1.129,-22.187l0,-17.671Zm241.525,161.238c0,-92.259 16.792,-126.475 61.721,-126.475c20.192,-0 35.296,7.608 44.721,22.733c12.762,18.833 17.883,51.017 17.883,102.838c0,90.587 -19.617,129.316 -63.958,129.316c-43.542,0 -60.367,-35.312 -60.367,-128.412Zm171.529,-267.529l-50.087,-0l-0,119.062c-0,13.992 0.591,15.446 1.129,22.542c-12.742,-27.413 -38.663,-43.6 -71.946,-43.6c-68.871,-0 -101.821,55.5 -101.821,168.621c0,115.966 32.396,169.82 100.384,169.82c38.729,0 59.512,-13.737 78,-50.145c-0.85,9.641 -1.717,13.091 -0.85,18.508l-0,24.508l45.208,0l-0.017,-429.316Zm48.142,330.125l-0,10.25l24.412,-0l0,86.104l12.534,-0l-0,-86.104l23.333,-0l0,-10.25l-60.279,-0Zm69.912,-0l0,96.354l11.409,-0l-0,-61.85c-0,-7.742 -0.85,-19.35 -1.129,-26.767l1.129,0l-0,1.708l3.158,16.805l3.958,13.929l0.592,2.579l14.775,53.6l10.242,-0l14.271,-52.15l0.745,-6.867c2.85,-10.254 6.217,-23.862 7.413,-29.604l0.296,0l-0,1.708l-0.296,6.546l-0,7.742l-0.292,5.029l0,67.592l11.404,-0l0,-96.354l-19.062,-0l-12.533,48.758l-0.575,3.158c-3.713,14.221 -6.596,27.025 -6.596,33.313c-0,-3.096 -0,-4.546 -0.763,-7.125c-1.633,-11.146 -4.012,-22.167 -7.121,-32.992l-1.962,-7.737l-10.017,-37.342l-19.046,-0.033Zm-2805.62,-634.03l0,8.838c0,91.162 40.384,133.279 128.005,133.279c86.512,0 135.104,-43.792 135.104,-123.283c-0,-60.109 -26.734,-94.584 -89.634,-115.704l-41.25,-14.8c-51.683,-17.059 -71.65,-38.7 -71.65,-80.042c0,-44.725 25.017,-68.913 71.075,-68.913c45.85,0 64.342,21.638 66.042,76.042l52.588,0l-0,-4.517c-0,-74.104 -41.755,-114.479 -120.017,-114.479c-78.004,0 -122.883,43.825 -122.883,118.996c-0,59.271 28.75,93.742 96.475,117.092l42.312,14.187c44.929,14.575 63.729,37.959 63.729,78.363c0,47.887 -29.875,76.654 -80.5,76.654c-51.754,-0 -75.904,-31.638 -75.904,-94.038l0,-7.708l-53.492,0.033Zm352.988,-25.054c-0,-95.196 18.492,-133.054 63.767,-133.054c44.912,0 61.37,35.921 61.37,129.025c0,93.163 -18.729,132.471 -62.566,132.471c-44.638,0.033 -62.571,-36.988 -62.571,-128.442Zm-51.754,-1.708c-0,120.187 33.266,168.075 114.358,168.075c78.542,-0 114.408,-51.596 114.408,-168.075c0,-117.642 -33.575,-168.917 -111.837,-168.917c-79.967,-0.033 -116.929,52.984 -116.929,168.917Zm328.837,-161.529l-45.8,-0l0,322.479l49.238,-0l-0,-217.125c-0,-44.408 24.221,-71.754 62.571,-71.754c39.808,-0 48.054,16.771 48.958,86.296l-0,202.55l49.425,-0l-0,-229.317c-0,-35.567 -4.271,-53.046 -16.546,-72.042c-12.758,-17.412 -36.683,-28.504 -63.35,-28.504c-36.162,0 -67.758,17.929 -84.792,47.533c0.296,-9.933 0.296,-13.029 0.296,-22.704l0,-17.412Zm185.45,-0l93.596,327.862l0,4.871c-12.762,46.113 -23.35,56.692 -50.625,56.692c-5.417,-0 -12.275,-0 -20.783,-0.617l-6.525,0l-0,40.988l8.8,0.683c7.916,1.092 15.591,1.092 22.45,1.092c12.741,0.345 25.466,-1.496 37.604,-5.446c25.867,-10.259 38.125,-27.092 52.917,-80.267l10.17,-34.475l4.605,-14.771l77.62,-296.579l-52.587,0l-44.967,199.129l-1.996,8.804c-4.862,21.796 -8.366,43.875 -10.504,66.109c-2.587,-22.213 -6.771,-44.209 -12.516,-65.817l-2.013,-8.029l-50.871,-200.229l-54.375,-0Zm443.196,-63.821l32.138,-0c47.237,-0 67.429,4.871 85.604,18.254c28.229,21.604 41.825,66.688 41.825,145.017c-0,77.233 -10.746,126.991 -33.263,154.371c-15.104,18.254 -38.683,26.216 -80.504,25.958l-45.8,-0l0,-343.6Zm-52.654,-42.117l-0,428.417l110.067,-0c54.654,-0 84.22,-9.158 110.141,-40.15c12.188,-15.8 21.875,-33.392 28.696,-52.146c11.146,-36.729 16.771,-83.167 16.771,-133.862c-0,-92.034 -19.304,-147.275 -61.946,-178.875c-24.808,-18.575 -54.375,-23.384 -122.1,-23.384l-81.629,0Zm296.7,105.938l94.167,327.862l-0,4.871c-13.021,46.113 -23.575,56.692 -51.475,56.692c-5.4,-0 -11.946,-0 -19.934,-0.617l-7.046,0l0,40.988l8.505,0.683c7.916,1.092 16.233,1.092 22.762,1.092c17.933,-0 24.967,-1.771 38.125,-5.446c25.608,-10.259 37.55,-27.092 52.013,-80.267l10.887,-34.475l4.233,-14.771l77.675,-296.579l-52.654,0l-44.966,199.129l-1.963,8.804c-5.05,21.75 -8.471,43.846 -10.242,66.109c-3.229,-22.129 -7.516,-44.092 -12.812,-65.817l-2.258,-8.029l-51.196,-200.229l-53.821,-0Zm311.529,-0l-45.521,-0l0,322.479l49.167,-0l-0,-217.125c-0,-44.408 23.646,-71.754 62.342,-71.754c39.325,-0 48.108,16.771 48.958,86.296l-0,202.55l49.237,-0l0,-229.317c0,-35.567 -4.029,-53.046 -16.233,-72.042c-13.075,-17.412 -36.754,-28.504 -64.029,-28.504c-36.163,0 -67.171,17.929 -84.792,47.533c0.85,-9.933 0.85,-13.029 0.85,-22.704l0.021,-17.412Zm361.229,146.983l-0.746,0l0,27.092l-0.295,10.833l-0,23.542c-0,51.629 -23.088,81.554 -66.059,81.554c-30.137,-0 -45.85,-19.413 -45.85,-53.629c0,-34.988 12.013,-50.146 51.009,-62.334l24.479,-7.675c19.879,-6.258 30.675,-12.254 37.462,-19.383Zm-155.604,-49.275l47.567,0l-0,-2.612c-0,-44.725 17.033,-64.913 55.487,-64.913c35.296,0 51.529,17.671 51.529,53.821c0,33.633 -3.229,35.892 -67.17,54.467c-39.809,11.091 -47.796,13.962 -62.034,23.283c-21.65,15.996 -34.65,43.017 -34.65,78.137c0,57.788 30.692,89.68 83.592,89.68c37.883,-0 63.733,-13.413 82.517,-44.438c1.704,29.283 17.866,41.021 50.07,41.021c10.763,-0 15.034,-0.871 25.225,-4.033l0,-35.538c-4.479,1.679 -6.216,3.421 -10.191,3.421c-14.775,-0 -18.992,-8.321 -18.992,-37.633l0,-165.175c0,-37.634 -4.896,-55.305 -22.258,-70.975c-16.163,-14.48 -43.767,-23.609 -76.163,-23.609c-39.862,0 -69.425,11.675 -87.029,35.021c-12.833,16.221 -17.433,33.346 -17.433,65.529l-0.067,4.546Zm248.871,-97.708l0.85,322.479l49.183,-0l0,-214.483c0,-49.046 20,-74.363 60.642,-74.363c26.721,0 42.379,17.413 43.821,46.179l-0,242.667l49.496,-0l-0,-215.096c-0,-47.821 21.058,-73.75 60.904,-73.75c33.262,0 42.379,14.546 42.9,64.333l-0,224.513l49.808,-0l0,-223.029c0,-52.984 -3.958,-70.104 -21.058,-86.617c-13.075,-12.833 -34.167,-20.25 -58.317,-20.25c-35.037,0 -60.071,15.704 -80.521,49.854c-12.204,-34.15 -34.966,-49.854 -72.516,-49.854c-34.396,0 -60.905,15.704 -79.375,45.563c0.57,-7.963 1.437,-17.059 0.57,-29.634l0,-8.512l-46.387,-0Zm413.367,-105.938l-0,58.663l48.958,-0l-0,-58.663l-48.958,0Zm-0,105.938l-0,322.766l48.958,0l-0,-322.766l-48.958,-0Zm261.179,211.062c-0.85,49.046 -20.188,78.942 -54.354,78.942c-45.23,-0 -62.292,-37.633 -62.292,-129.054c-0,-90.038 18.75,-127.317 62.292,-127.317c32.708,0 49.495,21.604 53.454,64.075l-0,3.129l50.362,0c-2.566,-68.946 -40.121,-108.225 -102.412,-108.225c-78.8,0 -114.896,53.888 -114.896,169.175c-0,116.221 34.167,167.817 111.771,167.817c66.804,-0 102.971,-41.308 105.537,-118.508l-49.462,-0.034Z" style="fill:#e7e7e7;"/></g></svg>