<?xml version="1.0" encoding="UTF-8" standalone="no"?><!DOCTYPE svg PUBLIC "-//W3C//DTD SVG 1.1//EN" "http://www.w3.org/Graphics/SVG/1.1/DTD/svg11.dtd"><svg width="100%" height="100%" viewBox="0 0 1067 405" version="1.1" xmlns="http://www.w3.org/2000/svg" xmlns:xlink="http://www.w3.org/1999/xlink" xml:space="preserve" xmlns:serif="http://www.serif.com/" style="fill-rule:evenodd;clip-rule:evenodd;stroke-linejoin:round;stroke-miterlimit:2;"><g><path d="M174.6,53.286c-32.87,-0 -43.731,25.627 -43.731,38.218l-0,45.343c-0,36.43 -14.501,34.393 -31.386,34.393l0,34.43c59.287,0 66.951,-19.586 66.951,-57.531l0,-40.13c0,-22.135 16.069,-20.991 29.875,-20.991l0,-33.732l-21.709,-0Zm33.778,-0l-0,36.065l45.665,-0c10.334,-0 24.112,-0.04 24.112,18.417l0,43.858c0,6.889 -1.579,18.436 -16.205,18.436l-16.358,0l0,-70.008l-37.214,-0l-0,105.616l50.34,0c23.475,0 56.447,-7.756 56.447,-58.962l-0,-46.907c-0,-19.129 -16.175,-46.515 -47.514,-46.515l-59.273,-0Zm118.728,-0l0,36.065l45.665,-0c10.335,-0 24.113,-0.04 24.113,18.417l-0,43.858c-0,6.889 -1.579,18.436 -16.207,18.436l-16.357,0l0,-70.008l-37.214,-0l0,105.616l49.826,0c23.476,0 56.451,-7.756 56.451,-58.962l0,-46.907c0,-19.129 -16.171,-46.515 -47.511,-46.515l-58.766,-0Zm185.911,-0c-32.871,-0 -43.734,25.627 -43.734,38.218l0,45.343c0,36.43 -14.508,34.393 -31.391,34.393l-0,34.43c59.287,0 66.958,-19.586 66.958,-57.531l-0,-40.13c-0,-22.135 16.062,-20.991 29.867,-20.991l-0,-33.732l-21.7,-0Z" style="fill:#fff;fill-rule:nonzero;"/><path d="M568.267,48.644c-9.592,0 -16.434,7.032 -16.434,17.804c0,6.429 1.417,11.647 7,14.774c3.146,1.824 8.334,3.643 11.559,5.033c5.975,2.519 9.591,2.609 9.591,12.513c0,7.644 -4.637,11.382 -11.241,11.382c-9.829,-0 -11.48,-6.081 -11.167,-15.724l-6.529,0c0.083,3.475 -0,8.685 1.258,11.899c3.384,8.514 10.3,10.337 16.121,10.337c11.325,-0 18.325,-7.212 18.325,-19.548c-0,-8.6 -2.046,-12.942 -13.213,-17.546l-9.358,-3.908c-3.775,-1.564 -5.583,-4.346 -5.583,-8.863c-0,-5.039 1.021,-11.641 10.537,-11.641c6.525,-0 9.829,5.129 9.354,11.905l6.53,0c0.633,-12.249 -5.975,-18.417 -16.75,-18.417Zm153.937,1.299l0,65.155l17.379,0c15.963,0 18.796,-16.68 19.267,-32.578c0.471,-16.071 -2.046,-32.577 -20.446,-32.577l-16.2,-0Zm209.25,-0l0,8.688l6.208,0l0,-8.688l-6.208,-0Zm-202.721,6.518l10.454,-0c10.538,-0 12.425,9.906 12.896,24.761c0.629,19.459 -3.3,27.358 -12.896,27.358l-10.454,0l0,-52.119Zm121.492,9.031c-8.804,0 -13.288,4.345 -12.975,14.335l5.587,-0c-0.083,-5.647 0.705,-8.515 6.367,-8.515c5.033,0 6.921,2.086 6.921,7.559c-0,2.519 0.158,4.432 -1.179,5.561c-0.784,0.695 -9.592,4.342 -13.129,6.08c-6.059,2.953 -6.296,9.907 -6.296,11.731c-0,8.774 2.516,14.16 11.246,14.16c4.166,0 8.179,-3.566 9.675,-7.823l0.154,0c0.629,6.602 2.596,7.128 7.862,6.867c0.471,-0.174 0.946,-0.262 1.417,-0.349l0,-5.038c-0.867,0.087 -1.808,0.176 -2.675,-0.084c-1.258,-0.695 -1.1,-2.434 -1.1,-3.65l-0,-27.713c-0,-1.13 1.1,-13.121 -11.875,-13.121Zm-241.4,0.006c-10.775,0 -15.65,9.205 -15.65,23.799c-0,20.849 6.212,27.106 15.65,27.106c9.592,0 15.65,-6.17 15.65,-27.106c-0,-14.594 -4.879,-23.799 -15.65,-23.799Zm40.9,0c-4.717,0 -7.942,2.432 -10.929,6.602l-0.163,0l0.004,-5.303l-6.054,0l0,48.301l6.213,0l-0,-32.313c-0,-3.475 0.308,-6.259 2.825,-8.778c1.654,-1.738 3.858,-2.694 6.137,-2.694c5.034,-0 6.529,3.391 6.529,8.43l0,35.355l6.209,0l-0,-37.267c-0,-8.513 -4.242,-12.333 -10.771,-12.333Zm168.567,0c-4.717,0 -7.946,2.432 -10.934,6.602l-0.158,0l-0,-5.303l-6.05,0l-0,48.301l6.208,0l0,-32.313c0,-3.475 0.313,-6.259 2.834,-8.778c1.65,-1.738 3.854,-2.694 6.133,-2.694c5.033,-0 6.525,3.391 6.525,8.43l-0,35.355l6.212,0l0,-37.267c0,-8.513 -4.241,-12.333 -10.77,-12.333Zm70.504,0c-4.559,0 -8.338,3.385 -10.384,7.468l-0.158,0l0,-6.169l-5.971,0l0,48.301l6.209,0l-0,-32.313c-0,-3.475 0.158,-6.259 2.675,-8.778c1.65,-1.738 3.854,-2.694 6.137,-2.694c5.029,-0 6.521,3.391 6.521,8.43l0,35.355l6.217,0l-0,-32.313c-0,-3.475 0.312,-6.259 2.829,-8.778c1.575,-1.651 3.696,-2.607 5.817,-2.694c5.35,-0 6.687,3.044 6.687,8.43l0,35.355l6.208,0l0,-34.923c0,-3.04 0.163,-8.425 -2.666,-11.292c-2.284,-2.258 -5.038,-3.385 -8.025,-3.385c-5.504,-0 -8.65,2.691 -11.717,7.642c-1.967,-4.604 -5.737,-7.642 -10.379,-7.642Zm71.421,0c-13.367,0 -15.1,14.246 -15.1,26.06c-0,12.51 1.887,24.845 15.258,24.845c9.75,0 12.896,-8.863 13.129,-18.158l-5.9,-0c-0.312,5.907 -0.942,12.338 -7.704,12.338c-7.942,-0 -8.337,-11.21 -8.337,-17.552c-0,-6.863 -0.467,-21.718 8.574,-21.718c5.896,-0 7.155,5.392 7.234,10.691l5.821,-0c0.079,-8.948 -4.167,-16.506 -12.975,-16.506Zm-295.309,1.299l13.917,49.432c-1.729,4.778 -1.883,9.554 -7.7,9.554c-1.496,0 -3.229,-0.345 -4.642,-1.04l0,6.079c1.492,0.521 2.988,0.782 4.484,0.782c4.558,-0 7.704,-1.827 9.983,-6.344c1.258,-2.432 3.225,-9.465 4.012,-12.332l12.976,-46.131l-6.446,0l-10.146,41.874l-0.158,-0l-9.83,-41.874l-6.45,0Zm97.671,0l13.917,49.432c-1.729,4.778 -1.883,9.554 -7.704,9.554c-1.492,0 -3.225,-0.345 -4.642,-1.04l0,6.079c1.496,0.521 2.992,0.782 4.483,0.782c4.563,-0 7.709,-1.827 9.988,-6.344c1.258,-2.432 3.225,-9.465 4.012,-12.332l12.975,-46.131l-6.454,0l-10.141,41.874l-0.159,-0l-9.825,-41.874l-6.45,0Zm168.875,0l0,48.301l6.209,0l-0,-48.301l-6.209,0Zm-322.629,4.516c6.525,-0 9.196,5.56 9.196,20.155c-0,11.38 -1.804,19.115 -9.196,19.115c-7.233,-0 -9.2,-7.735 -9.2,-19.115c0,-14.595 2.829,-20.155 9.2,-20.155Zm246.829,17.726l0,11.725c0,7.818 -5.191,9.818 -7.554,9.818c-5.029,0 -6.129,-3.126 -6.129,-7.99c-0,-3.302 0.942,-6.864 3.85,-8.34c3.304,-1.738 6.767,-3.215 9.833,-5.213Zm-86.516,52.143c-9.592,0 -16.438,7.038 -16.438,17.81c0,6.429 1.421,11.641 7.004,14.768c3.146,1.825 8.334,3.649 11.559,5.039c5.975,2.519 9.591,2.609 9.591,12.513c0,7.645 -4.637,11.376 -11.246,11.376c-9.829,0 -11.479,-6.081 -11.162,-15.723l-6.529,-0c0.079,3.475 -0,8.691 1.258,11.905c3.379,8.513 10.3,10.336 16.121,10.336c11.321,0 18.321,-7.212 18.321,-19.548c-0,-8.6 -2.042,-12.941 -13.209,-17.546l-9.354,-3.908c-3.775,-1.564 -5.587,-4.345 -5.587,-8.863c-0,-5.038 1.021,-11.641 10.537,-11.641c6.525,0 9.834,5.124 9.359,11.9l6.525,-0c0.629,-12.249 -5.975,-18.418 -16.75,-18.418Zm-215.655,1.305l0,65.156l17.38,-0c15.966,-0 18.795,-16.681 19.27,-32.578c0.471,-16.071 -2.05,-32.578 -20.45,-32.578l-16.2,0Zm44.938,0l-0,8.689l6.208,-0l0,-8.689l-6.208,0Zm52.012,0l0,8.689l6.209,-0l-0,-8.689l-6.209,0Zm69.255,0l-0,65.156l6.212,-0l0,-65.156l-6.212,0Zm208.57,0l0,21.809l-0.158,-0c-2.908,-4.17 -5.587,-6.259 -10.067,-6.259c-9.358,-0 -13.604,11.208 -13.133,25.368c0.158,4.257 -0.946,25.542 12.817,25.542c5.271,0 7.946,-1.914 10.621,-7.648l0.158,0l-0,6.344l5.971,-0l-0,-65.156l-6.209,0Zm-260.862,3.734l-0,13.12l-6.05,0l-0,5.821l6.05,-0l-0,34.574c-0,7.297 2.754,7.994 6.45,7.907l6.837,-0l0,-5.821l-4.162,0c-3.458,0 -2.908,-2.083 -2.908,-3.734l-0,-32.926l7.229,-0l-0,-5.821l-7.309,0l0,-13.12l-6.137,0Zm-107.383,2.784l10.458,-0c10.537,-0 12.425,9.9 12.896,24.755c0.629,19.46 -3.304,27.365 -12.896,27.365l-10.458,-0l-0,-52.12Zm65.991,9.032c-11.558,-0 -13.837,14.945 -13.837,25.109c-0,19.459 5.737,25.801 13.996,25.801c4.008,0 6.837,-1.999 9.433,-6.95l0.158,-0c-0.083,5.299 0.946,16.24 -9.121,16.24c-3.775,0 -6.291,-1.645 -6.841,-5.988l-6.054,-0c0.866,8.253 6.054,11.809 13.054,11.809c4.796,-0 9.279,-1.908 12.029,-6.686c2.912,-5.126 3.304,-9.642 3.304,-15.55l0,-42.481l-6.212,0l-0,5.472l-0.159,-0c-2.125,-4.604 -5.737,-6.776 -9.75,-6.776Zm71.938,-0c-8.804,-0 -13.288,4.344 -12.971,14.334l5.583,0c-0.083,-5.646 0.704,-8.514 6.367,-8.514c5.033,0 6.921,2.085 6.921,7.558c-0,2.52 0.158,4.433 -1.179,5.562c-0.784,0.695 -9.592,4.342 -13.13,6.079c-6.058,2.954 -6.295,9.907 -6.295,11.731c-0,8.774 2.52,14.16 11.25,14.16c4.166,0 8.175,-3.565 9.67,-7.822l0.159,-0c0.629,6.602 2.596,7.127 7.866,6.867c0.471,-0.174 0.938,-0.262 1.409,-0.349l-0,-5.039c-0.867,0.087 -1.809,0.171 -2.675,-0.091c-1.259,-0.695 -1.096,-2.427 -1.096,-3.643l-0,-27.713c-0,-1.13 1.096,-13.12 -11.879,-13.12Zm110.979,-0c-10.775,-0 -15.65,9.21 -15.65,23.805c-0,20.849 6.212,27.105 15.65,27.105c9.592,0 15.646,-6.17 15.646,-27.105c-0,-14.595 -4.875,-23.805 -15.646,-23.805Zm77.8,-0c-4.717,-0 -7.938,2.432 -10.929,6.602l-0.154,-0l-0,-5.298l-6.059,0l0,48.302l6.213,-0l-0,-32.319c-0,-3.475 0.316,-6.254 2.833,-8.773c1.65,-1.738 3.85,-2.694 6.129,-2.694c5.034,0 6.529,3.391 6.529,8.43l0,35.356l6.213,-0l-0,-37.268c-0,-8.513 -4.246,-12.338 -10.775,-12.338Zm-288.3,1.304l-0,48.302l6.208,-0l0,-48.302l-6.208,0Zm52.012,0l0,48.302l6.209,-0l-0,-48.302l-6.209,0Zm183.334,0l-0,37.268c-0,8.513 4.012,12.338 10.541,12.338c4.246,0 8.255,-2.696 10.38,-7.648l0.154,0l-0,6.344l6.212,-0l0,-48.302l-6.212,0l-0,31.015c-0,2.78 -0.392,6.081 -1.809,8.514c-1.729,2.78 -4.483,4.257 -7.47,4.257c-4.405,0 -5.58,-2.176 -5.58,-6.259l0,-37.527l-6.216,0Zm-206.584,4.516c6.921,0 8.725,9.036 8.725,18.592c0,7.731 0.084,20.678 -9.354,20.678c-6.133,0 -7.946,-7.823 -7.946,-19.638c0,-6.515 0.317,-19.632 8.575,-19.632Zm181.738,0c6.525,0 9.204,5.561 9.204,20.155c0,11.38 -1.812,19.115 -9.204,19.115c-7.238,0 -9.2,-7.735 -9.2,-19.115c-0,-14.594 2.829,-20.155 9.2,-20.155Zm110.842,0c8.333,0 8.495,12.248 8.495,18.85l0,5.995c0,5.473 -1.812,14.425 -8.258,14.425c-8.496,0 -8.804,-9.472 -8.804,-19.897c-0,-14.855 3.375,-19.373 8.567,-19.373Zm-216.392,17.726l-0,11.725c-0,7.819 -5.192,9.819 -7.55,9.819c-5.033,0 -6.133,-3.132 -6.133,-7.997c-0,-3.301 0.945,-6.863 3.854,-8.34c3.304,-1.738 6.762,-3.209 9.829,-5.207Z" style="fill:#fff;fill-rule:nonzero;"/><path d="M960.946,208.3c8.287,0 15.583,-6.116 15.583,-15.188c0,-9.071 -7.296,-15.187 -15.583,-15.187c-8.292,-0 -15.588,6.116 -15.588,15.188c0,9.071 7.296,15.187 15.588,15.187Zm-11.879,-15.188c-0,-7.101 5.237,-12.232 11.879,-12.232c6.554,0 11.875,5.131 11.875,12.232c-0,7.102 -5.321,12.233 -11.875,12.233c-6.642,-0 -11.879,-5.131 -11.879,-12.233Zm8.908,0.944l2.517,0l4.329,7.389l3.3,0l-4.746,-7.512c2.683,-0.287 4.621,-1.518 4.621,-4.638c-0,-3.613 -2.308,-5.049 -6.517,-5.049l-6.512,-0l-0,17.199l3.008,0l0,-7.389Zm0,-2.462l0,-4.885l3.217,-0c1.691,-0 3.629,0.328 3.629,2.34c-0,2.298 -1.65,2.545 -3.671,2.545l-3.175,-0Z" style="fill:#fff;fill-rule:nonzero;"/><path d="M0,0l0,403.296l1066.65,0l0,-403.296l-1066.65,0Zm8.746,8.707l1049.16,-0l0,239.848l-1049.16,-0l0,-239.848Zm146.043,272.257c13.909,0 24.676,2.386 32.303,7.149c7.628,4.722 11.447,10.441 11.447,17.161c-0,3.02 -1.029,6.277 -3.081,9.765c-1.987,3.445 -6.347,6.443 -13.077,8.995c6.858,2.552 12.02,5.933 15.481,10.144c3.462,4.211 5.195,8.911 5.195,14.1c0,7.784 -4.36,14.422 -13.077,19.909c-8.653,5.444 -20.769,8.166 -36.345,8.166c-15.575,-0 -27.366,-2.722 -35.378,-8.166c-8.012,-5.487 -12.02,-12.125 -12.02,-19.909c0,-5.189 1.76,-9.889 5.285,-14.1c3.59,-4.211 8.816,-7.38 15.675,-9.506c-6.73,-2.978 -11.123,-6.188 -13.174,-9.633c-1.987,-3.488 -2.978,-6.745 -2.978,-9.765c-0,-6.72 3.813,-12.439 11.44,-17.161c7.628,-4.763 18.395,-7.149 32.304,-7.149Zm-0,14.677c-5.512,0 -9.84,1.043 -12.981,3.127c-3.076,2.042 -4.615,4.892 -4.615,8.55c0,3.361 1.539,6.105 4.615,8.232c3.141,2.127 7.469,3.187 12.981,3.187c5.576,0 9.871,-1.06 12.884,-3.187c3.077,-2.127 4.614,-4.871 4.614,-8.232c0,-3.658 -1.537,-6.508 -4.614,-8.55c-3.013,-2.084 -7.308,-3.127 -12.884,-3.127Zm129.703,11.768c3.393,-0 6.584,0.493 9.574,1.473c3.048,0.98 5.749,2.421 8.106,4.323c2.415,1.845 4.398,4.148 5.95,6.915c1.553,2.767 2.533,5.938 2.935,9.512l-13.113,0c-0.23,-1.556 -0.747,-2.971 -1.552,-4.239c-0.805,-1.326 -1.813,-2.477 -3.02,-3.457c-1.208,-0.98 -2.586,-1.73 -4.138,-2.249c-1.495,-0.577 -3.074,-0.866 -4.742,-0.866c-3.047,0 -5.634,0.606 -7.762,1.816c-2.127,1.153 -3.854,2.739 -5.176,4.756c-1.322,1.96 -2.303,4.21 -2.936,6.747c-0.575,2.536 -0.857,5.155 -0.857,7.865c-0,2.593 0.282,5.133 0.857,7.612c0.633,2.421 1.614,4.612 2.936,6.572c1.322,1.96 3.049,3.54 5.176,4.75c2.128,1.153 4.715,1.732 7.762,1.732c4.14,-0 7.359,-1.27 9.659,-3.806c2.357,-2.594 3.795,-5.937 4.312,-10.03l13.108,-0c-0.345,3.862 -1.232,7.35 -2.67,10.462c-1.437,3.113 -3.339,5.765 -5.696,7.955c-2.357,2.191 -5.119,3.895 -8.281,5.105c-3.162,1.153 -6.637,1.726 -10.432,1.726c-4.772,0 -9.025,-0.836 -12.763,-2.507c-3.737,-1.672 -6.902,-3.949 -9.489,-6.831c-2.588,-2.882 -4.57,-6.284 -5.95,-10.204c-1.38,-3.919 -2.072,-8.098 -2.072,-12.536c0,-4.554 0.692,-8.819 2.072,-12.796c1.38,-3.977 3.362,-7.432 5.95,-10.372c2.587,-2.94 5.752,-5.25 9.489,-6.921c3.738,-1.671 7.991,-2.507 12.763,-2.507Zm713.066,-0c3.221,-0 6.296,0.375 9.23,1.124c2.991,0.692 5.633,1.844 7.933,3.457c2.3,1.615 4.112,3.694 5.433,6.23c1.384,2.478 2.075,5.505 2.075,9.079l-13.116,0c-0.113,-1.844 -0.517,-3.377 -1.209,-4.588c-0.629,-1.21 -1.492,-2.158 -2.583,-2.85c-1.092,-0.691 -2.354,-1.185 -3.792,-1.473c-1.437,-0.288 -2.962,-0.427 -4.575,-0.427c-1.091,0 -2.187,0.112 -3.279,0.343c-1.092,0.231 -2.096,0.632 -3.013,1.208c-0.862,0.577 -1.583,1.327 -2.158,2.249c-0.575,0.865 -0.862,1.931 -0.862,3.199c-0,1.211 0.229,2.191 0.687,2.94c0.458,0.75 1.354,1.441 2.675,2.075c1.379,0.577 3.25,1.215 5.609,1.906c2.412,0.634 5.545,1.437 9.395,2.417c0.75,0.173 1.73,0.436 2.938,0.782c1.208,0.288 2.471,0.716 3.792,1.293c1.379,0.519 2.729,1.215 4.054,2.08c1.379,0.865 2.616,1.931 3.708,3.199c1.15,1.268 2.071,2.795 2.758,4.582c0.692,1.729 1.042,3.743 1.042,6.049c0,2.824 -0.55,5.45 -1.642,7.871c-1.095,2.421 -2.733,4.52 -4.92,6.307c-2.125,1.729 -4.8,3.118 -8.021,4.155c-3.163,0.98 -6.838,1.467 -11.034,1.467c-3.391,0 -6.7,-0.434 -9.92,-1.298c-3.163,-0.865 -5.95,-2.188 -8.363,-3.975c-2.417,-1.787 -4.371,-4.064 -5.867,-6.831c-1.437,-2.767 -2.129,-6.05 -2.071,-9.855l13.109,0c-0,2.075 0.375,3.833 1.121,5.273c0.75,1.442 1.725,2.62 2.929,3.542c1.266,0.865 2.704,1.529 4.312,1.99c1.671,0.403 3.421,0.607 5.263,0.607c1.208,0 2.504,-0.086 3.883,-0.258c1.379,-0.231 2.671,-0.638 3.879,-1.215c1.209,-0.576 2.213,-1.353 3.021,-2.333c0.804,-1.038 1.208,-2.334 1.208,-3.89c0,-1.672 -0.545,-3.028 -1.637,-4.065c-1.038,-1.038 -2.421,-1.9 -4.146,-2.592c-1.725,-0.749 -3.679,-1.354 -5.862,-1.816c-2.188,-0.518 -4.396,-1.097 -6.642,-1.731c-2.3,-0.576 -4.542,-1.268 -6.729,-2.074c-2.184,-0.865 -4.138,-1.958 -5.863,-3.284c-1.725,-1.326 -3.129,-2.971 -4.221,-4.93c-1.037,-1.96 -1.554,-4.382 -1.554,-7.264c0,-3.17 0.659,-5.908 1.979,-8.213c1.384,-2.364 3.163,-4.324 5.346,-5.881c2.188,-1.556 4.659,-2.708 7.421,-3.457c2.758,-0.75 5.521,-1.124 8.279,-1.124Zm-636.414,1.473l13.542,-0l0,23.69l24.923,0l-0,-23.69l13.542,-0l-0,61.734l-13.542,0l-0,-26.631l-24.923,-0l0,26.631l-13.542,0l-0,-61.734Zm123.543,-0l13.888,-0l23.025,61.734l-14.058,0l-4.655,-13.751l-23.029,-0l-4.829,13.751l-13.712,0l23.37,-61.734Zm86.4,-0l13.45,-0l25.705,41.417l0.175,-0l-0,-41.417l12.675,-0l-0,61.734l-13.542,0l-25.617,-41.333l-0.166,0l-0,41.333l-12.68,0l0,-61.734Zm104.296,-0l13.454,-0l25.7,41.417l0.175,-0l0,-41.417l12.68,-0l-0,61.734l-13.542,0l-25.613,-41.333l-0.175,0l0,41.333l-12.679,0l0,-61.734Zm106.329,-0l46.05,-0l0,11.412l-32.512,0l-0,13.229l29.846,-0l-0,10.546l-29.846,0l-0,15.135l33.208,-0l0,11.412l-46.746,0l0,-61.734Zm99.821,-0l13.538,-0l-0,50.322l30.012,-0l0,11.412l-43.55,0l0,-61.734Zm-390.116,15.218l-8.025,22.651l15.962,-0l-7.762,-22.651l-0.175,0Zm-336.628,8.545c-6.153,-0 -11.055,1.237 -14.708,3.704c-3.59,2.424 -5.382,5.994 -5.382,10.715c-0,4.551 1.76,8.085 5.285,10.594c3.59,2.51 8.523,3.765 14.805,3.765c6.281,-0 11.189,-1.255 14.714,-3.765c3.589,-2.509 5.382,-6.043 5.382,-10.594c-0,-4.721 -1.825,-8.291 -5.479,-10.715c-3.589,-2.467 -8.464,-3.704 -14.617,-3.704Z" style="fill:#fff;fill-rule:nonzero;"/></g></svg>