<?xml version="1.0" encoding="UTF-8" standalone="no"?><!DOCTYPE svg PUBLIC "-//W3C//DTD SVG 1.1//EN" "http://www.w3.org/Graphics/SVG/1.1/DTD/svg11.dtd"><svg width="100%" height="100%" viewBox="0 0 17363 7034" version="1.1" xmlns="http://www.w3.org/2000/svg" xmlns:xlink="http://www.w3.org/1999/xlink" xml:space="preserve" xmlns:serif="http://www.serif.com/" style="fill-rule:evenodd;clip-rule:evenodd;stroke-linejoin:round;stroke-miterlimit:2;"><path id="path472" d="M16927.3,-0.004c-232.446,-0 -425.3,195.408 -425.3,427.429c-0,233.721 192.854,429.129 425.3,429.129c250.754,0 433.816,-195.408 433.816,-429.129c0,-232.021 -183.062,-427.429 -433.816,-427.429Zm-0,92.379c195.408,-0 341.008,151.987 341.008,335.05c-0,186.467 -145.6,326.104 -341.008,326.104c-174.546,0 -320.996,-139.637 -320.996,-326.104c-0,-183.062 146.45,-335.05 320.996,-335.05Zm-159.221,125.592l-0,408.271l101.321,-0l-0,-155.392l57.9,-0c73.225,-0 81.312,14.033 94.087,96.216c0,29.359 0,46.83 6.4,59.175l94.938,0l-0,-60.862c-8.959,-61.304 -17.879,-97.917 -35.759,-115.371l-27.25,-22.579l27.25,-3.408c26.838,-40.442 35.759,-50.663 35.759,-88.975c-0,-82.167 -63.009,-117.075 -157.517,-117.075l-197.129,-0Zm101.321,69.816l78.762,0c52.363,0 73.225,24.25 73.225,60.879c0,31.505 -20.846,38.742 -82.166,38.742l-69.821,0l-0,-99.621" style="fill:#e7e7e7;"/><path id="path476" d="M11155.8,6366.71c-159.221,-59.175 -330.362,-59.175 -465.746,-59.175l0,460.209c125.167,-0 325.684,7.254 515.984,69.396c205.624,59.175 612.616,192.429 1348.27,192.429c1696.95,-0 2862.58,-488.309 2862.58,-1290.38c-0,-408.7 -624.542,-805.9 -1099.23,-1216.73c-129.421,-136.234 -237.554,-249.48 -183.488,-390.817c54.067,-217.975 570.9,-249.479 992.367,-217.975l61.729,-291.196c-556.846,-167.733 -1146.48,-260.117 -1770.17,-260.117c-1569.65,0 -2564.58,446.588 -2564.58,1088.58c0,482.35 590.059,834.425 1193.31,1322.73c178.379,188.171 178.379,271.613 124.312,446.158c-89.829,254.584 -647.529,254.584 -1015.36,146.875Zm-4129.12,-3712.33l2696.97,-1217.15l-8.958,1994.95l717.35,0l0,630.075l-717.35,0l0,2112.45c0,94.084 166.033,192 298.433,209.455c209.459,17.029 418.917,-84.292 676.905,-84.292l-0,467.871c-156.667,-0 -308.65,7.254 -526.621,56.196c-464.042,118.354 -1018.34,159.65 -1536.45,159.65c-805.9,-0 -1627.55,-338.03 -1627.55,-948.517l-0,-1972.82l-836.125,0l-0,-630.075l863.371,0l-0,-777.8l0.016,0Zm-3594.83,-1670.98l0,2609.7c-390.816,-176.25 -654.341,-204.346 -1080.49,-202.646c-1166.07,41.721 -2354.27,653.917 -2351.29,1800.82c0,1116.25 1053.67,1862.55 2208.24,1838.29c495.121,-17.884 785.891,-45.979 1223.54,-261.825l0,215.846l2731.46,-0l-0,-6000.17l-2731.46,-0l0,-0.017Zm0,3219.77l0,2044.76c-487.458,-146.45 -747.575,-554.72 -739.487,-1056.65c15.737,-478.087 282.258,-851.875 739.487,-988.108" style="fill:#e7e7e7;"/></svg>