<?xml version="1.0" encoding="UTF-8" standalone="no"?><!DOCTYPE svg PUBLIC "-//W3C//DTD SVG 1.1//EN" "http://www.w3.org/Graphics/SVG/1.1/DTD/svg11.dtd"><svg width="100%" height="100%" viewBox="0 0 1275 355" version="1.1" xmlns="http://www.w3.org/2000/svg" xmlns:xlink="http://www.w3.org/1999/xlink" xml:space="preserve" xmlns:serif="http://www.serif.com/" style="fill-rule:evenodd;clip-rule:evenodd;stroke-linejoin:round;stroke-miterlimit:2;"><g><path d="M0,0.056l0,354.055l1275,-0l0,-354.055l-1275,-0Zm697.004,250.739c-1.866,20.511 -27.346,40.282 -79.425,45.685c-64.062,6.64 -107.137,-8.831 -119.387,-13.999c-9.625,2.285 -44.454,10.244 -75.459,13.255c-36.387,3.534 -44.619,2.359 -64.688,-10.222c-20.069,-12.582 -20.095,-41.835 -20.095,-41.835l0.018,0.015l0,-72.106l-31.723,-0l-0,126.36l-115.299,0l-0,-7.658c-15,7.175 -32.65,11.321 -51.551,11.321c-54.41,-0 -98.524,-34.297 -98.524,-76.611c-0,-42.307 44.11,-76.608 98.524,-76.608c18.901,0 36.551,4.146 51.551,11.321l-0,-119.368l115.299,-0l-0,107.435l31.723,0l0,-35.406l118.961,-50.665l0,86.071l29.279,0l0,23.808l-29.279,-0l0,107.205c20.571,0.626 33.671,-1.975 39.479,-3.579l0.525,-1.813c49.613,15.618 68.013,0.004 67.546,-12.119c-0.862,-22.361 -71.275,-48.944 -55.896,-75.513c16.805,-29.044 69.405,-40.786 85.475,-42.186c40.671,-3.538 85.021,4.659 99.925,18.412c-2.333,3.963 -2.562,6.293 -2.562,6.293c-0,-0 -39.363,-11.19 -44.025,6.057c-5.442,20.145 51.992,50.241 49.608,76.45Zm561.55,85.453l-506.342,0l0,-321.087l506.342,-0l0,321.087Z" style="fill:#fff;"/><path d="M158.004,221.645c-0,21.423 14.304,39.11 32.942,42.201l0,-84.401c-18.638,3.094 -32.942,20.778 -32.942,42.2Z" style="fill:#fff;"/><path d="M825.325,131.599l155.404,-0c10.404,-0 18.838,-8.402 18.838,-18.771c-0,-10.369 -8.438,-18.771 -18.838,-18.771l-155.404,0c-10.4,0 -18.833,8.402 -18.833,18.771c-0,10.369 8.433,18.771 18.833,18.771Zm147.675,47.196c0,-10.368 -8.437,-18.77 -18.837,-18.77l-155.405,-0c-10.4,-0 -18.833,8.402 -18.833,18.77c-0,10.373 8.438,18.772 18.833,18.772l155.404,-0c10.401,-0 18.838,-8.399 18.838,-18.772Zm8.379,46.886l-155.404,-0c-10.404,-0 -18.837,8.402 -18.837,18.771c-0,10.368 8.437,18.767 18.837,18.767l155.404,0c10.4,0 18.833,-8.399 18.833,-18.767c0,-10.369 -8.433,-18.771 -18.833,-18.771Zm251.004,-40.666c0.813,-2.015 1.234,-4.165 1.242,-6.337c0,-10.368 -9.325,-18.77 -20.825,-18.77l-155.229,-0l-0,-28.668l136.879,0c10.404,0 18.838,-8.402 18.838,-18.771c-0,-10.369 -8.438,-18.771 -18.838,-18.771l-155.404,-0c-4.675,0.001 -9.179,1.748 -12.633,4.9c-3.45,3.152 -5.605,7.482 -6.03,12.139c-0.204,0.441 -0.32,0.92 -0.333,1.406l0,66.089c0,0.175 0.096,0.34 0.121,0.516c0.042,10.336 9.346,18.697 20.817,18.697l148.608,0l-8.221,27.873l-141.683,0c-10.404,0 -18.838,8.399 -18.838,18.771c0,10.365 8.438,18.764 18.838,18.764l155.404,-0c3.75,0.001 7.421,-1.12 10.529,-3.22c3.113,-2.1 5.525,-5.084 6.929,-8.567c0.317,-0.41 0.592,-0.838 0.738,-1.326l19.091,-64.725Z" style="fill:#fff;"/></g></svg>