<?xml version="1.0" encoding="UTF-8" standalone="no"?><!DOCTYPE svg PUBLIC "-//W3C//DTD SVG 1.1//EN" "http://www.w3.org/Graphics/SVG/1.1/DTD/svg11.dtd"><svg width="100%" height="100%" viewBox="0 0 4167 1688" version="1.1" xmlns="http://www.w3.org/2000/svg" xmlns:xlink="http://www.w3.org/1999/xlink" xml:space="preserve" xmlns:serif="http://www.serif.com/" style="fill-rule:evenodd;clip-rule:evenodd;stroke-linejoin:round;stroke-miterlimit:2;"><path id="path472" d="M4062.55,-0.001c-55.787,-0 -102.072,46.898 -102.072,102.583c0,56.093 46.285,102.991 102.072,102.991c60.181,0 104.116,-46.898 104.116,-102.991c-0,-55.685 -43.935,-102.583 -104.116,-102.583Zm0,22.171c46.898,0 81.842,36.477 81.842,80.412c-0,44.752 -34.944,78.265 -81.842,78.265c-41.891,0 -77.039,-33.513 -77.039,-78.265c-0,-43.935 35.148,-80.412 77.039,-80.412Zm-38.213,30.142l-0,97.985l24.317,-0l0,-37.294l13.896,0c17.574,0 19.515,3.368 22.581,23.092c-0,7.046 -0,11.239 1.536,14.202l22.785,-0l0,-14.607c-2.15,-14.713 -4.291,-23.5 -8.582,-27.689l-6.54,-5.419l6.54,-0.818c6.441,-9.706 8.582,-12.159 8.582,-21.354c0,-19.72 -15.122,-28.098 -37.804,-28.098l-47.311,-0Zm24.317,16.756l18.903,0c12.567,0 17.574,5.82 17.574,14.611c-0,7.561 -5.003,9.298 -19.72,9.298l-16.757,0l0,-23.909" style="fill:#fff;"/><path id="path476" d="M2677.38,1528.01c-38.213,-14.202 -79.287,-14.202 -111.779,-14.202l0,110.45c30.04,0 78.164,1.741 123.836,16.655c49.35,14.202 147.028,46.183 323.585,46.183c407.267,-0 687.02,-117.194 687.02,-309.69c-0,-98.088 -149.89,-193.416 -263.814,-292.014c-31.061,-32.696 -57.013,-59.875 -44.037,-93.796c12.976,-52.314 137.016,-59.875 238.168,-52.314l14.815,-69.887c-133.643,-40.256 -275.155,-62.428 -424.84,-62.428c-376.716,-0 -615.498,107.181 -615.498,261.259c0,115.764 141.614,200.262 286.395,317.456c42.811,45.161 42.811,65.187 29.835,107.078c-21.559,61.1 -155.407,61.1 -243.686,35.25Zm-990.988,-890.959l647.274,-292.116l-2.15,478.788l172.164,0l-0,151.218l-172.164,0l0,506.989c0,22.58 39.848,46.08 71.624,50.269c50.27,4.087 100.54,-20.23 162.457,-20.23l0,112.289c-37.6,0 -74.076,1.741 -126.389,13.487c-111.37,28.405 -244.401,38.316 -368.747,38.316c-193.416,-0 -390.612,-81.127 -390.612,-227.644l-0,-473.476l-200.67,0l-0,-151.218l207.209,0l0,-186.672l0.004,-0Zm-862.759,-401.034l-0,626.328c-93.796,-42.3 -157.042,-49.043 -259.318,-48.635c-279.856,10.013 -565.024,156.94 -564.309,432.197c0,267.901 252.882,447.013 529.978,441.189c118.829,-4.292 188.614,-11.035 293.649,-62.838l-0,51.803l655.55,-0l-0,-1440.04l-655.55,0Zm-0,772.744l-0,490.743c-116.99,-35.148 -179.418,-133.133 -177.477,-253.597c3.777,-114.741 67.742,-204.45 177.477,-237.146" style="fill:#fff;"/></svg>