<?xml version="1.0" encoding="UTF-8" standalone="no"?><!DOCTYPE svg PUBLIC "-//W3C//DTD SVG 1.1//EN" "http://www.w3.org/Graphics/SVG/1.1/DTD/svg11.dtd"><svg width="100%" height="100%" viewBox="0 0 5313 1480" version="1.1" xmlns="http://www.w3.org/2000/svg" xmlns:xlink="http://www.w3.org/1999/xlink" xml:space="preserve" xmlns:serif="http://www.serif.com/" style="fill-rule:evenodd;clip-rule:evenodd;stroke-linejoin:round;stroke-miterlimit:2;"><g><path d="M0,0.233l0,1475.23l5312.5,-0l0,-1475.23l-5312.5,0Zm2904.18,1044.75c-7.775,85.463 -113.941,167.842 -330.937,190.354c-266.925,27.667 -446.404,-36.795 -497.446,-58.329c-40.104,9.521 -185.225,42.684 -314.412,55.229c-151.613,14.725 -185.913,9.829 -269.534,-42.591c-83.621,-52.425 -83.729,-174.313 -83.729,-174.313l0.075,0.063l0,-300.442l-132.179,-0l-0,526.5l-480.413,-0l0,-31.908c-62.5,29.895 -136.041,47.17 -214.796,47.17c-226.708,0 -410.516,-142.904 -410.516,-319.212c-0,-176.279 183.791,-319.2 410.516,-319.2c78.755,-0 152.296,17.275 214.796,47.171l0,-497.367l480.413,0l-0,447.646l132.179,-0l0,-147.525l495.671,-211.104l-0,358.629l121.996,-0l-0,99.2l-121.996,-0l-0,446.687c85.712,2.609 140.296,-8.229 164.496,-14.912l2.187,-7.554c206.721,65.075 283.388,0.016 281.442,-50.496c-3.592,-93.171 -296.979,-203.933 -232.9,-314.638c70.021,-121.016 289.187,-169.941 356.146,-175.775c169.462,-14.741 354.254,19.413 416.354,76.717c-9.721,16.513 -10.675,26.221 -10.675,26.221c-0,-0 -164.013,-46.625 -183.438,25.237c-22.675,83.938 216.634,209.338 206.7,318.542Zm2339.79,356.054l-2109.76,0l-0,-1337.86l2109.76,-0l0,1337.86Z" style="fill:#e7e7e7;"/><path d="M658.35,923.521c0,89.262 59.6,162.958 137.258,175.837l0,-351.671c-77.658,12.892 -137.258,86.575 -137.258,175.834Z" style="fill:#e7e7e7;"/><path d="M3438.85,548.329l647.517,0c43.35,0 78.492,-35.008 78.492,-78.212c-0.001,-43.205 -35.159,-78.213 -78.492,-78.213l-647.517,0c-43.333,0 -78.471,35.008 -78.471,78.213c0,43.204 35.138,78.212 78.471,78.212Zm615.313,196.65c-0,-43.2 -35.155,-78.208 -78.488,-78.208l-647.521,-0c-43.333,-0 -78.47,35.008 -78.47,78.208c-0.001,43.221 35.158,78.217 78.47,78.217l647.517,-0c43.338,-0 78.492,-34.996 78.492,-78.217Zm34.912,195.358l-647.516,0c-43.35,0 -78.488,35.009 -78.488,78.213c0,43.2 35.154,78.196 78.488,78.196l647.516,-0c43.334,-0 78.471,-34.996 78.471,-78.196c0,-43.204 -35.137,-78.212 -78.471,-78.212Zm1045.85,-169.442c3.388,-8.396 5.142,-17.354 5.175,-26.404c0,-43.2 -38.854,-78.209 -86.771,-78.209l-646.787,0l-0,-119.45l570.329,0c43.35,0 78.492,-35.008 78.492,-78.212c-0,-43.204 -35.159,-78.213 -78.492,-78.213l-647.517,0c-19.479,0.005 -38.246,7.284 -52.637,20.417c-14.375,13.133 -23.354,31.175 -25.125,50.579c-0.85,1.838 -1.334,3.834 -1.388,5.859l0,275.37c0,0.73 0.4,1.417 0.504,2.15c0.175,43.067 38.942,77.905 86.738,77.905l619.2,-0l-34.254,116.137l-590.346,0c-43.35,0 -78.492,34.996 -78.492,78.212c0,43.188 35.159,78.184 78.492,78.184l647.517,-0c15.625,0.004 30.92,-4.667 43.87,-13.417c12.971,-8.75 23.021,-21.183 28.871,-35.696c1.321,-1.708 2.467,-3.491 3.075,-5.525l79.546,-269.687Z" style="fill:#e7e7e7;"/></g></svg>