<?xml version="1.0" encoding="UTF-8" standalone="no"?><!DOCTYPE svg PUBLIC "-//W3C//DTD SVG 1.1//EN" "http://www.w3.org/Graphics/SVG/1.1/DTD/svg11.dtd"><svg width="100%" height="100%" viewBox="0 0 1446 275" version="1.1" xmlns="http://www.w3.org/2000/svg" xmlns:xlink="http://www.w3.org/1999/xlink" xml:space="preserve" xmlns:serif="http://www.serif.com/" style="fill-rule:evenodd;clip-rule:evenodd;stroke-linejoin:round;stroke-miterlimit:2;"><g><path d="M156.263,59.533c-17.676,0.125 -37.608,-0.828 -46.28,16.47l-3.216,11.215c-5.464,52.697 17.274,118.739 -34.872,150.393c-20.699,11.625 -45.957,12.035 -71.895,11.214l-0,-57.504c17.266,0.078 36.179,2.175 45.191,-15.587l3.2,-12.236l0.889,-94.685c2.055,-20.997 13.927,-38.636 30.861,-52.513c21.579,-13.938 48.066,-15.858 76.122,-14.503l0,57.736Zm182.697,-5.208c10.24,22.429 7.504,50.182 7.296,76.233c-0.192,42.869 -5.596,86.567 -45.184,108.91c-36.318,15.936 -82.212,8.483 -124.257,10.519l-0,-169.952l58.515,-0l-0.548,109.398c14.669,0.812 32.77,5.185 43.761,-6.579c5.997,-5.124 7.636,-11.957 8.053,-19.341l0,-80.258c-1.77,-8.746 -7.991,-16.485 -16.316,-20.572c-29.833,-3.831 -62.403,-1.37 -93.465,-1.935l-0,-58.928c59.798,3.63 136.338,-15.913 162.145,52.505Zm121.311,-51.546c30.112,1.719 58.658,26.261 69.987,53.736c10.85,34.866 4.709,78.076 5.125,116.022c-2.737,28.52 -21.721,54.757 -47.387,69.122c-34.138,12.514 -94.687,6.284 -121.104,8.328l0.88,-169.944l57.486,-0l0,110.21l2.188,1.904c17.275,0 36.929,2.601 46.283,-14.419c7.033,-29.673 5.879,-65.213 2.946,-96.457c-2.121,-7.654 -8.471,-16.283 -16.404,-18.59c-29.563,-3.831 -61.652,-1.37 -92.506,-1.935l-0,-57.969l92.506,-0.008Zm240.516,57.969c-17.333,-0.325 -36.387,-2.461 -45.399,15.262l-2.996,9.242c-7.863,57.759 19.854,140.881 -53.392,160.369c-17.275,4.582 -36.396,4.582 -55.442,4.366l0.892,-57.838c18.371,1.363 37.679,0.349 46.225,-17.367c8.188,-41.012 -3.763,-90.374 10.304,-128.731c11.888,-26.794 39.517,-40.88 66.629,-43.272l33.179,0l0,57.969Zm42.613,95.382l7.775,-0c11.412,-0 16.258,1.014 20.479,4.233c6.763,5.41 9.979,16.184 9.979,34.72c0,18.536 -2.596,30.516 -7.921,37.219c-3.487,4.427 -9.362,6.215 -19.383,6.075l-10.929,0l0,-82.247Zm-12.563,-10.332l0,103.035l26.342,0c13.117,0 20.15,-2.461 26.354,-9.914c3.079,-3.429 5.388,-7.786 6.959,-12.306c2.533,-8.769 3.97,-20.03 3.97,-32.134c0,-22.089 -4.649,-35.339 -14.745,-43.132c-5.95,-3.901 -13.1,-5.549 -29.346,-5.549l-19.534,-0Zm74.817,-0l0,14.372l11.896,-0l0,-14.372l-11.896,-0Zm0,25.509l0,77.534l11.896,0l0,-77.534l-11.896,0Zm33.121,37.861c0,-21.252 4.317,-29.518 14.808,-29.518c10.246,0 14.667,8.676 14.667,28.706c-0,20.997 -4.575,30.153 -15.279,30.153c-9.971,-0 -14.196,-8.405 -14.196,-29.341Zm-10.175,46.91c0.967,12.592 8.937,18.922 23.7,18.922c7.017,0 13.175,-1.694 17.737,-4.914c7.367,-5.456 9.421,-12.228 9.567,-29.534l-0.158,-2.933l-0,-66.312l-10.988,0l0,2.33c0,3.204 0,4.504 0.267,6.911c-3.738,-7.26 -9.421,-10.882 -17.404,-10.882c-16.725,0 -24.925,13.196 -24.925,40.346c-0,25.633 8.121,38.488 23.821,38.488c8,0 12.908,-3.01 18.233,-11.005c-0.542,1.78 -0.542,3.065 -0.542,5.278l0,5.65c0,11.485 -5.041,17.306 -15.366,17.306c-7.425,-0 -11.609,-3.22 -12.484,-9.644l-11.458,-0.007Zm64.846,-110.28l-0,14.372l11.958,-0l0,-14.372l-11.958,-0Zm-0,25.509l-0,77.534l11.958,0l0,-77.534l-11.958,0Zm19.671,0l-0,9.233l11.2,0l-0,50.307c-0,15.115 3.816,18.807 17.345,18.807c3.338,-0 4.921,-0.078 8.313,-0.411l-0,-9.782c-1.679,0.174 -3.363,0.265 -5.054,0.271c-7.096,-0 -8.534,-1.587 -8.584,-10.054l0,-49.145l13.367,-0l0,-9.234l-13.367,0l0,-21.523l-12.02,-0l-0,21.531l-11.2,0Zm79.808,35.276l-0.271,0l0,14.83c0,12.576 -5.733,19.41 -15.85,19.41c-7.233,-0 -11.121,-4.443 -11.121,-12.561c0,-8.63 3.004,-12.244 12.367,-15.255l5.933,-1.857c4.646,-1.417 7.242,-2.794 8.942,-4.567Zm-37.346,-11.833l11.4,-0l0,-0.48c0,-11.006 4.029,-15.642 13.317,-15.642c8.533,0 12.366,4.11 12.366,12.848c0,7.863 -0.887,8.482 -16.104,12.987c-9.571,2.74 -11.612,3.506 -15.033,5.681c-5.242,3.676 -8.188,10.262 -8.188,18.652c0,13.969 7.292,21.755 20.134,21.755c8.804,0 15.158,-3.297 19.804,-10.881c0.333,6.849 4.167,9.991 11.8,9.991c2.675,0 3.625,-0.077 6.225,-1.161l-0,-8.343c-1.163,0.41 -1.588,0.681 -2.6,0.681c-3.546,0 -4.375,-1.981 -4.375,-8.738l0,-39.935c0,-8.885 -1.142,-13.049 -5.254,-16.942c-4.088,-3.622 -10.788,-5.549 -18.433,-5.549c-9.63,-0 -16.588,2.74 -20.955,8.42c-3.058,3.824 -4.104,7.848 -4.104,15.719l0,0.937Zm61.734,-48.952l-0,103.035l11.879,0l-0,-103.035l-11.879,-0Zm44.3,70.839l-0,2.059c-0,21.856 9.754,32.119 30.725,32.119c20.758,-0 32.42,-10.673 32.42,-29.813c0,-14.419 -6.354,-22.777 -21.508,-27.754l-9.825,-3.49c-12.483,-4.094 -17.267,-9.497 -17.267,-19.21c0,-10.796 6.067,-16.608 16.934,-16.608c11.071,-0 15.762,5.394 16.046,18.18l12.483,-0l-0,-0.953c-0,-17.901 -9.9,-27.552 -28.746,-27.552c-18.779,0 -29.492,10.533 -29.492,28.505c0,14.163 6.9,22.49 23.063,27.963l10.25,3.475c10.779,3.629 15.362,9.163 15.362,18.806c0,11.764 -7.25,18.459 -19.458,18.459c-12.367,-0 -18.217,-7.244 -18.217,-22.553l0,-1.633l-12.77,0Zm83.15,-6.3c-0,-22.475 4.512,-31.716 15.504,-31.716c10.579,-0 14.666,8.614 14.666,30.958c0,22.506 -4.637,31.654 -15.154,31.654c-10.775,0 -15.016,-8.885 -15.016,-30.896Zm-12.355,-0.333c0,28.845 7.855,40.54 27.371,40.54c18.988,-0 27.446,-12.438 27.446,-40.54c0,-28.102 -8.046,-40.346 -26.767,-40.346c-19.245,0 -28.05,12.592 -28.05,40.346Zm65.746,-38.697l0,53.813c0,17.839 6.067,25.424 19.863,25.424c8.2,-0 14.746,-3.429 19.862,-11.083l-0.071,1.509l-0.283,3.413l-0,4.442l11.2,0l0,-77.518l-11.804,-0l-0,53.666c-0,9.163 -6.354,15.858 -15.442,15.858c-8.187,-0 -11.454,-4.714 -11.454,-16.4l0,-53.116l-11.871,-0.008Zm75.292,-0l-10.975,-0l-0,77.534l11.804,-0l0,-52.18c0,-10.734 5.721,-17.003 15.017,-17.003c9.345,-0 11.454,3.614 11.67,20.3l0,48.883l12.017,-0l0,-55.036c0,-8.691 -1.087,-12.925 -4.087,-17.251c-3.075,-4.504 -8.817,-7.229 -15.234,-7.229c-8.396,-0.089 -16.204,4.313 -20.483,11.548c0.271,-2.253 0.271,-3.143 0.271,-5.325l-0,-4.241Zm57.966,38.697c0,-22.142 4.03,-30.354 14.813,-30.354c4.846,-0 8.471,1.826 10.733,5.456c3.063,4.52 4.292,12.244 4.292,24.681c-0,21.741 -4.708,31.036 -15.35,31.036c-10.45,-0 -14.488,-8.475 -14.488,-30.819Zm41.167,-64.207l-12.021,0l0,28.575c0,3.358 0.142,3.707 0.271,5.41c-3.058,-6.579 -9.279,-10.464 -17.267,-10.464c-16.529,-0 -24.437,13.32 -24.437,40.469c-0,27.832 7.775,40.757 24.092,40.757c9.295,-0 14.283,-3.297 18.72,-12.035c-0.204,2.314 -0.412,3.142 -0.204,4.442l0,5.882l10.85,0l-0.004,-103.036Zm11.554,79.23l0,2.46l5.859,0l-0,20.665l3.008,0l-0,-20.665l5.6,0l-0,-2.46l-14.467,-0Zm16.779,-0l0,23.125l2.738,0l-0,-14.844c-0,-1.858 -0.204,-4.644 -0.271,-6.424l0.271,0l-0,0.41l0.758,4.033l0.95,3.343l0.142,0.619l3.546,12.864l2.458,-0l3.425,-12.516l0.179,-1.648c0.684,-2.461 1.492,-5.727 1.779,-7.105l0.071,0l0,0.41l-0.071,1.571l0,1.858l-0.07,1.207l-0,16.222l2.737,0l0,-23.125l-4.575,-0l-3.008,11.702l-0.138,0.758c-0.891,3.413 -1.583,6.486 -1.583,7.995c-0,-0.743 -0,-1.091 -0.183,-1.71c-0.392,-2.675 -0.963,-5.32 -1.709,-7.918l-0.471,-1.857l-2.404,-8.962l-4.571,-0.008Zm-673.35,-152.167l0,2.121c0,21.879 9.692,31.987 30.721,31.987c20.763,0 32.425,-10.51 32.425,-29.588c0,-14.426 -6.416,-22.7 -21.512,-27.769l-9.9,-3.552c-12.404,-4.094 -17.196,-9.288 -17.196,-19.21c-0,-10.734 6.004,-16.539 17.058,-16.539c11.004,0 15.442,5.193 15.85,18.25l12.621,-0l0,-1.084c0,-17.785 -10.021,-27.475 -28.804,-27.475c-18.721,0 -29.492,10.518 -29.492,28.559c0,14.225 6.9,22.498 23.154,28.102l10.155,3.405c10.783,3.498 15.295,9.11 15.295,18.807c0,11.493 -7.17,18.397 -19.32,18.397c-12.421,-0 -18.217,-7.593 -18.217,-22.569l-0,-1.85l-12.838,0.008Zm84.717,-6.013c0,-22.847 4.438,-31.933 15.304,-31.933c10.779,-0 14.729,8.621 14.729,30.966c0,22.359 -4.495,31.793 -15.016,31.793c-10.713,0.008 -15.017,-8.877 -15.017,-30.826Zm-12.421,-0.41c0,28.845 7.984,40.338 27.446,40.338c18.85,-0 27.458,-12.383 27.458,-40.338c0,-28.234 -8.058,-40.54 -26.841,-40.54c-19.192,-0.008 -28.063,12.716 -28.063,40.54Zm78.921,-38.767l-10.992,-0l0,77.395l11.817,-0l0,-52.11c0,-10.658 5.813,-17.221 15.017,-17.221c9.554,0 11.533,4.025 11.75,20.711l-0,48.612l11.862,-0l0,-55.036c0,-8.536 -1.025,-12.731 -3.971,-17.29c-3.062,-4.179 -8.804,-6.841 -15.204,-6.841c-8.679,-0 -16.262,4.303 -20.35,11.408c0.071,-2.384 0.071,-3.127 0.071,-5.449l0,-4.179Zm44.508,-0l22.463,78.687l-0,1.169c-3.063,11.067 -5.604,13.606 -12.15,13.606c-1.3,-0 -2.946,-0 -4.988,-0.148l-1.566,-0l-0,9.837l2.112,0.164c1.9,0.262 3.742,0.262 5.388,0.262c3.058,0.083 6.112,-0.359 9.025,-1.307c6.208,-2.462 9.15,-6.502 12.7,-19.264l2.441,-8.274l1.105,-3.545l18.629,-71.179l-12.621,-0l-10.792,47.791l-0.479,2.113c-1.167,5.231 -2.008,10.53 -2.521,15.866c-0.621,-5.331 -1.625,-10.61 -3.004,-15.796l-0.483,-1.927l-12.209,-48.055l-13.05,-0Zm106.367,-15.317l7.713,0c11.337,0 16.183,1.169 20.545,4.381c6.775,5.185 10.038,16.005 10.038,34.804c-0,18.536 -2.579,30.478 -7.983,37.049c-3.625,4.381 -9.284,6.292 -19.321,6.23l-10.992,0l0,-82.464Zm-12.637,-10.108l-0,102.82l26.416,-0c13.117,-0 20.213,-2.198 26.434,-9.636c2.925,-3.792 5.25,-8.014 6.887,-12.515c2.675,-8.815 4.025,-19.96 4.025,-32.127c0,-22.088 -4.633,-35.346 -14.867,-42.93c-5.954,-4.458 -13.05,-5.612 -29.304,-5.612l-19.591,0Zm71.208,25.425l22.6,78.687l-0,1.169c-3.125,11.067 -5.658,13.606 -12.354,13.606c-1.296,-0 -2.867,-0 -4.784,-0.148l-1.691,-0l-0,9.837l2.041,0.164c1.9,0.262 3.896,0.262 5.463,0.262c4.304,0 5.992,-0.425 9.15,-1.307c6.146,-2.462 9.012,-6.502 12.483,-19.264l2.613,-8.274l1.016,-3.545l18.642,-71.179l-12.637,-0l-10.792,47.791l-0.471,2.113c-1.212,5.22 -2.033,10.523 -2.458,15.866c-0.775,-5.311 -1.804,-10.582 -3.075,-15.796l-0.542,-1.927l-12.287,-48.055l-12.917,-0Zm74.767,-0l-10.925,-0l-0,77.395l11.8,-0l-0,-52.11c-0,-10.658 5.675,-17.221 14.962,-17.221c9.438,0 11.546,4.025 11.75,20.711l0,48.612l11.817,-0l-0,-55.036c-0,-8.536 -0.967,-12.731 -3.896,-17.29c-3.138,-4.179 -8.821,-6.841 -15.367,-6.841c-8.679,-0 -16.121,4.303 -20.35,11.408c0.204,-2.384 0.204,-3.127 0.204,-5.449l0.005,-4.179Zm86.695,35.276l-0.179,0l0,6.502l-0.071,2.6l0,5.65c0,12.391 -5.541,19.573 -15.854,19.573c-7.233,-0 -11.004,-4.659 -11.004,-12.871c0,-8.397 2.883,-12.035 12.242,-14.96l5.875,-1.842c4.771,-1.502 7.362,-2.941 8.991,-4.652Zm-37.345,-11.826l11.416,0l0,-0.627c0,-10.734 4.088,-15.579 13.317,-15.579c8.471,-0 12.367,4.241 12.367,12.917c-0,8.072 -0.775,8.614 -16.121,13.072c-9.554,2.662 -11.471,3.351 -14.888,5.588c-5.196,3.839 -8.316,10.324 -8.316,18.753c-0,13.869 7.366,21.523 20.062,21.523c9.092,0 15.296,-3.219 19.804,-10.665c0.409,7.028 4.288,9.845 12.017,9.845c2.583,-0 3.608,-0.209 6.054,-0.968l0,-8.529c-1.075,0.403 -1.492,0.821 -2.446,0.821c-3.546,-0 -4.558,-1.997 -4.558,-9.032l-0,-39.642c-0,-9.032 -1.175,-13.273 -5.342,-17.034c-3.879,-3.475 -10.504,-5.666 -18.279,-5.666c-9.567,0 -16.662,2.802 -20.887,8.405c-3.08,3.893 -4.184,8.003 -4.184,15.727l-0.016,1.091Zm59.729,-23.45l0.204,77.395l11.804,-0l0,-51.476c0,-11.771 4.8,-17.847 14.554,-17.847c6.413,0 10.171,4.179 10.517,11.083l-0,58.24l11.879,-0l0,-51.623c0,-11.477 5.054,-17.7 14.617,-17.7c7.983,0 10.171,3.491 10.296,15.44l-0,53.883l11.954,-0l-0,-53.527c-0,-12.716 -0.95,-16.825 -5.054,-20.788c-3.138,-3.08 -8.2,-4.86 -13.996,-4.86c-8.409,-0 -14.417,3.769 -19.325,11.965c-2.929,-8.196 -8.392,-11.965 -17.404,-11.965c-8.255,-0 -14.617,3.769 -19.05,10.935c0.137,-1.911 0.345,-4.094 0.137,-7.112l0,-2.043l-11.133,-0Zm99.208,-25.425l0,14.079l11.75,-0l0,-14.079l-11.75,0Zm0,25.425l0,77.464l11.75,0l0,-77.464l-11.75,-0Zm62.683,50.655c-0.204,11.771 -4.845,18.946 -13.045,18.946c-10.855,-0 -14.95,-9.032 -14.95,-30.973c-0,-21.609 4.5,-30.556 14.95,-30.556c7.85,0 11.879,5.185 12.829,15.378l-0,0.751l12.087,-0c-0.616,-16.547 -9.629,-25.974 -24.579,-25.974c-18.912,0 -27.575,12.933 -27.575,40.602c0,27.893 8.2,40.276 26.825,40.276c16.033,0 24.713,-9.914 25.329,-28.442l-11.871,-0.008Z" style="fill:#fff;"/></g></svg>