<?xml version="1.0" encoding="UTF-8" standalone="no"?><!DOCTYPE svg PUBLIC "-//W3C//DTD SVG 1.1//EN" "http://www.w3.org/Graphics/SVG/1.1/DTD/svg11.dtd"><svg width="100%" height="100%" viewBox="0 0 1534 325" version="1.1" xmlns="http://www.w3.org/2000/svg" xmlns:xlink="http://www.w3.org/1999/xlink" xml:space="preserve" xmlns:serif="http://www.serif.com/" style="fill-rule:evenodd;clip-rule:evenodd;stroke-linejoin:round;stroke-miterlimit:2;"><g><path d="M1193.82,4.37c-9.025,-0.428 -17.642,2.768 -25.063,7.137c-16.212,9.217 -23.954,34.58 -23.954,55.324c0,31.522 9.267,69.932 44.034,69.932c33.975,-0 48.658,-27.655 48.658,-70.683l-42.483,5.371l-0,15.355c7.337,-1.774 14.837,-2.792 22.383,-3.038c0.775,27.652 -15.442,38.409 -29.35,36.1c-13.138,-3.06 -23.179,-20.747 -24.729,-38.411c-1.529,-17.686 0.796,-36.121 4.646,-44.568c7.741,-13.836 19.329,-16.145 27.045,-14.605c8.496,2.31 17.009,9.217 17.784,16.895l16.212,-9.987c-11.296,-17.731 -23.579,-24.271 -35.183,-24.822Zm-56.734,11.757l-15.458,8.448l0,75.299l-31.675,-64.543l-15.454,5.388l-0,95.275l15.454,0l0,-68.391l30.917,68.391l16.216,0l0.001,-119.867Zm-68.763,26.133l-15.458,4.596l-0,89.135l15.458,0l0,-93.731Zm-42.258,15.683c-8.217,-0.38 -18.859,2.469 -31.896,7.369l-0,70.679c8.492,0 15.437,-0.768 22.404,-2.308c17.758,-5.368 30.121,-18.434 30.121,-41.488c-0,-24.018 -6.938,-33.62 -20.629,-34.252Zm-4.563,14.28c5.988,0.156 8.979,5.372 8.979,21.512c-0.016,13.836 -6.171,21.493 -13.908,24.572c-2.325,0.769 -4.646,0.771 -6.946,0.771l0,-43.778c4.779,-1.852 8.742,-3.159 11.875,-3.077Z" style="fill:#fff;fill-rule:nonzero;"/><path d="M971.783,69.14c-7.72,-0 -17.783,1.542 -29.35,3.83l0,63.772l14.684,0l-0,-26.132c1.55,-0 3.1,-0.77 4.646,-0c6.945,-0 9.266,3.849 10.791,5.388c2.325,5.389 3.1,11.527 4.646,20.744l12.363,0c-0.038,-9.967 -2.363,-25.344 -12.384,-29.963c10.042,-3.829 13.138,-9.216 13.138,-21.512c-0,-11.527 -8.492,-16.127 -18.534,-16.127Zm-3.825,12.004c4.046,-0.059 6.88,1.175 6.88,5.663c0.795,7.697 -3.075,11.526 -13.117,12.296c-1.546,-0 -3.867,0.001 -6.192,-0.769l0,-15.358c4.346,-0.722 8.859,-1.78 12.429,-1.832Z" style="fill:#fff;fill-rule:nonzero;"/><path d="M785.146,90.345c-7.208,-0.003 -15.384,1.897 -21.188,2.619l0,43.799l11.588,-0l-0,-18.456c1.55,-0 3.079,-0.769 4.646,-0.769c6.946,3.059 8.491,15.355 9.266,19.204l11.588,0c-0.775,-7.678 -3.096,-19.183 -10.042,-20.723c7.742,-1.539 11.592,-4.619 10.042,-13.836c-0.808,-9.385 -7.733,-11.834 -15.9,-11.838Zm-0.563,9.312c3.721,-0.027 6.4,0.948 6.4,4.834c0.021,3.849 -3.845,5.368 -10.791,5.368l-5.417,-0l0,-9.216c3.383,-0.337 6.913,-0.965 9.808,-0.986Z" style="fill:#fff;fill-rule:nonzero;"/><path d="M672.058,85.267l-18.554,50.725l11.588,-0l3.85,-11.525l8.512,-0l10.796,0.768l3.117,10.757l13.116,-0l-18.533,-49.936l-13.892,-0.789Zm6.171,13.836l6.171,15.376l-6.946,0l-3.866,-0.769l4.641,-14.607Z" style="fill:#fff;fill-rule:nonzero;"/><path d="M607.15,76.819l0,59.172l11.567,0l-0,-21.512c1.55,-0.769 3.096,0 3.87,0c6.171,0 8.492,2.308 8.492,3.077c6.967,5.368 6.175,18.435 6.175,18.435l10.817,0c0.037,-9.216 -3.058,-23.052 -11.571,-24.592c8.492,-1.539 11.588,-6.16 11.588,-16.127c-0,-18.455 -22.405,-16.124 -40.938,-18.453Zm11.608,10.756c12.363,-0 17.763,5.391 17.763,10.759c-0.021,4.619 -5.417,8.447 -13.892,6.908l-3.871,0l0,-17.667Z" style="fill:#fff;fill-rule:nonzero;"/><path d="M875.204,117.558c3.075,0.769 7.721,1.539 10.042,2.288c-3.871,13.067 -11.588,17.686 -22.404,17.686c-22.425,-0 -29.35,-28.422 -17.009,-45.339c7.721,-10.756 27.804,-17.664 37.842,2.31l-8.471,5.368c-7.721,-9.987 -20.083,-1.539 -21.629,6.908c-1.55,5.389 -5.421,17.665 8.492,21.514c6.516,0.717 12.387,-3.958 13.108,-10.44c0.013,-0.098 0.017,-0.197 0.029,-0.296Zm-68.741,18.436l-0,-48.418l29.35,-3.059l-0,10.757l-16.988,2.29l0,8.447l15.442,-0.77l-0,9.238l-15.442,0.749l0,10.008l17.763,0.769l-0,9.987l-30.126,0.001Zm-100.429,-1.54l0,-43.797l12.363,1.538l-0,32.272l22.404,-0l-0,9.987l-34.767,0Zm-132.854,1.54l0,-49.936l-13.912,-3.079l-0,-13.837l42.487,7.679l0,13.066l-15.442,-2.309l0,48.417l-13.133,-0.001Zm-28.575,-19.205l11.567,6.138c-19.308,28.423 -49.433,15.357 -56.396,-6.138c-3.85,-13.066 -6.171,-34.58 8.492,-46.856c17.779,-16.146 38.616,-11.527 46.354,6.138l-10.813,6.138c-6.191,-11.507 -18.533,-12.276 -26.275,-3.059c-7.695,9.987 -6.17,22.284 -5.395,29.192c1.545,15.356 20.083,23.803 32.466,8.447Z" style="fill:#fff;fill-rule:nonzero;"/><path d="M385.449,25.343l0,109.88l15.459,-0l0,-41.488c4.644,1.54 7.719,2.288 12.363,2.288c9.267,0.77 17.758,0.771 23.933,-3.828c7.738,-5.388 9.288,-11.526 10.042,-20.744c-0,-9.987 -5.4,-24.595 -16.217,-31.503c0,0 -16.211,-7.676 -21.627,-9.216l-23.953,-5.389Zm67.214,16.917l-0,92.963l42.487,-0l0,-14.605l-26.275,-2.311l0,-22.284l20.083,3.851l0,-12.299l-20.083,-5.367l0,-18.454l26.275,8.445l0,-15.356l-42.488,-14.583Zm-51.754,5.367c10.041,2.31 24.725,5.389 27.821,12.296c3.85,6.908 3.075,12.277 1.529,16.127c-2.321,5.389 -9.266,5.388 -16.987,3.849c-3.87,-0.77 -7.739,-1.539 -12.363,-3.849l0,-28.423Z" style="fill:#fff;fill-rule:nonzero;"/><path d="M334.471,0c-21.629,0 -37.068,13.837 -37.027,35.331c-0,22.284 15.438,33.02 34.766,37.639c18.534,3.849 27.804,7.7 27.804,26.904c0,13.836 -9.267,23.053 -23.177,23.053c-11.588,-0 -21.632,-8.448 -26.276,-20.744l-17.759,-2.309c3.849,23.824 19.307,38.408 45.56,38.408l0.512,-0c22.046,-0.135 39.81,-18.019 39.675,-39.948c-0,-24.594 -15.439,-38.431 -41.712,-42.259c-13.137,-2.31 -22.407,-6.91 -22.407,-19.976c0,-12.296 8.494,-20.744 20.083,-20.744c13.911,0 22.385,9.967 25.48,23.803l15.438,5.389l-0.776,-8.448c-1.546,-20.744 -19.328,-36.099 -40.184,-36.099Zm-37.066,146.75l0,178.251l933.124,-0l0,-178.251l-933.124,0Zm17.759,17.664l896.836,0l0,141.383l-896.836,0l0,-141.383Z" style="fill:#fff;fill-rule:nonzero;"/><path d="M361.519,199.745l0,79.899l44.809,-0c5.417,-0 13.91,-1.521 17.76,-4.62c9.266,-6.139 10.812,-16.896 10.812,-26.883l0,-18.433c0,-20.744 -10.812,-29.963 -30.915,-29.963l-42.466,0Zm19.329,15.376l20.837,0c13.911,0 13.908,8.448 13.908,19.204l0,15.377c-0.774,9.987 -4.641,14.604 -13.908,14.604l-20.837,0l-0,-49.185Z" style="fill:#fff;fill-rule:nonzero;"/><path d="M478.917,199.745c-32.425,0 -36.317,11.528 -36.317,40.72l0,6.907c0,26.903 10.817,32.272 36.317,32.272l1.546,-0c31.67,-0 37.066,-11.508 37.066,-40.719l0,-15.377c-1.525,-21.473 -20.058,-23.803 -37.066,-23.803l-1.546,0Zm-0.754,14.605l6.945,0c13.134,0 14.684,6.93 14.684,17.688l-0,12.296c-0,15.355 -3.85,19.972 -19.309,19.972c0,0.771 0,0 -0.775,0c-14.662,0 -17.762,-6.156 -17.762,-18.453l-0,-6.139c-0,-17.686 -2.317,-25.364 16.217,-25.364Z" style="fill:#fff;fill-rule:nonzero;"/><path d="M1126.25,199.745c-32.446,0 -36.317,11.528 -36.317,40.72l0,6.907c0,26.903 10.817,32.272 36.317,32.272l1.546,-0c31.671,-0 37.087,-11.508 37.087,-40.719l0,-15.377c-1.545,-21.473 -20.079,-23.803 -37.087,-23.803l-1.546,0Zm-0.796,14.605l6.946,0c13.133,0 14.684,6.93 14.684,17.688l0.016,12.296l0.004,-0c0,15.355 -3.87,19.972 -19.308,19.972c0,0.771 0,0 -0.775,0c-14.683,0 -17.779,-6.156 -17.779,-18.453l-0,-6.139c-0,-17.686 -2.321,-25.364 16.212,-25.364Z" style="fill:#fff;fill-rule:nonzero;"/><path d="M526.838,198.226l-0,80.667l54.058,-0l-0,-16.124l-35.542,0l0,-64.543l-18.516,-0Zm62.57,1.54l0,79.899l44.013,-0c17.758,-0 23.954,-6.141 23.954,-23.056c0,-9.987 -2.3,-16.125 -13.138,-17.664l0,-0.771c10.063,-2.309 11.588,-8.446 11.588,-18.433c0,-15.376 -8.496,-19.975 -22.404,-19.975l-44.013,-0Zm18.517,14.584l20.854,0c6.946,0 9.288,1.54 9.288,8.447c-0,9.218 -3.871,9.22 -13.138,9.22l-17.004,-0l0,-17.667Zm-0.004,30.752l20.083,0c7.717,0 10.813,0.772 10.813,9.22c0.021,9.986 -4.621,9.984 -13.113,9.984l-17.783,0l-0,-19.204Z" style="fill:#fff;fill-rule:nonzero;"/><path d="M700.638,248.932l-0,29.962l-18.559,-0l0,-29.962l-27.004,-50.707l19.288,0l16.987,33.041l17.779,-33.041l20.854,0l-29.346,50.707Zm99.638,-26.113c0,-9.238 -3.096,-10.756 -11.592,-10.756l-3.075,-0c-6.966,-0 -13.137,0.769 -13.137,9.216c-0,8.448 3.871,9.219 11.592,9.219c20.079,1.539 37.066,-0.771 37.066,23.823c0,6.138 -0.775,14.586 -6.171,18.435c-6.191,5.388 -15.437,6.139 -23.179,6.139l-5.416,-0c-21.63,-0 -32.446,-1.54 -32.446,-26.134l16.987,0c0,6.908 1.546,11.527 9.267,11.527l10.817,0c6.941,0 11.587,-0.77 11.587,-9.987c0,-6.928 -3.85,-7.698 -10.817,-8.448c-21.629,-1.539 -37.841,1.54 -37.841,-24.573c-0,-14.606 5.4,-20.744 20.083,-22.284c3.871,-0.77 8.513,-0.77 12.363,-0.77c17.779,-0 31.67,-0 31.67,22.284l0,2.31l-17.758,-0.001Zm61.038,56.075l-18.555,-0l0,-63.773l-21.629,0l0,-16.895l62.571,-0l0,16.895l-22.387,0l-0,63.773Zm43.262,-46.857l36.296,-0l-0,12.296l-36.296,-0l0,19.204l38.617,0l-0,15.356l-56.4,0l-0,-80.668l55.625,0l-0,15.356l-37.842,-0l0,18.456Z" style="fill:#fff;fill-rule:nonzero;"/><path d="M0,146.75l0,178.251l131.328,-0l-0,-178.251l-131.328,0Zm143.669,0l0,178.251l132.082,-0l0,-178.251l-132.082,0Zm1113.91,0l0,178.251l131.329,-0l0,-178.251l-131.329,0Zm143.671,0l0,178.251l132.083,-0l0,-178.251l-132.083,0Zm-80.308,20.762c14.687,0 29.35,4.62 37.841,11.528c7.721,6.908 13.913,18.434 13.913,31.5l-28.575,0c-0,-6.159 -3.846,-11.526 -6.963,-14.605c-4.625,-3.828 -11.575,-6.139 -18.537,-6.139c-6.946,0 -12.346,1.54 -15.442,4.62c-3.846,1.54 -5.396,6.908 -5.396,12.297c0,6.907 7.721,12.274 21.634,16.123c3.096,0 6.191,1.54 8.491,1.54c10.042,2.309 17.779,4.621 20.854,6.16c4.646,1.539 8.496,3.057 11.592,4.617c5.417,3.059 10.813,6.908 13.133,11.507c2.305,5.388 3.855,11.528 3.855,18.456c-0,13.067 -4.646,24.573 -13.917,30.732c-9.267,7.678 -23.946,12.275 -40.933,12.275c-16.988,0 -30.125,-4.618 -39.392,-12.275c-10.079,-7.738 -15.479,-19.264 -15.479,-33.85l28.575,-0c-0,7.677 3.096,13.835 7.716,17.664c5.4,3.079 13.138,4.62 21.63,4.62c6.945,-0 13.916,-1.521 16.991,-4.62c3.871,-2.29 6.188,-6.139 6.188,-11.507c-0,-8.448 -11.588,-15.373 -33.217,-19.972l-1.55,-1.54l-3.075,-0c-11.587,-1.52 -21.629,-5.369 -27.025,-8.448c-4.646,-3.059 -9.287,-7.68 -10.817,-12.279c-2.537,-5.553 -3.85,-11.583 -3.845,-17.684c-0,-12.297 3.845,-22.284 13.133,-29.192c8.492,-6.928 21.629,-11.528 38.617,-11.528Zm93.425,3.849l62.57,-0c13.909,-0 25.496,3.08 33.217,9.219c6.967,6.908 10.817,16.893 10.817,29.96c-0,8.448 -2.325,14.587 -5.4,19.975c-3.096,4.6 -9.267,9.968 -16.234,11.507c6.192,1.541 11.592,6.16 13.142,9.22c2.321,3.849 4.642,12.293 4.642,19.972l-0,16.895c-0,7.699 1.546,13.069 5.416,14.668l0,3.08l-31.67,-0c-0,-1.54 -1.546,-3.851 -1.546,-6.16c-0,-3.059 -0.775,-6.909 -0.775,-9.988l-0,-13.836c-0,-8.448 -2.325,-14.606 -4.646,-16.896c-3.096,-3.849 -7.737,-5.388 -14.683,-5.388l-27.804,-0l-0,52.247l-27.046,-0l-0,-134.475Zm-1386.55,3.062l18.534,-0c33.974,-0 61.795,27.651 61.795,60.692c-0,34.56 -27.821,62.234 -61.795,62.234l-18.534,0l-0,-122.926Zm201.594,-0l17.762,-0l0,122.926l-17.762,0c-33.993,0 -61.794,-27.674 -61.794,-62.234c-0,-33.041 27.801,-60.692 61.794,-60.692Zm1212,19.955l-0,36.12l30.125,-0c6.966,-0 12.366,-1.561 15.458,-4.62c3.096,-2.31 5.421,-6.91 5.421,-13.068c-0,-5.368 -2.325,-10.755 -4.646,-13.065c-3.871,-3.828 -8.496,-5.367 -13.913,-5.367l-32.446,-0Zm-412.475,4.617l0,79.898l57.146,-0l0,-15.355l-38.612,-0l-0,-18.436l36.291,0l0,-13.064l-36.291,-0l-0,-17.688l37.841,0l0.001,-15.355l-56.376,-0Z" style="fill:#fff;fill-rule:nonzero;"/><path d="M912.292,75.3c-13.138,-0 -25.5,13.065 -25.5,31.5c-0.775,17.665 10.816,31.503 24.729,31.503c14.662,0.77 26.25,-11.508 26.25,-31.503c0.775,-19.995 -10.021,-31.5 -25.479,-31.5Zm-0,13.068c6.946,-0 12.346,8.446 12.346,19.203c-0,9.217 -3.871,17.665 -13.117,18.436c-6.967,-0 -12.363,-8.448 -12.363,-18.436c0,-10.757 6.171,-19.203 13.134,-19.203Z" style="fill:#fff;fill-rule:nonzero;"/><path d="M951.679,199.745l0,79.899l17.763,-0l-0,-24.572l18.533,0c7.717,0 10.042,4.618 10.042,12.297l-0,12.275l18.533,-0l0,-16.127c0.017,-9.968 -3.846,-15.355 -13.887,-16.124c3.845,-1.54 6.945,-1.541 9.266,-4.62c6.192,-3.828 6.192,-11.506 6.192,-17.664c-0,-19.975 -8.492,-25.364 -27.821,-25.364l-38.621,0Zm17.763,15.397l18.533,0c10.042,0 10.817,3.059 10.817,12.297c0.016,8.427 -1.55,13.044 -10.817,13.044l-18.533,-0l-0,-25.341Z" style="fill:#fff;fill-rule:nonzero;"/></g></svg>