<?xml version="1.0" encoding="UTF-8" standalone="no"?><!DOCTYPE svg PUBLIC "-//W3C//DTD SVG 1.1//EN" "http://www.w3.org/Graphics/SVG/1.1/DTD/svg11.dtd"><svg width="100%" height="100%" viewBox="0 0 2217 492" version="1.1" xmlns="http://www.w3.org/2000/svg" xmlns:xlink="http://www.w3.org/1999/xlink" xml:space="preserve" xmlns:serif="http://www.serif.com/" style="fill-rule:evenodd;clip-rule:evenodd;stroke-linejoin:round;stroke-miterlimit:2;"><g><g id="layer1_00000137815275131647129320000001516431196680894379_"><path id="path416_00000111880055951759421990000013545806255568264891_" d="M96.125,451.5c54.458,0 98.583,-52.042 98.583,-116.292c0,-64.25 -44.166,-116.291 -98.583,-116.291l-49.292,-0l0,232.541l49.292,0l0,0.042Zm138.167,39.167l-236.625,-0l0.541,-316.042l236.625,0l-0.541,316.042Z" style="fill:#e7e7e7;fill-rule:nonzero;"/><path id="path420_00000093147549616157928650000017785026260046773950_" d="M384.292,218.75c-54.459,0 -98.584,52.25 -98.584,116.667c0,64.416 44.167,116.666 98.584,116.666l49.291,0l0,-233.333l-49.291,0Zm-138.167,-44.167l236.625,0l0,316.042l-236.625,0l0,-316.042Z" style="fill:#e7e7e7;fill-rule:nonzero;"/><path id="path444_00000021819674372893331580000009336614571845364618_" d="M2216.71,491.5l0,-316.125l-1695.46,0l0,315.792l1695.46,0.333Zm-1661.96,-24.625l0,-257.292l1629.71,-1.666l0,253l-1629.71,5.958Z" style="fill:#e7e7e7;fill-rule:nonzero;"/><g id="text278_00000131343170004451800200000017372350370385853865_"><path id="path280_00000132059623495300336060000011064745840986068919_" d="M671.173,406.168l0,-147.36l72.414,-0c20.608,-0 34.998,4.49 43.172,13.469c8.289,8.98 12.434,24.752 12.434,47.317c-0,36.725 -3.339,60.441 -9.901,70.917c-6.677,10.476 -21.529,15.657 -44.784,15.657l-73.335,-0Zm27.861,-23.601l39.833,0c13.355,0 21.989,-3.108 25.903,-9.21c3.914,-6.216 5.987,-19.801 5.987,-40.754c-0,-21.759 -1.727,-35.574 -5.296,-41.445c-3.569,-5.871 -11.858,-8.865 -24.867,-8.865l-41.56,0l-0,100.274Z" style="fill:#e7e7e7;fill-rule:nonzero;"/><path id="path282_00000047040591339295676970000011058491669740005808_" d="M874.715,257.541c26.824,0 43.977,4.49 51.691,13.355c7.713,8.865 11.512,28.666 11.512,59.635c0,33.731 -3.914,55.03 -11.627,63.779c-7.714,8.75 -26.364,13.124 -56.181,13.124c-26.824,0 -44.093,-4.374 -51.922,-13.009c-7.828,-8.749 -11.743,-27.86 -11.743,-57.332c0,-35.113 3.8,-57.217 11.513,-66.197c7.828,-8.865 26.709,-13.355 56.757,-13.355Zm-2.073,23.946c-18.765,0 -29.702,2.418 -32.925,7.253c-3.224,4.836 -4.72,21.529 -4.72,50.08c-0,21.183 1.842,33.847 5.526,38.221c3.799,4.375 14.736,6.447 32.81,6.447c17.384,0 27.745,-2.417 31.199,-7.253c3.454,-4.95 5.181,-19.686 5.181,-44.208c-0,-24.636 -1.612,-39.257 -4.951,-43.747c-3.338,-4.605 -14.045,-6.793 -32.12,-6.793Z" style="fill:#e7e7e7;fill-rule:nonzero;"/><path id="path284_00000054254909554573186430000013019451463166512280_" d="M975.91,258.808l-0,122.263l69.075,-0l-0,25.097l-97.051,-0l0,-147.36l27.976,-0Z" style="fill:#e7e7e7;fill-rule:nonzero;"/><path id="path286_00000029009078463141233120000005131725375362411955_" d="M1053.04,406.168l-0,-147.36l72.413,-0c17.039,-0 28.551,2.763 34.653,8.174c6.217,5.411 9.325,15.657 9.325,30.623c0,18.19 -7.253,28.896 -21.643,32.12l-0,0.575c16.808,2.648 25.212,14.276 25.212,35.114c-0,15.081 -3.224,25.557 -9.671,31.659c-6.447,6.102 -17.729,9.095 -33.846,9.095l-76.443,-0Zm27.975,-85.538l34.192,-0c11.052,-0 18.19,-1.266 21.183,-3.684c3.109,-2.418 4.605,-8.059 4.605,-16.923c0,-11.858 -6.677,-17.73 -20.032,-17.73l-39.948,0l-0,38.337Zm-0.115,61.937l30.738,0l9.786,-0.23c9.44,0 15.657,-1.381 18.535,-4.029c2.993,-2.648 4.49,-8.289 4.49,-16.809c-0,-8.979 -1.612,-14.505 -4.72,-16.808c-3.109,-2.302 -10.822,-3.454 -23.14,-3.454l-35.689,0l-0,41.33Z" style="fill:#e7e7e7;fill-rule:nonzero;"/><path id="path288_00000034770976372460142500000002120161027030790790_" d="M1306.43,258.808l-54.569,91.064l-0,56.296l-27.976,-0l0,-56.296l-53.072,-91.064l32.35,-0l22.219,38.912c1.266,2.187 3.339,6.102 6.217,11.973l3.108,5.987l2.993,5.986l0.806,0l6.217,-11.973c2.648,-5.296 4.835,-9.325 6.332,-11.973l22.449,-38.912l32.926,-0Z" style="fill:#e7e7e7;fill-rule:nonzero;"/><path id="path290_00000107561499677076905490000009446487491082282907_" d="M1483.38,301.749l-27.284,0c-0.115,-1.381 -0.23,-2.417 -0.23,-2.993c-0.691,-8.289 -2.533,-13.469 -5.526,-15.542c-2.994,-2.187 -10.131,-3.223 -21.414,-3.223c-13.239,-0 -21.874,1.266 -26.018,3.684c-4.029,2.417 -6.102,7.598 -6.102,15.427c0,9.325 1.612,14.851 4.951,16.693c3.338,1.842 14.275,3.338 32.81,4.374c21.989,1.267 36.15,4.375 42.482,9.441c6.447,5.065 9.67,15.542 9.67,31.429c0,19.571 -3.799,32.235 -11.282,37.991c-7.598,5.641 -24.176,8.519 -49.965,8.519c-23.14,0 -38.566,-2.763 -46.165,-8.404c-7.598,-5.641 -11.282,-17.038 -11.282,-34.077l-0.115,-5.411l27.169,0l0.116,3.109c-0,10.246 1.842,16.578 5.41,18.88c3.569,2.303 13.47,3.454 29.472,3.454c12.549,0 20.493,-1.381 23.947,-4.029c3.453,-2.648 5.18,-8.865 5.18,-18.42c0,-7.138 -1.381,-11.858 -4.029,-14.161c-2.648,-2.417 -8.289,-3.799 -16.924,-4.374l-15.426,-0.921c-23.371,-1.382 -38.222,-4.605 -44.669,-9.671c-6.447,-5.066 -9.67,-16.118 -9.67,-32.926c-0,-17.153 3.914,-28.666 11.627,-34.307c7.829,-5.756 23.486,-8.634 46.856,-8.634c22.219,-0 37.07,2.647 44.784,7.828c7.713,5.296 11.512,15.542 11.512,30.738l0.115,5.526Z" style="fill:#e7e7e7;fill-rule:nonzero;"/><path id="path292_00000156572087176591320190000012665762830114310560_" d="M1559.02,283.79l-0,122.263l-27.976,-0l0,-122.263l-42.481,-0l0,-25.097l114.55,-0l-0,25.097l-44.093,-0Z" style="fill:#e7e7e7;fill-rule:nonzero;"/><path id="path294_00000159445144864636456310000008010948686514227646_" d="M1639.26,282.178l-0,38.107l69.075,-0l0,20.607l-69.075,0l-0,41.675l73.565,0l-0,23.486l-101.425,-0l-0,-147.36l100.849,-0l0,23.485l-72.989,0Z" style="fill:#e7e7e7;fill-rule:nonzero;"/><path id="path296_00000072973594528636497870000002831338562989750450_" d="M1724.57,406.168l-0,-147.36l72.644,-0c18.074,-0 30.508,3.108 37.3,9.44c6.793,6.217 10.246,17.614 10.246,33.962c0,14.851 -1.727,25.097 -5.18,30.508c-3.339,5.526 -10.362,9.21 -20.953,11.282l-0,0.921c16.348,1.037 24.522,10.592 24.522,28.551l-0,32.466l-27.976,-0l0,-26.824c0,-15.197 -7.483,-22.795 -22.449,-22.795l-40.294,-0l-0,49.619l-27.86,0.23Zm27.975,-73.22l40.179,0c9.555,0 15.887,-1.727 18.995,-5.065c3.224,-3.454 4.721,-10.361 4.721,-20.608c-0,-10.476 -1.382,-17.268 -4.145,-20.262c-2.648,-3.108 -8.519,-4.605 -17.729,-4.605l-42.136,0l0.115,50.54Z" style="fill:#e7e7e7;fill-rule:nonzero;"/><path id="path298_00000133516847937895073580000014381180426251065751_" d="M1883.1,282.178l0,38.107l69.075,-0l0,20.607l-69.075,0l0,41.675l73.565,0l0,23.486l-101.425,-0l-0,-147.36l100.849,-0l0,23.485l-72.989,0Z" style="fill:#e7e7e7;fill-rule:nonzero;"/><path id="path300_00000070798416338453221750000003777688426798858375_" d="M2029.65,257.541c26.825,0 43.978,4.49 51.692,13.355c7.713,8.865 11.512,28.666 11.512,59.635c0,33.731 -3.914,55.03 -11.628,63.779c-7.713,8.75 -26.363,13.124 -56.181,13.124c-26.824,0 -44.093,-4.374 -51.921,-13.009c-7.829,-8.749 -11.743,-27.86 -11.743,-57.332c0,-35.113 3.799,-57.217 11.513,-66.197c7.828,-8.865 26.709,-13.355 56.756,-13.355Zm-2.072,23.946c-18.765,0 -29.702,2.418 -32.926,7.253c-3.223,4.836 -4.72,21.529 -4.72,50.08c0,21.183 1.842,33.847 5.526,38.221c3.799,4.375 14.736,6.447 32.811,6.447c17.384,0 27.745,-2.417 31.199,-7.253c3.454,-4.95 5.18,-19.686 5.18,-44.208c0,-24.636 -1.611,-39.257 -4.95,-43.747c-3.339,-4.605 -14.045,-6.793 -32.12,-6.793Z" style="fill:#e7e7e7;fill-rule:nonzero;"/></g></g></g><g><path d="M0,0l140.083,0l0,27.167l-71.25,95.666l-45.583,0l72.583,-95.666l-95.833,-0l0,-27.167Z" style="fill:#e7e7e7;fill-rule:nonzero;"/><path d="M318.083,95.708c0,7.625 -3.5,14.042 -10.5,19.292c-7,5.25 -15,7.833 -24,7.833l-82,0c-9.791,0 -17.958,-2.625 -24.416,-7.833c-6.5,-5.25 -9.75,-11.667 -9.75,-19.292l-0,-68.583c-0,-6.958 3.375,-13.208 10.083,-18.75c6.708,-5.583 14.583,-8.375 23.583,-8.375l82,0c10.042,0 18.375,2.625 25.042,7.917c6.667,5.291 10,11.875 10,19.708l0,68.083l-0.042,0Zm-40.666,-64.291c-4.084,-2.834 -8.75,-4.25 -14,-4.25l-41.334,-0c-5.458,-0 -10.25,1.5 -14.333,4.5c-4.083,3 -6.167,6.208 -6.167,9.625l0,40.375c0,4.333 1.917,7.708 5.709,10.208c3.833,2.5 8.625,3.75 14.416,3.75l41.667,0c5.708,0 10.458,-1.375 14.333,-4.167c3.875,-2.791 5.792,-6.041 5.792,-9.791l0,-40.709c0.083,-3.5 -1.958,-6.708 -6.083,-9.541Z" style="fill:#e7e7e7;fill-rule:nonzero;"/><path d="M514.75,0l73.542,0l-0,122.833l-37.625,0l-0,-91.416c-0,-1.375 -1.167,-2.042 -3.459,-2.042c-1.916,0 -3.416,0.667 -4.458,2.042l-47.875,91.416l-43.417,0l-53.5,-93.458c-0.625,-1.042 -1.666,-1.542 -3.083,-1.542c-2.333,0 -3.625,0.459 -3.875,1.375l0,93.625l-38.208,0l-0,-122.833l71.791,0l47.875,82.667l42.292,-82.667Z" style="fill:#e7e7e7;fill-rule:nonzero;"/><path d="M768.208,0l73.542,0l0,122.833l-37.625,0l0,-91.416c0,-1.375 -1.167,-2.042 -3.458,-2.042c-1.917,0 -3.417,0.667 -4.459,2.042l-47.875,91.416l-43.416,0l-53.5,-93.458c-0.625,-1.042 -1.667,-1.542 -3.084,-1.542c-2.333,0 -3.625,0.459 -3.875,1.375l0,93.625l-38.208,0l-0,-122.833l71.792,0l47.875,82.667l42.291,-82.667Z" style="fill:#e7e7e7;fill-rule:nonzero;"/><path d="M1081.67,57.333c6.875,5.084 10.333,11.709 10.333,19.917l0,18.125c0,8.083 -3.125,14.708 -9.375,19.833c-6.25,5.125 -14.542,7.709 -24.792,7.709l-87.125,-0c-9.666,-0 -17.791,-2.667 -24.333,-7.959c-6.542,-5.291 -9.833,-11.791 -9.833,-19.541l-0,-15.709l33.833,0l0,2.375c0,3.75 1.792,6.917 5.417,9.5c3.583,2.542 7.791,3.834 12.583,3.834l57.792,-0c7.875,-0 11.833,-3.459 11.833,-10.417c0,-3.417 -1.083,-6.208 -3.25,-8.375c-2.167,-2.167 -5,-3.25 -8.542,-3.25l-75.166,0c-10.709,0 -18.917,-2.25 -24.584,-6.833c-6.625,-5.334 -9.916,-13.875 -9.916,-25.584l-0,-13.5c-0,-7.833 3.458,-14.375 10.333,-19.583c6.875,-5.208 14.958,-7.833 24.167,-7.833l87.791,-0c10.125,-0 18.209,2.625 24.167,7.833c5.958,5.208 8.958,11.75 8.958,19.542l0,13.416l-32.125,0c0,-3.75 -1.75,-6.958 -5.291,-9.583c-3.542,-2.625 -7.959,-3.917 -13.334,-3.917l-58.583,0c-3.75,0 -6.75,0.875 -8.958,2.542c-2.209,1.708 -3.334,4.667 -3.334,8.875c0,4 1.292,6.875 3.917,8.708c2.167,1.5 4.958,2.209 8.375,2.209l72.958,-0c10.542,0.041 19.209,2.583 26.084,7.666Z" style="fill:#e7e7e7;fill-rule:nonzero;"/><rect x="1107.42" y="-0.5" width="34.167" height="123" style="fill:#e7e7e7;fill-rule:nonzero;"/><path d="M1207.67,0l43.916,43.375l43.042,-43.375l48.333,0l-58.75,59.875l63.209,63.292l-49.375,-0l-47.125,-48.167l-47.834,48.167l-48.5,-0l62.875,-63.625l-60,-59.542l50.209,0Z" style="fill:#e7e7e7;fill-rule:nonzero;"/><path d="M1543.79,0l-0,27.167l-55.125,-0l-0,95.666l-29.542,0l-0,-95.666l-55.125,-0l-0,-27.167l139.792,0Z" style="fill:#e7e7e7;fill-rule:nonzero;"/><path d="M1709.96,122.833l-32.25,0l0,-22.708c0,-3.875 -1.25,-6.708 -3.833,-8.542c-2.958,-2.166 -7.833,-3.25 -14.625,-3.25l-66.708,0l-0,34.5l-31.792,0l0,-122.833l117.25,0c9.208,0 16.875,2.667 23.042,8c6.125,5.333 9.208,11.875 9.208,19.625l-0,28.667c-0,4.541 -1.208,8.791 -3.667,12.708c-2.416,3.917 -5.708,7.125 -9.833,9.625c3.375,1.708 5.917,3.125 7.625,4.25c3.708,2.5 5.542,5.917 5.542,10.25l-0,29.708l0.041,0Zm-37.416,-91.583c-3.75,-2.833 -8.042,-4.25 -12.792,-4.25l-67.208,0l-0,34.167l67.208,-0c5.292,-0 9.708,-1.375 13.208,-4.084c3.5,-2.75 5.25,-6 5.25,-9.75l0,-6.5c-0.041,-3.541 -1.916,-6.708 -5.666,-9.583Z" style="fill:#e7e7e7;fill-rule:nonzero;"/><path d="M1760.96,122.833l-36.208,0l60.208,-122.833l48.792,0l63.25,122.833l-37.833,0l-9.709,-18.958l-78.333,0l-10.167,18.958Zm49.584,-96.166l-24.792,47.833l48.792,0l-24,-47.833Z" style="fill:#e7e7e7;fill-rule:nonzero;"/><path d="M2013.08,0c9.334,0 17.084,2.625 23.292,7.917c6.208,5.291 9.292,11.833 9.292,19.666l-0,13.25l-31.625,0c-0,-3.5 -2,-6.625 -5.959,-9.458c-3.958,-2.792 -8.416,-4.208 -13.25,-4.208l-38.458,-0c-5.083,-0 -9.542,1.5 -13.333,4.5c-3.792,3 -5.709,6.208 -5.709,9.625l0,40.375c0,4.333 1.792,7.708 5.334,10.208c3.541,2.5 8.041,3.75 13.416,3.75l38.75,0c5.417,0 9.959,-1.375 13.667,-4.167c3.708,-2.791 5.542,-6.083 5.542,-9.833l31.625,0l-0,14c-0,7.625 -3.25,14.083 -9.75,19.292c-6.5,5.25 -13.959,7.875 -22.334,7.875l-76.25,-0c-9.125,-0 -16.666,-2.625 -22.708,-7.834c-6.042,-5.25 -9.042,-11.666 -9.042,-19.291l0,-68.542c0,-6.958 3.125,-13.208 9.375,-18.75c6.25,-5.583 13.542,-8.375 21.917,-8.375l76.208,0Z" style="fill:#e7e7e7;fill-rule:nonzero;"/><path d="M2091.75,0.333l0,47.167l19.083,0l57.167,-47.5l40.208,0l-65.625,61.583l69.75,61.25l-44.333,0l-57.208,-46.458l-19.084,0l0,46.458l-31.791,0l-0,-122.833l31.833,0.333Z" style="fill:#e7e7e7;fill-rule:nonzero;"/></g></svg>