<?xml version="1.0" encoding="UTF-8" standalone="no"?><!DOCTYPE svg PUBLIC "-//W3C//DTD SVG 1.1//EN" "http://www.w3.org/Graphics/SVG/1.1/DTD/svg11.dtd"><svg width="100%" height="100%" viewBox="0 0 4446 1688" version="1.1" xmlns="http://www.w3.org/2000/svg" xmlns:xlink="http://www.w3.org/1999/xlink" xml:space="preserve" xmlns:serif="http://www.serif.com/" style="fill-rule:evenodd;clip-rule:evenodd;stroke-linejoin:round;stroke-miterlimit:2;"><g><path d="M727.5,222.025c-136.958,0 -182.212,106.779 -182.212,159.242l-0,188.929c-0,151.792 -60.421,143.304 -130.775,143.304l-0,143.458c247.029,0 278.962,-81.608 278.962,-239.712l0,-167.208c0,-92.23 66.954,-87.463 124.479,-87.463l0,-140.55l-90.454,0Zm140.742,0l-0,150.271l190.271,-0c43.058,-0 100.466,-0.167 100.466,76.737l0,182.742c0,28.704 -6.579,76.817 -67.521,76.817l-68.158,-0l0,-291.7l-155.058,-0l-0,440.066l209.75,0c97.812,0 235.196,-32.316 235.196,-245.675l-0,-195.445c-0,-79.705 -67.396,-193.813 -197.975,-193.813l-246.971,0Zm494.7,-0l-0,150.271l190.271,-0c43.062,-0 100.47,-0.167 100.47,76.737l0,182.742c0,28.704 -6.579,76.817 -67.529,76.817l-68.154,-0l0,-291.7l-155.058,-0l-0,440.066l207.608,0c97.817,0 235.213,-32.316 235.213,-245.675l-0,-195.445c-0,-79.705 -67.38,-193.813 -197.963,-193.813l-244.858,0Zm774.629,-0c-136.963,-0 -182.225,106.779 -182.225,159.242l-0,188.929c-0,151.791 -60.45,143.304 -130.796,143.304l0,143.458c247.029,0 278.992,-81.608 278.992,-239.712l-0,-167.209c-0,-92.229 66.925,-87.462 124.446,-87.462l-0,-140.55l-90.417,0Z" style="fill:#e7e7e7;fill-rule:nonzero;"/><path d="M2367.78,202.683c-39.966,0 -68.475,29.3 -68.475,74.184c0,26.787 5.904,48.529 29.167,61.558c13.108,7.6 34.725,15.179 48.162,20.971c24.896,10.496 39.963,10.871 39.963,52.137c-0,31.85 -19.321,47.425 -46.838,47.425c-40.954,0 -47.833,-25.337 -46.529,-65.516l-27.204,-0c0.346,14.479 0,36.187 5.242,49.579c14.1,35.475 42.916,43.071 67.171,43.071c47.187,-0 76.354,-30.05 76.354,-81.45c-0,-35.834 -8.525,-53.925 -55.054,-73.109l-38.992,-16.283c-15.729,-6.517 -23.263,-18.108 -23.263,-36.929c0,-20.996 4.255,-48.504 43.905,-48.504c27.187,-0 40.954,21.371 38.975,49.604l27.208,-0c2.637,-51.038 -24.896,-76.738 -69.792,-76.738Zm641.404,5.413l0,271.479l72.413,0c66.512,0 78.317,-69.5 80.279,-135.742c1.963,-66.962 -8.525,-135.737 -85.192,-135.737l-67.5,-0Zm871.875,-0l0,36.2l25.867,-0l0,-36.2l-25.867,-0Zm-844.67,27.158l43.558,0c43.908,0 51.771,41.275 53.733,103.171c2.621,81.079 -13.75,113.992 -53.733,113.992l-43.558,-0l-0,-217.163Zm506.216,37.629c-36.683,0 -55.366,18.104 -54.062,59.729l23.279,0c-0.346,-23.529 2.937,-35.479 26.529,-35.479c20.971,0 28.838,8.692 28.838,31.496c-0,10.496 0.658,18.467 -4.913,23.171c-3.267,2.896 -39.967,18.092 -54.704,25.333c-25.246,12.304 -26.233,41.279 -26.233,48.879c-0,36.559 10.483,59 46.858,59c17.358,0 34.079,-14.858 40.312,-32.595l0.642,-0c2.621,27.508 10.817,29.7 32.758,28.612c1.963,-0.725 3.942,-1.092 5.905,-1.454l-0,-20.992c-3.613,0.363 -7.534,0.734 -11.146,-0.35c-5.242,-2.896 -4.584,-10.141 -4.584,-15.208l0,-115.471c0,-4.708 4.584,-54.671 -49.479,-54.671Zm-1005.83,0.025c-44.896,0 -65.208,38.354 -65.208,99.163c-0,86.871 25.883,112.941 65.208,112.941c39.967,0 65.208,-25.708 65.208,-112.941c0,-60.808 -20.329,-99.163 -65.208,-99.163Zm170.417,0c-19.655,0 -33.092,10.134 -45.538,27.509l-0.679,-0l0.017,-22.096l-25.225,-0l-0,201.254l25.887,0l0,-134.638c0,-14.479 1.283,-26.079 11.771,-36.574c6.892,-7.242 16.075,-11.225 25.571,-11.225c20.975,-0 27.204,14.129 27.204,35.125l-0,147.312l25.871,0l-0,-155.279c-0,-35.471 -17.675,-51.388 -44.879,-51.388Zm702.362,0c-19.654,0 -33.108,10.134 -45.558,27.509l-0.659,-0l0,-22.096l-25.208,-0l0,201.254l25.867,0l-0,-134.638c-0,-14.479 1.304,-26.079 11.808,-36.574c6.875,-7.242 16.058,-11.225 25.554,-11.225c20.971,-0 27.188,14.129 27.188,35.125l-0,147.312l25.883,0l0,-155.279c0,-35.471 -17.671,-51.388 -44.875,-51.388Zm293.767,0c-18.996,0 -34.742,14.105 -43.267,31.117l-0.658,0l-0,-25.704l-24.879,-0l-0,201.254l25.87,0l0,-134.638c0,-14.479 0.659,-26.079 11.146,-36.574c6.875,-7.242 16.059,-11.225 25.571,-11.225c20.954,-0 27.171,14.129 27.171,35.125l-0,147.312l25.904,0l-0,-134.638c-0,-14.479 1.3,-26.079 11.787,-36.575c6.563,-6.879 15.4,-10.862 24.238,-11.225c22.292,0 27.863,12.684 27.863,35.125l-0,147.313l25.866,-0l0,-145.513c0,-12.666 0.679,-35.104 -11.108,-47.05c-9.517,-9.408 -20.992,-14.104 -33.438,-14.104c-22.933,0 -36.041,11.213 -48.82,31.842c-8.196,-19.183 -23.905,-31.842 -43.246,-31.842Zm297.587,0c-55.696,0 -62.916,59.359 -62.916,108.584c-0,52.125 7.862,103.521 63.575,103.521c40.625,-0 53.733,-36.93 54.704,-75.659l-24.584,0c-1.3,24.613 -3.925,51.409 -32.1,51.409c-33.091,-0 -34.737,-46.709 -34.737,-73.134c-0,-28.596 -1.946,-90.491 35.725,-90.491c24.567,-0 29.812,22.466 30.142,44.545l24.254,0c0.329,-37.283 -17.363,-68.775 -54.063,-68.775Zm-1230.45,5.413l57.988,205.967c-7.205,19.908 -7.846,39.808 -32.084,39.808c-6.233,-0 -13.454,-1.438 -19.341,-4.333l-0,25.329c6.216,2.171 12.45,3.258 18.683,3.258c18.992,0 32.1,-7.612 41.596,-26.433c5.241,-10.134 13.437,-39.438 16.716,-51.384l54.067,-192.212l-26.858,-0l-42.275,174.475l-0.659,-0l-40.958,-174.475l-26.875,-0Zm406.963,-0l57.987,205.967c-7.204,19.908 -7.846,39.808 -32.1,39.808c-6.217,-0 -13.437,-1.438 -19.342,-4.333l0,25.329c6.234,2.171 12.467,3.258 18.68,3.258c19.012,0 32.12,-7.612 41.616,-26.433c5.242,-10.134 13.438,-39.438 16.717,-51.384l54.062,-192.212l-26.891,-0l-42.254,174.475l-0.663,-0l-40.937,-174.475l-26.875,-0Zm703.645,-0l0,201.254l25.871,0l0,-201.254l-25.871,-0Zm-1344.29,18.817c27.187,-0 38.317,23.166 38.317,83.979c-0,47.416 -7.517,79.646 -38.317,79.646c-30.138,-0 -38.333,-32.23 -38.333,-79.646c-0,-60.813 11.787,-83.979 38.333,-83.979Zm1028.45,73.858l0,48.854c0,32.575 -21.629,40.908 -31.475,40.908c-20.954,0 -25.537,-13.025 -25.537,-33.291c-0,-13.759 3.925,-28.6 16.041,-34.75c13.767,-7.242 28.196,-13.396 40.971,-21.721Zm-360.483,217.262c-39.967,0 -68.492,29.325 -68.492,74.209c0,26.787 5.921,48.504 29.183,61.533c13.109,7.604 34.725,15.204 48.163,20.996c24.896,10.496 39.962,10.871 39.962,52.137c0,31.855 -19.32,47.4 -46.858,47.4c-40.954,0 -47.829,-25.337 -46.508,-65.512l-27.204,-0c0.329,14.479 -0,36.212 5.241,49.604c14.079,35.471 42.917,43.067 67.171,43.067c47.171,-0 76.338,-30.05 76.338,-81.45c-0,-35.834 -8.509,-53.921 -55.038,-73.109l-38.975,-16.283c-15.729,-6.517 -23.279,-18.104 -23.279,-36.929c-0,-20.992 4.254,-48.504 43.904,-48.504c27.188,-0 40.975,21.35 38.996,49.583l27.187,0c2.621,-51.037 -24.895,-76.742 -69.791,-76.742Zm-898.563,5.438l0,271.483l72.417,0c66.525,0 78.312,-69.504 80.292,-135.741c1.962,-66.963 -8.542,-135.742 -85.209,-135.742l-67.5,-0Zm187.242,-0l-0,36.204l25.867,0l-0,-36.204l-25.867,-0Zm216.717,-0l-0,36.204l25.87,0l0,-36.204l-25.87,-0Zm288.562,-0l0,271.483l25.883,0l0,-271.483l-25.883,-0Zm869.042,-0l-0,90.871l-0.659,-0c-12.116,-17.375 -23.279,-26.079 -41.945,-26.079c-38.992,-0 -56.684,46.7 -54.721,105.7c0.658,17.737 -3.942,106.425 53.404,106.425c21.962,-0 33.108,-7.975 44.254,-31.867l0.658,-0l0,26.433l24.88,0l-0,-271.483l-25.871,-0Zm-1086.92,15.558l-0,54.667l-25.209,-0l0,24.254l25.209,0l-0,144.058c-0,30.405 11.475,33.309 26.875,32.946l28.487,0l0,-24.254l-17.341,0c-14.409,0 -12.117,-8.679 -12.117,-15.558l-0,-137.192l30.121,0l-0,-24.254l-30.454,-0l-0,-54.667l-25.571,0Zm-447.429,11.6l43.575,0c43.904,0 51.77,41.25 53.733,103.146c2.621,81.083 -13.767,114.021 -53.733,114.021l-43.575,-0l-0,-217.167Zm274.962,37.634c-48.158,-0 -57.654,62.27 -57.654,104.62c-0,81.08 23.904,107.505 58.317,107.505c16.7,-0 28.487,-8.33 39.304,-28.959l0.658,0c-0.346,22.079 3.942,67.667 -38.004,67.667c-15.729,-0 -26.213,-6.854 -28.504,-24.95l-25.225,-0c3.608,34.387 25.225,49.204 54.391,49.204c19.984,0 38.663,-7.95 50.121,-27.858c12.134,-21.359 13.767,-40.175 13.767,-64.792l-0,-177.004l-25.883,-0l-0,22.8l-0.663,-0c-8.854,-19.183 -23.904,-28.233 -40.625,-28.233Zm299.742,-0c-36.684,-0 -55.367,18.1 -54.046,59.725l23.262,-0c-0.345,-23.525 2.934,-35.475 26.53,-35.475c20.97,-0 28.837,8.687 28.837,31.491c0,10.5 0.658,18.471 -4.912,23.175c-3.267,2.896 -39.967,18.092 -54.709,25.329c-25.241,12.309 -26.229,41.28 -26.229,48.88c0,36.558 10.5,59 46.875,59c17.358,-0 34.063,-14.855 40.292,-32.592l0.662,-0c2.621,27.508 10.817,29.696 32.775,28.612c1.963,-0.725 3.909,-1.091 5.871,-1.454l0,-20.996c-3.612,0.363 -7.537,0.713 -11.146,-0.379c-5.246,-2.896 -4.566,-10.112 -4.566,-15.179l-0,-115.471c-0,-4.708 4.566,-54.666 -49.496,-54.666Zm462.412,-0c-44.896,-0 -65.208,38.375 -65.208,99.187c-0,86.871 25.883,112.938 65.208,112.938c39.967,-0 65.192,-25.709 65.192,-112.938c-0,-60.812 -20.313,-99.187 -65.192,-99.187Zm324.167,-0c-19.654,-0 -33.075,10.133 -45.538,27.508l-0.641,-0l-0,-22.075l-25.246,-0l-0,201.258l25.887,0l0,-134.662c0,-14.479 1.317,-26.059 11.805,-36.554c6.875,-7.242 16.041,-11.225 25.537,-11.225c20.975,-0 27.204,14.129 27.204,35.125l0,147.316l25.888,0l-0,-155.283c-0,-35.471 -17.692,-51.408 -44.896,-51.408Zm-1201.25,5.433l-0,201.258l25.867,0l-0,-201.258l-25.867,-0Zm216.717,-0l-0,201.258l25.87,0l0,-201.258l-25.87,-0Zm763.891,-0l0,155.283c0,35.471 16.717,51.409 43.921,51.409c17.692,-0 34.396,-11.234 43.25,-31.867l0.642,-0l-0,26.433l25.883,0l0,-201.258l-25.883,-0l-0,129.229c-0,11.583 -1.634,25.338 -7.538,35.475c-7.204,11.583 -18.679,17.738 -31.125,17.738c-18.354,-0 -23.25,-9.067 -23.25,-26.08l0,-156.362l-25.9,-0Zm-860.766,18.817c28.837,-0 36.354,37.65 36.354,77.466c-0,32.213 0.35,86.159 -38.975,86.159c-25.554,-0 -33.109,-32.596 -33.109,-81.825c0,-27.146 1.321,-81.8 35.73,-81.8Zm757.241,-0c27.188,-0 38.35,23.17 38.35,83.979c0,47.416 -7.55,79.646 -38.35,79.646c-30.158,-0 -38.333,-32.23 -38.333,-79.646c-0,-60.809 11.787,-83.979 38.333,-83.979Zm461.842,-0c34.721,-0 35.396,51.033 35.396,78.541l-0,24.979c-0,22.805 -7.55,60.105 -34.409,60.105c-35.4,-0 -36.683,-39.467 -36.683,-82.905c0,-61.895 14.063,-80.72 35.696,-80.72Zm-901.633,73.858l-0,48.854c-0,32.579 -21.634,40.913 -31.459,40.913c-20.971,-0 -25.554,-13.05 -25.554,-33.321c0,-13.754 3.938,-28.596 16.058,-34.75c13.767,-7.242 28.175,-13.371 40.955,-21.696Z" style="fill:#e7e7e7;fill-rule:nonzero;"/><path d="M4003.94,867.917c34.529,-0 64.929,-25.484 64.929,-63.284c-0,-37.795 -30.4,-63.279 -64.929,-63.279c-34.55,0 -64.95,25.484 -64.95,63.284c-0,37.795 30.4,63.279 64.95,63.279Zm-49.496,-63.284c-0,-29.587 21.821,-50.966 49.496,-50.966c27.308,-0 49.479,21.379 49.479,50.966c-0,29.592 -22.171,50.971 -49.479,50.971c-27.675,0 -49.496,-21.379 -49.496,-50.971Zm37.117,3.934l10.487,-0l18.038,30.787l13.749,0l-19.774,-31.3c11.179,-1.196 19.254,-6.325 19.254,-19.325c-0,-15.054 -9.617,-21.037 -27.155,-21.037l-27.133,-0l0,71.662l12.534,0l-0,-30.787Zm-0,-10.259l-0,-20.354l13.404,0c7.046,0 15.121,1.367 15.121,9.75c-0,9.575 -6.875,10.604 -15.296,10.604l-13.229,0Z" style="fill:#e7e7e7;fill-rule:nonzero;"/><path d="M0,0l0,1680.4l4444.38,0l0,-1680.4l-4444.38,0Zm36.442,36.279l4371.5,0l-0,999.367l-4371.5,-0l-0,-999.367Zm608.512,1134.4c57.954,0 102.817,9.942 134.596,29.788c31.783,19.675 47.696,43.504 47.696,71.504c-0,12.583 -4.288,26.154 -12.838,40.688c-8.279,14.354 -26.446,26.845 -54.487,37.479c28.575,10.633 50.083,24.72 64.504,42.266c14.425,17.546 21.646,37.13 21.646,58.75c-0,32.434 -18.167,60.092 -54.488,82.955c-36.054,22.683 -86.537,34.024 -151.437,34.024c-64.896,0 -114.025,-11.341 -147.408,-34.024c-33.384,-22.863 -50.084,-50.521 -50.084,-82.955c0,-21.621 7.334,-41.204 22.021,-58.75c14.958,-17.546 36.733,-30.75 65.313,-39.608c-28.042,-12.408 -46.346,-25.783 -54.892,-40.138c-8.279,-14.533 -12.408,-28.104 -12.408,-40.687c-0,-28 15.887,-51.829 47.666,-71.504c31.784,-19.846 76.646,-29.788 134.6,-29.788Zm0,61.154c-22.966,0 -41,4.346 -54.087,13.03c-12.817,8.508 -19.23,20.383 -19.23,35.625c0,14.004 6.413,25.437 19.23,34.3c13.087,8.862 31.12,13.279 54.087,13.279c23.234,-0 41.129,-4.417 53.683,-13.279c12.821,-8.863 19.226,-20.296 19.226,-34.3c-0,-15.242 -6.405,-27.117 -19.226,-35.625c-12.554,-8.684 -30.449,-13.03 -53.683,-13.03Zm540.429,49.034c14.138,-0 27.434,2.054 39.892,6.137c12.7,4.084 23.954,10.088 33.775,18.013c10.063,7.687 18.325,17.283 24.792,28.812c6.471,11.529 10.554,24.742 12.229,39.634l-54.638,-0c-0.958,-6.484 -3.112,-12.38 -6.466,-17.663c-3.355,-5.525 -7.555,-10.321 -12.584,-14.404c-5.033,-4.083 -10.775,-7.208 -17.241,-9.371c-6.23,-2.404 -12.809,-3.608 -19.759,-3.608c-12.696,-0 -23.475,2.525 -32.341,7.566c-8.863,4.805 -16.059,11.413 -21.567,19.817c-5.508,8.167 -9.596,17.542 -12.233,28.113c-2.396,10.566 -3.571,21.479 -3.571,32.77c-0,10.805 1.175,21.388 3.571,31.717c2.637,10.088 6.725,19.217 12.233,27.383c5.508,8.167 12.704,14.75 21.567,19.792c8.866,4.804 19.645,7.217 32.341,7.217c17.25,-0 30.663,-5.292 40.246,-15.859c9.821,-10.808 15.813,-24.737 17.967,-41.791l54.616,-0c-1.437,16.091 -5.133,30.625 -11.125,43.591c-5.987,12.971 -13.912,24.021 -23.733,33.146c-9.821,9.129 -21.329,16.229 -34.504,21.271c-13.175,4.804 -27.654,7.192 -43.467,7.192c-19.883,-0 -37.604,-3.484 -53.179,-10.446c-15.571,-6.967 -28.758,-16.454 -39.537,-28.463c-10.784,-12.008 -19.042,-26.183 -24.792,-42.516c-5.75,-16.329 -8.633,-33.742 -8.633,-52.234c-0,-18.975 2.883,-36.745 8.633,-53.316c5.75,-16.571 14.008,-30.967 24.792,-43.217c10.779,-12.25 23.966,-21.875 39.537,-28.837c15.575,-6.963 33.296,-10.446 53.179,-10.446Zm2971.11,-0c13.421,-0 26.233,1.562 38.458,4.683c12.463,2.883 23.471,7.683 33.054,14.404c9.584,6.729 17.133,15.392 22.638,25.959c5.766,10.325 8.646,22.937 8.646,37.829l-54.65,-0c-0.471,-7.684 -2.155,-14.071 -5.038,-19.117c-2.621,-5.042 -6.217,-8.992 -10.762,-11.875c-4.55,-2.879 -9.809,-4.937 -15.801,-6.137c-5.987,-1.2 -12.341,-1.78 -19.062,-1.78c-4.546,0 -9.113,0.467 -13.662,1.43c-4.55,0.962 -8.734,2.633 -12.555,5.033c-3.591,2.404 -6.595,5.529 -8.991,9.371c-2.396,3.604 -3.592,8.046 -3.592,13.329c0,5.046 0.954,9.129 2.863,12.25c1.908,3.125 5.641,6.004 11.145,8.646c5.746,2.404 13.542,5.062 23.371,7.941c10.05,2.642 23.104,5.988 39.146,10.071c3.125,0.721 7.208,1.817 12.242,3.259c5.033,1.2 10.295,2.983 15.8,5.387c5.745,2.163 11.37,5.063 16.891,8.667c5.746,3.604 10.9,8.046 15.45,13.329c4.792,5.283 8.63,11.646 11.492,19.092c2.883,7.204 4.342,15.595 4.342,25.204c-0,11.766 -2.292,22.708 -6.842,32.796c-4.563,10.087 -11.388,18.833 -20.5,26.279c-8.854,7.204 -20,12.991 -33.421,17.312c-13.179,4.084 -28.492,6.113 -45.975,6.113c-14.129,-0 -27.917,-1.809 -41.333,-5.409c-13.179,-3.604 -24.792,-9.116 -34.846,-16.562c-10.071,-7.446 -18.212,-16.933 -24.446,-28.463c-5.987,-11.529 -8.871,-25.208 -8.629,-41.062l54.621,-0c-0,8.646 1.562,15.971 4.671,21.971c3.125,6.008 7.187,10.916 12.204,14.758c5.275,3.604 11.267,6.371 17.967,8.292c6.962,1.679 14.254,2.529 21.929,2.529c5.033,-0 10.433,-0.358 16.179,-1.075c5.746,-0.963 11.129,-2.658 16.162,-5.063c5.038,-2.4 9.221,-5.637 12.588,-9.72c3.35,-4.325 5.033,-9.725 5.033,-16.209c0,-6.966 -2.271,-12.616 -6.821,-16.937c-4.325,-4.325 -10.087,-7.917 -17.275,-10.8c-7.187,-3.121 -15.329,-5.642 -24.425,-7.567c-9.116,-2.158 -18.316,-4.571 -27.675,-7.212c-9.583,-2.4 -18.925,-5.284 -28.037,-8.642c-9.1,-3.604 -17.242,-8.158 -24.429,-13.683c-7.188,-5.525 -13.038,-12.38 -17.588,-20.542c-4.321,-8.167 -6.475,-18.258 -6.475,-30.267c0,-13.208 2.746,-24.616 8.246,-34.221c5.767,-9.85 13.179,-18.016 22.275,-24.504c9.117,-6.483 19.413,-11.283 30.921,-14.404c11.492,-3.125 23.004,-4.683 34.496,-4.683Zm-2651.72,6.137l56.425,0l-0,98.709l103.845,-0l0,-98.709l56.425,0l0,257.225l-56.425,0l0,-110.962l-103.845,-0l-0,110.962l-56.425,0l-0,-257.225Zm514.762,0l57.867,0l95.937,257.225l-58.575,0l-19.396,-57.296l-95.954,0l-20.121,57.296l-57.133,0l97.375,-257.225Zm360,0l56.042,0l107.104,172.571l0.729,0l0,-172.571l52.813,0l-0,257.225l-56.425,0l-106.738,-172.221l-0.692,0l0,172.221l-52.833,0l0,-257.225Zm434.567,0l56.058,0l107.084,172.571l0.729,0l-0,-172.571l52.833,0l0,257.225l-56.425,0l-106.721,-172.221l-0.729,0l0,172.221l-52.829,0l-0,-257.225Zm443.037,0l191.875,0l0,47.55l-135.466,0l-0,55.121l124.358,0l0,43.942l-124.358,-0l-0,63.062l138.366,0l0,47.55l-194.775,0l0,-257.225Zm415.921,0l56.409,0l-0,209.675l125.05,0l-0,47.55l-181.459,0l0,-257.225Zm-1625.48,63.409l-33.438,94.379l66.509,-0l-32.342,-94.379l-0.729,-0Zm-1402.62,35.604c-25.637,-0 -46.062,5.154 -61.283,15.433c-14.958,10.1 -22.425,24.975 -22.425,44.646c-0,18.962 7.333,33.687 22.021,44.142c14.958,10.458 35.512,15.687 61.687,15.687c26.171,0 46.621,-5.229 61.309,-15.687c14.954,-10.455 22.425,-25.18 22.425,-44.142c-0,-19.671 -7.605,-34.546 -22.83,-44.646c-14.954,-10.279 -35.266,-15.433 -60.904,-15.433Z" style="fill:#e7e7e7;fill-rule:nonzero;"/></g></svg>