<?xml version="1.0" encoding="UTF-8" standalone="no"?><!DOCTYPE svg PUBLIC "-//W3C//DTD SVG 1.1//EN" "http://www.w3.org/Graphics/SVG/1.1/DTD/svg11.dtd"><svg width="100%" height="100%" viewBox="0 0 4326 2120" version="1.1" xmlns="http://www.w3.org/2000/svg" xmlns:xlink="http://www.w3.org/1999/xlink" xml:space="preserve" xmlns:serif="http://www.serif.com/" style="fill-rule:evenodd;clip-rule:evenodd;stroke-linecap:square;stroke-linejoin:round;"><g id="Layer-2" serif:id="Layer 2"><g id="g121"><g id="g4704"><g id="text80"><g id="g1614"><g id="g76"><path id="path4684" d="M4293.24,32.906c14.222,13.828 20.951,30.963 20.951,49.832c-0,20.28 -6.729,36.791 -20.951,51.036c-13.365,13.573 -30.177,20.28 -49.855,20.28c-18.788,0.264 -36.89,-7.045 -50.226,-20.28c-13.551,-14.222 -19.864,-30.756 -19.864,-51.036c0,-18.869 6.313,-36.027 19.864,-49.832c14.221,-13.62 31.032,-20.743 50.226,-20.743c19.493,0 36.466,7.123 49.855,20.743Zm8.348,-7.793c-15.909,-16.118 -35.172,-23.656 -58.227,-23.656c-22.546,-0 -41.831,7.538 -57.718,23.656c-16.348,16.511 -24.072,35.172 -24.072,57.625c0,22.963 7.724,43.104 23.841,58.551c15.91,16.118 35.403,24.465 57.949,24.465c23.032,0 42.318,-8.324 58.227,-24.465c16.118,-15.91 24.072,-35.588 24.072,-58.551c0,-22.43 -7.954,-41.484 -24.072,-57.625Zm-46.063,53.856c-3.353,1.434 -8.348,2.313 -15.031,2.313l-13.99,-0l-0,-32.513l13.597,-0c8.533,-0 15.262,1.272 19.008,2.96c3.561,2.544 5.642,6.914 5.642,13.435c-0.023,7.099 -2.497,11.863 -9.226,13.805Zm-45,49.162l15.933,0l-0,-36.004l12.325,-0c8.348,-0 14.221,1.202 17.805,3.353c5.643,3.099 8.14,10.221 8.14,20.881l0,7.122c-0.046,1.775 0.585,3.309 1.087,4.648l14.638,0c-0.726,-4.277 -1.499,-8.81 -1.665,-12.649l-0,-6.659c0.138,-5.109 -1.582,-10.094 -4.833,-14.037c-3.076,-4.972 -8.348,-7.7 -15.447,-9.203c5.411,-0.578 10.198,-1.873 13.134,-3.746c6.059,-3.747 8.811,-9.597 8.811,-17.991c-0,-11.077 -4.648,-18.846 -13.829,-22.616c-5.249,-2.081 -13.597,-3.514 -24.65,-3.514l-31.426,-0l0,90.415l-0.023,0Zm-3499.83,-127.854l-0,943.353l-707.532,-0l0,-943.353l707.532,0Zm-413.323,824.887c163.049,0 294.857,-158.863 294.857,-354.471c0,-194.405 -131.831,-353.037 -294.857,-353.037l-147.532,-0l-0,707.508l147.532,0Zm1155.96,-824.887l-0,943.353l-707.324,-0l0,-943.353l707.324,0Zm-294.464,119.252c-162.771,0 -294.996,158.216 -294.996,353.893c0,195.4 132.248,353.222 294.996,353.222l147.532,0l0,-707.115l-147.532,0Zm773.667,142.515l215.147,-0c118.396,-0 170.958,44.329 170.958,164.251l-0,88.774c-0,116.523 -37.045,171.396 -155.511,171.396l-230.594,0l-0,-424.421Zm113.424,325.612l99.18,-0c41.855,-0 57.163,-27.449 57.163,-72.587l-0,-88.774c-0,-54.596 -17.806,-65.673 -57.163,-65.673l-99.18,0l-0,227.034Zm291.689,-53.579l-0,-119.737c-0,-131.623 81.883,-155.233 196.694,-155.233c115.136,-0 196.094,23.61 196.094,155.233l-0,119.737c-0,131.022 -80.981,155.857 -196.094,155.857c-114.811,0 -196.694,-24.835 -196.694,-155.857Zm276.681,-11.909l-0,-95.873c-0,-63.175 -20.951,-68.841 -79.987,-68.841c-58.758,0 -78.229,5.666 -79.894,68.841l0,95.873c1.665,63.129 21.136,69.442 79.894,69.442c59.036,-0 79.987,-6.29 79.987,-69.442Zm258.205,65.488l177.501,-0l0,98.786l-290.324,0l-0,-424.398l112.823,-0l-0,325.612Zm196.671,-325.612l223.08,-0c84.542,-0 134.004,15.701 134.004,108.383c0,53.995 -10.521,88.774 -66.389,97.908l-0,4.833c62.158,4.162 73.211,41.623 73.211,94.809c0,104.429 -48.561,118.465 -138.93,118.465l-224.976,0l0,-424.398Zm113.24,169.87l81.166,0c39.796,0 49.624,-7.215 49.624,-40.791c0,-25.645 -3.977,-35.126 -35.773,-36.143l-95.017,-0l-0,76.934Zm-0,162.008l85.397,0c36.999,0 52.122,-8.602 52.122,-43.334c0,-35.542 -13.042,-40.375 -49.855,-40.375l-87.664,-0l-0,83.709Zm502.419,-56.492l0,149.012l-112.73,0l-0,-149.012l-151.117,-275.386l129.75,-0l76.148,163.164l3.977,0l77.813,-163.164l131.716,-0l-155.557,275.386Z" style="fill:#fff;"/><path id="path4686" d="M4061.12,66.621l0,810.804l-2362.14,0l0,-810.804l2362.14,-0Zm65.951,877.818l-0,-944.439l-2493.76,-0l0,943.352l2493.76,1.087Zm-4127.07,117.379l164.251,-0c117.171,-0 187.098,70.898 187.098,189.156c0,124.709 -70.899,192.532 -187.098,192.532l-164.251,-0l0,-381.688Zm99.596,296.29l47.058,0c75.362,-1.225 105.516,-31.333 105.516,-107.527c-0,-69.466 -37.485,-103.204 -105.516,-103.204l-47.058,0l-0,210.731Zm732.02,-296.29l0,381.526l-99.827,-0l-0,-381.526l99.827,-0Zm747.49,381.688l-64.47,-0l-5.411,-41.231c-26.2,36.814 -71.593,49.463 -106.51,49.463c-115.298,0 -190.266,-88.519 -190.266,-199.446c-0,-110.696 74.968,-198.637 190.266,-198.637c79.293,-0 163.65,42.271 172.437,137.889l-99.203,0c-3.145,-32.212 -35.588,-52.307 -75.154,-52.307c-64.239,0 -89.167,56.493 -89.167,113.055c0,57.325 24.928,114.256 89.167,114.256c49.139,0 82.207,-23.494 87.433,-58.226l-69.442,-0l0,-73.443l160.297,0l0,208.627l0.023,-0Zm489.216,-381.688l0,381.526l-99.781,-0l0,-381.526l99.781,-0Zm697.889,85.559l-113.979,0l-0,296.129l-99.226,-0l-0,-296.129l-113.864,0l-0,-85.559l327.069,-0l-0,85.559Zm465.883,-85.559l101.03,-0l142.908,381.688l-104.013,-0l-23.448,-68.425l-132.825,0l-24.535,68.425l-101.932,-0l142.815,-381.688Zm6.406,239.381l86.623,0l-42.225,-133.288l-1.272,0l-43.126,133.288Zm611.311,-239.381l99.411,-0l0,296.29l178.08,0l-0,85.398l-277.491,-0l0,-381.688Z" style="fill:#fff;"/></g><path id="path82" d="M149.139,1765.19c-67.2,0 -130.64,28.666 -130.64,104.795c-0,73.309 53.102,85.527 107.144,98.215l36.184,8.459c33.365,7.519 61.091,14.567 61.091,41.354c0,34.774 -40.414,43.233 -69.549,43.233c-36.655,0 -72.839,-13.628 -72.839,-54.042l-67.67,0c-0,80.358 64.38,112.313 136.749,112.313c103.855,0 140.979,-53.102 140.979,-107.144c0,-69.549 -53.572,-84.587 -88.347,-93.046l-82.237,-20.207c-15.038,-3.289 -36.655,-7.519 -36.655,-34.305c0,-30.545 31.955,-41.353 60.151,-41.353c38.534,-0 68.61,15.037 68.61,51.222l67.67,-0c-0,-92.576 -85.997,-109.494 -130.641,-109.494Z" style="fill:#fff;"/><path id="path84" d="M663.419,1773.65l-70.49,0l0,221.807c0,40.884 -19.737,64.38 -69.549,64.38c-34.305,0 -61.561,-20.677 -61.561,-67.67l0,-218.517l-70.489,0l-0,223.217c0.939,33.835 7.988,61.09 26.316,81.767c30.075,33.365 76.128,40.884 107.144,40.884c85.057,0 138.629,-38.064 138.629,-126.881l-0,-218.987Z" style="fill:#fff;"/><path id="path86" d="M793.901,2111.06l69.079,-0l0,-132.051l72.839,0c52.163,0 54.982,17.858 54.982,63.911c0,34.775 2.82,52.162 7.519,68.14l78.008,-0l0,-8.929c-15.037,-5.639 -15.037,-17.857 -15.037,-67.2c-0,-62.971 -15.038,-73.309 -42.764,-85.527c33.365,-11.278 52.162,-43.234 52.162,-80.358c0,-29.136 -16.447,-95.396 -106.204,-95.396l-170.584,0l-0,337.41Zm69.079,-188.912l0,-90.227l87.877,0c41.354,0 49.343,26.316 49.343,44.174c-0,33.365 -17.858,46.053 -54.512,46.053l-82.708,-0Z" style="fill:#fff;"/><path id="path88" d="M1194.59,2111.06l69.08,-0l-0,-132.051l72.839,0c52.162,0 54.982,17.858 54.982,63.911c-0,34.775 2.819,52.162 7.519,68.14l78.008,-0l-0,-8.929c-15.038,-5.639 -15.038,-17.857 -15.038,-67.2c0,-62.971 -15.038,-73.309 -42.763,-85.527c33.365,-11.278 52.162,-43.234 52.162,-80.358c-0,-29.136 -16.448,-95.396 -106.204,-95.396l-170.585,0l0,337.41Zm69.08,-188.912l-0,-90.227l87.877,0c41.354,0 49.342,26.316 49.342,44.174c0,33.365 -17.857,46.053 -54.512,46.053l-82.707,-0Z" style="fill:#fff;"/><path id="path90" d="M1574,1942.36c-0,100.565 53.572,177.163 162.126,177.163c100.095,0 162.125,-76.598 162.125,-177.163c0,-100.565 -62.03,-177.164 -162.125,-177.164c-108.554,0 -162.126,76.599 -162.126,177.164Zm162.126,116.073c-57.332,-0 -91.637,-48.873 -91.637,-116.073c0,-67.2 34.305,-116.073 91.637,-116.073c57.331,0 91.636,48.873 91.636,116.073c-0,67.2 -34.305,116.073 -91.636,116.073Z" style="fill:#fff;"/><path id="path92" d="M2285.63,1773.65l-70.49,0l0,221.807c0,40.884 -19.737,64.38 -69.549,64.38c-34.305,0 -61.561,-20.677 -61.561,-67.67l0,-218.517l-70.489,0l-0,223.217c0.939,33.835 7.988,61.09 26.316,81.767c30.075,33.365 76.128,40.884 107.144,40.884c85.057,0 138.629,-38.064 138.629,-126.881l-0,-218.987Z" style="fill:#fff;"/><path id="path94" d="M2693.05,1773.65l-67.67,0l0,229.796l-0.939,-0l-133.46,-229.796l-71.429,0l0,337.41l67.67,-0l-0,-228.386l0.939,-0l133.46,228.386l71.429,-0l0,-337.41Z" style="fill:#fff;"/><path id="path96" d="M2823.06,2111.06l146.148,-0c111.374,-0 140.039,-104.325 140.039,-176.694c0,-63.91 -23.496,-160.716 -137.219,-160.716l-148.968,0l0,337.41Zm69.08,-279.139l67.67,0c30.075,0 77.538,7.989 77.538,107.614c-0,55.452 -19.267,113.253 -76.599,113.253l-68.609,0l-0,-220.867Z" style="fill:#fff;"/><path id="path98" d="M3530.49,2111.06l255.642,-0l-0,-61.091l-187.972,-0l0,-85.058l165.415,0l0,-58.271l-165.415,0l0,-74.719l179.983,0l0,-58.271l-247.653,0l0,337.41Z" style="fill:#fff;"/><path id="path100" d="M3860.56,2111.06l82.708,-0l68.139,-115.133l63.911,115.133l86.467,-0l-110.433,-175.284l103.384,-162.126l-81.298,0l-62.031,109.024l-60.62,-109.024l-84.118,0l103.385,164.945l-109.494,172.465Z" style="fill:#fff;"/><path id="path1595" d="M3390.54,1942.53l0,-0c0,46.54 -38.296,84.836 -84.836,84.836c-0,0 -0.001,0 -0.001,0c-46.54,0 -84.836,-38.296 -84.836,-84.836c-0,-46.54 38.296,-84.837 84.836,-84.837c0,-0 0.001,-0 0.001,-0c46.54,-0 84.836,38.297 84.836,84.837Z" style="fill:#fff;stroke:#fff;stroke-width:11.81px;"/></g></g></g></g></g></svg>