<?xml version="1.0" encoding="UTF-8" standalone="no"?><!DOCTYPE svg PUBLIC "-//W3C//DTD SVG 1.1//EN" "http://www.w3.org/Graphics/SVG/1.1/DTD/svg11.dtd"><svg width="100%" height="100%" viewBox="0 0 5246 750" version="1.1" xmlns="http://www.w3.org/2000/svg" xmlns:xlink="http://www.w3.org/1999/xlink" xml:space="preserve" xmlns:serif="http://www.serif.com/" style="fill-rule:evenodd;clip-rule:evenodd;stroke-linejoin:round;stroke-miterlimit:2;"><g><path d="M232.671,652.271c128.646,-0 232.962,-122.638 232.962,-273.909c0,-151.312 -104.316,-273.908 -232.962,-273.908l-116.467,0l0,547.817l116.467,-0Zm326.417,92.233l-559.088,0l1.279,-744.504l559.088,-0l-1.279,744.504Z" style="fill:#e7e7e7;fill-rule:nonzero;"/><path d="M913.533,104.029c-128.645,0 -232.962,123.067 -232.962,274.867c-0,151.8 104.317,274.867 232.962,274.867l116.467,-0l0,-549.734l-116.467,0Zm-326.475,-104.029l559.084,0l-0,744.504l-559.084,0l0,-744.504Z" style="fill:#e7e7e7;fill-rule:nonzero;"/><path d="M5243.04,746.529l-0,-744.708l-4005.96,-0l0,743.842l4005.96,0.866Zm-3926.85,-58.079l-0,-606.054l3850.58,-3.892l-0.017,595.979l-3850.56,13.967Z" style="fill:#e7e7e7;fill-rule:nonzero;"/><path d="M1591.22,545.4l-0,-347.096l171.141,0c48.63,0 82.638,10.596 102.013,31.788c19.567,21.187 29.342,58.312 29.342,111.375c-0,86.625 -7.834,142.312 -23.475,167.062c-15.642,24.579 -50.917,36.871 -105.834,36.871l-173.187,0Zm66.058,-55.433l94.109,-0c31.633,-0 52.033,-7.209 61.216,-21.617c9.359,-14.579 14.029,-46.617 14.029,-96.117c0,-51.196 -4.166,-83.745 -12.5,-97.646c-8.333,-13.899 -27.883,-20.849 -58.666,-20.849l-98.188,-0l0,236.229Z" style="fill:#e7e7e7;fill-rule:nonzero;"/><path d="M2072.36,195.254c63.245,0 103.975,10.508 122.166,31.529c18.196,20.855 27.296,67.642 27.296,140.363c0,79.508 -9.187,129.6 -27.554,150.279c-18.196,20.683 -62.396,31.025 -132.621,31.025c-63.262,0 -104.15,-10.171 -122.692,-30.512c-18.525,-20.513 -27.795,-65.521 -27.795,-135.025c-0,-82.726 9.1,-134.684 27.291,-155.875c18.196,-21.188 62.829,-31.784 133.909,-31.784Zm-5.105,56.45c-44.375,0 -70.312,5.679 -77.795,17.038c-7.484,11.358 -11.217,50.687 -11.217,117.987c-0,49.838 4.342,79.842 13.004,90.013c8.838,10.171 34.688,15.258 77.533,15.258c40.975,0 65.559,-5.679 73.717,-17.037c8.158,-11.525 12.242,-46.28 12.242,-104.255c-0,-58.145 -3.909,-92.475 -11.738,-102.983c-7.658,-10.683 -32.9,-16.021 -75.746,-16.021Z" style="fill:#e7e7e7;fill-rule:nonzero;"/><path d="M2311.23,198.304l0,288.104l163.246,0l0,58.992l-229.304,0l0,-347.096l66.058,0Z" style="fill:#e7e7e7;fill-rule:nonzero;"/><path d="M2493.72,545.4l-0,-347.096l171.129,0c40.137,0 67.429,6.442 81.875,19.325c14.617,12.713 21.941,36.788 21.941,72.217c0.001,42.887 -17.1,68.146 -51.266,75.775l-0,1.275c39.792,6.104 59.671,33.65 59.671,82.642c-0,35.429 -7.638,60.262 -22.95,74.504c-15.296,14.237 -42,21.358 -80.088,21.358l-180.312,0Zm66.058,-201.392l80.85,0c26.179,0 42.846,-2.883 49.983,-8.645c7.309,-5.763 10.971,-19.071 10.971,-39.921c0,-27.804 -15.816,-41.704 -47.446,-41.704l-94.358,-0l0,90.27Zm0,145.959l72.429,-0l23.213,-0.509c22.275,0 36.891,-3.137 43.871,-9.408c7.137,-6.275 10.712,-19.496 10.712,-39.667c0,-21.02 -3.75,-34.245 -11.233,-39.67c-7.309,-5.425 -25.504,-8.138 -54.584,-8.138l-84.408,0l0,97.392Z" style="fill:#e7e7e7;fill-rule:nonzero;"/><path d="M3092.22,198.304l-129.063,214.613l0,132.483l-66.058,-0l0,-132.483l-125.467,-214.613l76.509,0l52.537,91.542c2.896,5.087 7.829,14.496 14.792,28.225l7.396,13.987l7.15,13.984l1.771,-0l7.395,-13.984l7.396,-13.987c6.304,-12.542 11.321,-21.954 15.054,-28.225l53.054,-91.542l77.534,0Z" style="fill:#e7e7e7;fill-rule:nonzero;"/><path d="M3510.26,299.508l-64.534,0c-0.346,-3.22 -0.521,-5.591 -0.521,-7.12c-1.529,-19.492 -5.85,-31.7 -13.004,-36.617c-7.133,-5.083 -23.975,-7.625 -50.504,-7.625c-31.283,-0 -51.771,2.879 -61.458,8.646c-9.529,5.762 -14.288,17.883 -14.288,36.358c0,21.871 3.909,35.008 11.738,39.413c7.812,4.408 33.662,7.8 77.533,10.175c51.858,2.879 85.367,10.254 100.488,22.12c15.312,11.867 22.95,36.534 22.95,73.996c-0,46.109 -8.921,75.946 -26.771,89.509c-17.846,13.391 -57.221,20.087 -118.088,20.087c-54.758,0 -91.146,-6.612 -109.166,-19.833c-17.85,-13.221 -26.771,-40.009 -26.771,-80.354l-0.263,-12.713l64.288,0l0.246,7.375c-0,24.242 4.25,39.075 12.741,44.496c8.509,5.425 31.717,8.137 69.634,8.137c29.583,0 48.458,-3.133 56.616,-9.408c8.175,-6.271 12.259,-20.767 12.259,-43.483c-0,-16.784 -3.163,-27.884 -9.446,-33.309c-6.129,-5.595 -19.463,-8.983 -40.054,-10.17l-36.459,-2.292c-55.104,-3.221 -90.291,-10.846 -105.587,-22.883c-15.313,-12.034 -22.971,-37.888 -22.971,-77.555c-0,-40.516 9.183,-67.47 27.554,-80.862c18.542,-13.563 55.433,-20.342 110.692,-20.342c52.362,0 87.658,6.188 105.854,18.563c18.192,12.375 27.292,36.529 27.292,72.466l-0,13.225Z" style="fill:#e7e7e7;fill-rule:nonzero;"/><path d="M3689.15,257.3l0,288.1l-66.058,0l-0,-288.1l-100.505,0l0.001,-58.996l270.624,0l0,58.996l-104.062,0Z" style="fill:#e7e7e7;fill-rule:nonzero;"/><path d="M3878.7,253.738l0,89.508l163.246,-0l-0,48.567l-163.246,-0l0,98.154l173.696,-0l-0,55.433l-239.758,0l-0.001,-347.096l238.23,0l-0,55.434l-172.167,-0Z" style="fill:#e7e7e7;fill-rule:nonzero;"/><path d="M4080.35,545.4l-0,-347.096l171.65,0c42.692,0 72.1,7.375 88.246,22.121c16.166,14.75 24.237,41.45 24.237,80.1c0,35.092 -4.079,59.079 -12.242,71.963c-7.983,12.883 -24.474,21.783 -49.474,26.7l-0,2.287c38.591,2.375 57.895,24.838 57.895,67.388l0,76.537l-66.058,0l0,-63.317c0,-35.77 -17.692,-53.654 -53.054,-53.654l-95.138,0l0,116.971l-66.062,0Zm66.062,-172.404l94.875,-0c22.625,-0 37.588,-3.984 44.896,-11.95c7.484,-8.138 11.217,-24.329 11.217,-48.567c-0,-24.75 -3.229,-40.687 -9.688,-47.808c-6.283,-7.288 -20.225,-10.934 -41.82,-10.934l-99.48,0l0,119.259Z" style="fill:#e7e7e7;fill-rule:nonzero;"/><path d="M4454.92,253.738l-0,89.508l163.229,-0l-0,48.567l-163.229,-0l-0,98.154l173.683,-0l0,55.433l-239.742,0l0,-347.096l238.213,0l-0,55.434l-172.154,-0Z" style="fill:#e7e7e7;fill-rule:nonzero;"/><path d="M4801.17,195.254c63.266,0 103.975,10.508 122.17,31.529c18.196,20.855 27.292,67.642 27.292,140.363c0,79.508 -9.183,129.6 -27.533,150.279c-18.196,20.683 -62.413,31.025 -132.638,31.025c-63.25,0 -104.133,-10.171 -122.675,-30.512c-18.541,-20.513 -27.796,-65.521 -27.796,-135.025c0,-82.726 9.096,-134.684 27.292,-155.875c18.196,-21.188 62.829,-31.784 133.888,-31.784Zm-5.084,56.45c-44.396,0 -70.312,5.679 -77.796,17.038c-7.483,11.358 -11.233,50.687 -11.233,117.987c0,49.838 4.342,79.842 13.021,90.013c8.838,10.171 34.688,15.258 77.533,15.258c40.975,0 65.538,-5.679 73.7,-17.037c8.175,-11.525 12.255,-46.28 12.255,-104.255c-0,-58.145 -3.921,-92.475 -11.734,-102.983c-7.658,-10.683 -32.9,-16.021 -75.746,-16.021Z" style="fill:#e7e7e7;fill-rule:nonzero;"/></g></svg>