<?xml version="1.0" encoding="UTF-8" standalone="no"?><!DOCTYPE svg PUBLIC "-//W3C//DTD SVG 1.1//EN" "http://www.w3.org/Graphics/SVG/1.1/DTD/svg11.dtd"><svg width="100%" height="100%" viewBox="0 0 18025 8834" version="1.1" xmlns="http://www.w3.org/2000/svg" xmlns:xlink="http://www.w3.org/1999/xlink" xml:space="preserve" xmlns:serif="http://www.serif.com/" style="fill-rule:evenodd;clip-rule:evenodd;stroke-linecap:square;stroke-linejoin:round;"><g id="Layer-2" serif:id="Layer 2"><g id="g121"><g id="g4704"><g id="text80"><g id="g1614"><g id="g76"><path id="path4684" d="M17888.5,137.108c59.258,57.617 87.296,129.013 87.296,207.634c-0,84.5 -28.038,153.296 -87.296,212.65c-55.688,56.554 -125.737,84.5 -207.729,84.5c-78.283,1.1 -153.709,-29.354 -209.275,-84.5c-56.463,-59.259 -82.767,-128.15 -82.767,-212.65c0,-78.621 26.304,-150.113 82.767,-207.634c59.254,-56.75 129.3,-86.429 209.275,-86.429c81.221,0 151.942,29.679 207.729,86.429Zm34.783,-32.471c-66.287,-67.158 -146.55,-98.566 -242.612,-98.566c-93.942,-0 -174.296,31.408 -240.492,98.566c-68.117,68.796 -100.3,146.55 -100.3,240.105c0,95.679 32.183,179.6 99.338,243.962c66.291,67.158 147.512,101.938 241.454,101.938c95.966,-0 176.325,-34.684 242.612,-101.938c67.159,-66.292 100.3,-148.283 100.3,-243.962c0,-93.459 -33.141,-172.85 -100.3,-240.105Zm-191.929,224.4c-13.971,5.975 -34.783,9.638 -62.629,9.638l-58.292,0l0,-135.471l56.655,0c35.554,0 63.591,5.3 79.199,12.334c14.838,10.599 23.509,28.808 23.509,55.979c-0.096,29.579 -10.404,49.429 -38.442,57.521Zm-187.5,204.841l66.388,0l-0,-150.016l51.354,-0c34.783,-0 59.254,5.008 74.187,13.97c23.513,12.913 33.917,42.588 33.917,87.004l0,29.675c-0.192,7.396 2.438,13.788 4.529,19.367l60.992,0c-3.025,-17.821 -6.246,-36.708 -6.938,-52.704l0,-27.746c0.575,-21.287 -6.591,-42.058 -20.137,-58.487c-12.817,-20.717 -34.783,-32.084 -64.363,-38.346c22.546,-2.409 42.492,-7.804 54.725,-15.609c25.246,-15.612 36.713,-39.987 36.713,-74.962c-0,-46.154 -19.367,-78.525 -57.621,-94.233c-21.871,-8.671 -56.654,-14.642 -102.708,-14.642l-130.942,-0l0,376.729l-0.096,0Zm-14582.6,-532.725l0,3930.64l-2948.05,-0l0,-3930.64l2948.05,0Zm-1722.18,3437.03c679.371,0 1228.57,-661.929 1228.57,-1476.96c-0,-810.021 -549.296,-1470.99 -1228.57,-1470.99l-614.717,0l0,2947.95l614.717,0Zm4816.5,-3437.03l0,3930.64l-2947.18,-0l-0,-3930.64l2947.18,0Zm-1226.93,496.884c-678.213,-0 -1229.15,659.233 -1229.15,1474.55c-0,814.166 551.033,1471.76 1229.15,1471.76l614.716,0l0,-2946.31l-614.716,0Zm3223.61,593.813l896.446,-0c493.317,-0 712.325,184.704 712.325,684.379l0,369.892c0,485.512 -154.354,714.15 -647.962,714.15l-960.809,-0l0,-1768.42Zm472.6,1356.72l413.25,-0c174.396,-0 238.179,-114.371 238.179,-302.446l0,-369.892c0,-227.483 -74.191,-273.637 -238.179,-273.637l-413.25,-0l0,945.975Zm1215.37,-223.246l-0,-498.904c-0,-548.429 341.179,-646.804 819.558,-646.804c479.734,-0 817.059,98.375 817.059,646.804l-0,498.904c-0,545.925 -337.421,649.404 -817.059,649.404c-478.379,0 -819.558,-103.479 -819.558,-649.404Zm1152.84,-49.621l0.001,-399.471c-0.001,-263.229 -87.296,-286.837 -333.28,-286.837c-244.825,-0 -325.954,23.608 -332.891,286.837l-0,399.471c6.937,263.038 88.066,289.342 332.891,289.342c245.984,-0 333.28,-26.209 333.28,-289.342Zm1075.85,272.867l739.587,-0l0,411.608l-1209.68,0l-0,-1768.33l470.096,0l-0,1356.72Zm819.462,-1356.72l929.5,0c352.258,0 558.35,65.421 558.35,451.596c0,224.979 -43.837,369.892 -276.621,407.95l0,20.137c258.992,17.342 305.046,173.43 305.046,395.038c0,435.121 -202.337,493.604 -578.875,493.604l-937.4,0l0,-1768.33Zm471.833,707.792l338.192,-0c165.817,-0 206.767,-30.063 206.767,-169.963c-0,-106.854 -16.571,-146.358 -149.054,-150.596l-395.905,0l0,320.559Zm0,675.033l355.821,0c154.163,0 217.175,-35.842 217.175,-180.558c0,-148.092 -54.341,-168.229 -207.729,-168.229l-365.267,-0l0,348.787Zm2093.41,-235.383l-0,620.883l-469.708,0l-0,-620.883l-629.655,-1147.44l540.625,0l317.284,679.85l16.571,0l324.22,-679.85l548.817,0l-648.154,1147.44Z" style="fill:#e7e7e7;"/><path id="path4686" d="M16921.3,277.588l0,3378.35l-9842.25,0l0,-3378.35l9842.25,0Zm274.796,3657.58l0,-3935.16l-10390.7,-0l-0,3930.63l10390.7,4.529Zm-17196.1,489.08l684.379,-0c488.213,-0 779.575,295.408 779.575,788.15c0,519.621 -295.412,802.216 -779.575,802.216l-684.379,0l0,-1590.37Zm414.984,1234.54l196.075,0c314.008,-5.104 439.65,-130.554 439.65,-448.029c-0,-289.442 -156.188,-430.017 -439.65,-430.017l-196.075,0l-0,878.046Zm3050.08,-1234.54l-0,1589.69l-415.946,0l0,-1589.69l415.946,-0Zm3114.54,1590.37l-268.625,0l-22.546,-171.796c-109.167,153.392 -298.304,206.096 -443.792,206.096c-480.408,0 -792.775,-368.829 -792.775,-831.025c0,-461.233 312.367,-827.654 792.775,-827.654c330.388,0 681.875,176.129 718.488,574.538l-413.346,-0c-13.104,-134.217 -148.284,-217.946 -313.142,-217.946c-267.662,-0 -371.529,235.387 -371.529,471.062c-0,238.854 103.867,476.067 371.529,476.067c204.746,-0 342.529,-97.892 364.304,-242.608l-289.341,-0l-0,-306.013l667.904,0l-0,869.279l0.096,0Zm2038.4,-1590.37l-0,1589.69l-415.755,0l0,-1589.69l415.755,-0Zm2907.87,356.495l-474.912,0l-0,1233.87l-413.442,0l0,-1233.87l-474.433,0l-0,-356.495l1362.79,-0l0,356.495Zm1941.18,-356.495l420.958,-0l595.45,1590.37l-433.388,0l-97.7,-285.104l-553.437,0l-102.229,285.104l-424.717,0l595.063,-1590.37Zm26.691,997.42l360.929,0l-175.937,-555.366l-5.3,-0l-179.692,555.366Zm2547.13,-997.42l414.213,-0l-0,1234.54l742,0l-0,355.825l-1156.21,0l0,-1590.37Z" style="fill:#e7e7e7;"/></g><path id="path82" d="M621.413,7354.96c-280,0 -544.334,119.442 -544.334,436.646c0,305.454 221.259,356.363 446.434,409.229l150.766,35.246c139.021,31.329 254.546,60.696 254.546,172.309c0,144.891 -168.392,180.137 -289.787,180.137c-152.73,0 -303.496,-56.783 -303.496,-225.175l-281.959,0c0,334.825 268.25,467.971 569.788,467.971c432.729,-0 587.412,-221.258 587.412,-446.433c0,-289.788 -223.216,-352.446 -368.112,-387.692l-342.654,-84.196c-62.659,-13.704 -152.729,-31.329 -152.729,-142.937c-0,-127.271 133.145,-172.305 250.629,-172.305c160.558,0 285.875,62.655 285.875,213.425l281.958,0c0,-385.733 -358.321,-456.225 -544.337,-456.225Z" style="fill:#e7e7e7;"/><path id="path84" d="M2764.25,7390.21l-293.709,0l0,924.196c0,170.35 -82.237,268.25 -289.787,268.25c-142.938,0 -256.504,-86.154 -256.504,-281.958l-0,-910.488l-293.704,0l-0,930.071c3.912,140.979 33.283,254.542 109.65,340.696c125.312,139.021 317.2,170.35 446.433,170.35c354.404,0 577.621,-158.6 577.621,-528.671l-0,-912.446Z" style="fill:#e7e7e7;"/><path id="path86" d="M3307.92,8796.08l287.829,0l-0,-550.212l303.496,-0c217.346,-0 229.091,74.408 229.091,266.296c0,144.896 11.751,217.341 31.33,283.916l325.033,0l-0,-37.204c-62.654,-23.496 -62.654,-74.404 -62.654,-280c-0,-262.379 -62.659,-305.454 -178.184,-356.362c139.021,-46.992 217.342,-180.142 217.342,-334.825c0,-121.4 -68.529,-397.484 -442.516,-397.484l-710.767,0l-0,1405.88Zm287.829,-787.133l0,-375.946l366.154,0c172.309,0 205.596,109.65 205.596,184.058c-0,139.021 -74.408,191.888 -227.133,191.888l-344.617,-0Z" style="fill:#e7e7e7;"/><path id="path88" d="M4977.46,8796.08l287.834,0l-0,-550.212l303.495,-0c217.342,-0 229.092,74.408 229.092,266.296c0,144.896 11.746,217.341 31.329,283.916l325.034,0l-0,-37.204c-62.659,-23.496 -62.659,-74.404 -62.659,-280c0,-262.379 -62.658,-305.454 -178.179,-356.362c139.021,-46.992 217.342,-180.142 217.342,-334.825c-0,-121.4 -68.533,-397.484 -442.517,-397.484l-710.771,0l0,1405.88Zm287.834,-787.133l-0,-375.946l366.154,0c172.308,0 205.592,109.65 205.592,184.058c-0,139.021 -74.405,191.888 -227.134,191.888l-344.612,-0Z" style="fill:#e7e7e7;"/><path id="path90" d="M6558.33,8093.17c0,419.02 223.217,738.179 675.525,738.179c417.063,-0 675.521,-319.158 675.521,-738.179c0,-419.021 -258.458,-738.184 -675.521,-738.184c-452.308,0 -675.525,319.163 -675.525,738.184Zm675.525,483.637c-238.883,0 -381.82,-203.637 -381.82,-483.637c-0.001,-280 142.937,-483.638 381.82,-483.638c238.88,0 381.817,203.638 381.817,483.638c0,280 -142.938,483.637 -381.817,483.637Z" style="fill:#e7e7e7;"/><path id="path92" d="M9523.46,7390.21l-293.708,0l0,924.196c0,170.35 -82.237,268.25 -289.787,268.25c-142.938,0 -256.505,-86.154 -256.505,-281.958l0,-910.488l-293.704,0l0,930.071c3.913,140.979 33.284,254.542 109.65,340.696c125.313,139.021 317.2,170.35 446.434,170.35c354.404,0 577.62,-158.6 577.62,-528.671l0,-912.446Z" style="fill:#e7e7e7;"/><path id="path94" d="M11221,7390.21l-281.959,0l0,957.484l-3.912,-0l-556.083,-957.484l-297.621,0l-0,1405.88l281.958,0l0,-951.608l3.913,0l556.083,951.608l297.621,0l-0,-1405.88Z" style="fill:#e7e7e7;"/><path id="path96" d="M11762.8,8796.08l608.95,0c464.058,0 583.496,-434.687 583.496,-736.225c-0,-266.291 -97.9,-669.65 -571.746,-669.65l-620.7,0l0,1405.88Zm287.833,-1163.08l281.959,0c125.312,0 323.075,33.288 323.075,448.392c-0,231.05 -80.28,471.887 -319.163,471.887l-285.871,0l0,-920.279Z" style="fill:#e7e7e7;"/><path id="path98" d="M14710.4,8796.08l1065.17,0l0,-254.546l-783.217,0.001l0,-354.409l689.229,0l0.001,-242.796l-689.23,0l0,-311.329l749.93,0l-0.001,-242.796l-1031.89,0l0,1405.88Z" style="fill:#e7e7e7;"/><path id="path100" d="M16085.7,8796.08l344.616,0l283.913,-479.72l266.296,479.72l360.279,0l-460.138,-730.35l430.767,-675.525l-338.742,0l-258.462,454.267l-252.583,-454.267l-350.492,0l430.771,687.271l-456.225,718.604Z" style="fill:#e7e7e7;"/><path id="path1595" d="M14127.2,8093.88c0,193.917 -159.567,353.483 -353.483,353.483l-0.004,0c-193.917,0 -353.484,-159.566 -353.484,-353.483c0,-193.917 159.567,-353.487 353.484,-353.487l0.004,-0c193.916,-0 353.483,159.57 353.483,353.487Z" style="fill:#e7e7e7;stroke:#fff;stroke-width:49.21px;"/></g></g></g></g></g></svg>