<?xml version="1.0" encoding="UTF-8" standalone="no"?><!DOCTYPE svg PUBLIC "-//W3C//DTD SVG 1.1//EN" "http://www.w3.org/Graphics/SVG/1.1/DTD/svg11.dtd"><svg width="100%" height="100%" viewBox="0 0 6392 1355" version="1.1" xmlns="http://www.w3.org/2000/svg" xmlns:xlink="http://www.w3.org/1999/xlink" xml:space="preserve" xmlns:serif="http://www.serif.com/" style="fill-rule:evenodd;clip-rule:evenodd;stroke-linejoin:round;stroke-miterlimit:2;"><g><path d="M4974.25,18.208c-37.604,-1.783 -73.508,11.534 -104.429,29.738c-67.55,38.404 -99.809,144.083 -99.809,230.517c0.001,131.341 38.613,291.383 183.476,291.383c141.562,-0 202.741,-115.229 202.741,-294.513l-177.012,22.38l-0,63.979c30.571,-7.392 61.821,-11.634 93.262,-12.659c3.229,115.217 -64.341,160.038 -122.291,150.417c-54.742,-12.75 -96.58,-86.446 -103.038,-160.046c-6.371,-73.691 3.317,-150.504 19.358,-185.7c32.255,-57.65 80.538,-67.271 112.688,-60.854c35.4,9.625 70.871,38.404 74.1,70.396l67.55,-41.613c-47.067,-73.879 -98.246,-101.129 -146.596,-103.425Zm-236.392,48.988l-64.408,35.2l0,313.746l-131.979,-268.929l-64.392,22.45l0,396.979l64.392,-0l-0,-284.963l128.821,284.963l67.566,-0l0.005,-499.446l-0.005,-0Zm-286.512,108.887l-64.408,19.15l-0,371.396l64.408,0l-0,-390.546Zm-176.075,65.346c-34.238,-1.583 -78.579,10.288 -132.9,30.704l-0,294.496c35.383,0 64.321,-3.2 93.35,-9.616c73.992,-22.367 125.504,-76.809 125.504,-172.867c0,-100.075 -28.908,-140.083 -85.954,-142.717Zm-19.013,59.5c24.95,0.65 37.413,22.384 37.413,89.634c-0.067,57.65 -25.713,89.554 -57.95,102.383c-9.688,3.204 -19.359,3.212 -28.942,3.212l0,-182.408c19.913,-7.717 36.425,-13.162 49.479,-12.821Z" style="fill:#e7e7e7;fill-rule:nonzero;"/><path d="M4049.1,288.083c-32.167,0 -74.096,6.425 -122.292,15.959l0,265.716l61.184,0l-0.001,-108.883c6.459,-0 12.917,-3.208 19.359,-0c28.937,-0 38.608,16.037 44.962,22.45c9.688,22.454 12.917,48.029 19.359,86.433l51.512,0c-0.158,-41.529 -9.846,-105.6 -51.6,-124.846c41.842,-15.954 54.742,-38.399 54.742,-89.633c-0,-48.029 -35.383,-67.196 -77.225,-67.196Zm-15.938,50.017c16.859,-0.246 28.667,4.896 28.667,23.596c3.313,32.071 -12.813,48.025 -54.654,51.233c-6.442,0 -16.113,0.004 -25.8,-3.204l-0,-63.992c18.108,-3.008 36.912,-7.416 51.787,-7.633Z" style="fill:#e7e7e7;fill-rule:nonzero;"/><path d="M3271.44,376.438c-30.034,-0.013 -64.1,7.904 -88.284,10.912l0,182.496l48.284,-0l-0,-76.9c6.458,-0 12.829,-3.204 19.358,-3.204c28.942,12.745 35.379,63.979 38.608,80.016l48.284,0c-3.23,-31.991 -12.9,-79.929 -41.842,-86.346c32.258,-6.412 48.3,-19.245 41.842,-57.65c-3.367,-39.104 -32.221,-49.308 -66.25,-49.325Zm-2.346,38.8c15.504,-0.112 26.666,3.95 26.666,20.142c0.088,16.038 -16.02,22.367 -44.962,22.367l-22.571,-0l0,-38.4c14.096,-1.404 28.804,-4.021 40.867,-4.109Z" style="fill:#e7e7e7;fill-rule:nonzero;"/><path d="M2800.24,355.279l-77.309,211.354l48.284,0l16.041,-48.021l35.467,0l44.983,3.2l12.988,44.821l54.65,0l-77.221,-208.066l-57.883,-3.288Zm25.712,57.65l25.713,64.067l-28.942,-0l-16.108,-3.204l19.337,-60.863Z" style="fill:#e7e7e7;fill-rule:nonzero;"/><path d="M2529.79,320.079l-0,246.55l48.196,0l-0,-89.633c6.458,-3.204 12.9,-0 16.125,-0c25.712,-0 35.383,9.616 35.383,12.821c29.029,22.366 25.729,76.812 25.729,76.812l45.071,0c0.154,-38.4 -12.742,-96.05 -48.213,-102.467c35.384,-6.412 48.284,-25.666 48.284,-67.195c-0,-76.896 -93.354,-67.184 -170.575,-76.888Zm48.366,44.817c51.513,-0 74.013,22.462 74.013,44.829c-0.088,19.246 -22.571,35.196 -57.883,28.783l-16.13,0l0,-73.612Z" style="fill:#e7e7e7;fill-rule:nonzero;"/><path d="M3646.68,489.825c12.813,3.204 32.171,6.413 41.842,9.533c-16.129,54.446 -48.283,73.692 -93.35,73.692c-93.438,0 -122.292,-118.425 -70.871,-188.912c32.171,-44.817 115.85,-73.6 157.675,9.625l-35.296,22.366c-32.171,-41.612 -83.679,-6.412 -90.121,28.784c-6.458,22.454 -22.587,73.604 35.384,89.641c27.15,2.988 51.612,-16.491 54.616,-43.5c0.055,-0.408 0.071,-0.821 0.121,-1.233l0,0.004Zm-286.421,76.817l0,-201.742l122.292,-12.746l0,44.821l-70.783,9.542l-0,35.196l64.341,-3.209l0.001,38.492l-64.342,3.121l-0,41.7l74.012,3.204l0,41.612l-125.525,0.005l0.004,0.004Zm-418.454,-6.417l0,-182.487l51.513,6.408l-0,134.467l93.35,-0l-0,41.612l-144.863,0Zm-553.558,6.417l-0,-208.067l-57.967,-12.829l0,-57.654l177.029,31.996l0,54.441l-64.341,-9.621l-0,201.738l-54.721,-0.004Zm-119.063,-80.021l48.196,25.575c-80.45,118.429 -205.971,63.987 -234.983,-25.575c-16.042,-54.442 -25.713,-144.083 35.383,-195.233c74.079,-67.275 160.9,-48.03 193.142,25.575l-45.054,25.575c-25.796,-47.946 -77.221,-51.15 -109.479,-12.746c-32.063,41.612 -25.709,92.85 -22.479,121.633c6.437,63.983 83.679,99.179 135.275,35.196Z" style="fill:#e7e7e7;fill-rule:nonzero;"/><path d="M1606.04,105.596l-0,457.833l64.412,0l0,-172.867c19.35,6.417 32.163,9.534 51.513,9.534c38.612,3.208 73.991,3.212 99.72,-15.95c32.242,-22.45 38.7,-48.025 41.842,-86.434c0,-41.612 -22.5,-102.479 -67.571,-131.262c0,-0 -67.546,-31.983 -90.112,-38.4l-99.804,-22.454Zm280.058,70.487l-0,387.346l177.029,0l0,-60.854l-109.479,-9.629l-0,-92.85l83.679,16.046l0,-51.246l-83.679,-22.363l-0,-76.891l109.479,35.187l0,-63.983l-177.033,-60.763l0.004,0Zm-215.642,22.363c41.838,9.625 103.021,22.454 115.921,51.233c16.042,28.783 12.813,51.154 6.371,67.196c-9.671,22.454 -38.609,22.45 -70.779,16.037c-16.125,-3.208 -32.246,-6.412 -51.513,-16.037l0,-118.429Z" style="fill:#e7e7e7;fill-rule:nonzero;"/><path d="M1393.63,0c-90.121,0 -154.45,57.654 -154.279,147.213c0,92.85 64.325,137.583 144.858,156.829c77.225,16.037 115.85,32.083 115.85,112.1c0,57.65 -38.612,96.054 -96.571,96.054c-48.283,-0 -90.133,-35.2 -109.483,-86.434l-73.996,-9.62c16.038,99.266 80.446,160.033 189.834,160.033l2.133,-0c91.858,-0.563 165.875,-75.079 165.312,-166.45c0,-102.475 -64.329,-160.129 -173.8,-176.079c-54.737,-9.625 -93.362,-28.792 -93.362,-83.234c0,-51.233 35.392,-86.433 83.679,-86.433c57.963,0 93.271,41.529 106.167,99.179l64.325,22.454l-3.234,-35.2c-6.441,-86.433 -80.533,-150.412 -167.433,-150.412Zm-154.442,611.458l0,742.713l3888.02,-0l0,-742.713l-3888.02,0Zm73.996,73.6l3736.82,0l0,589.096l-3736.82,0l0,-589.096Z" style="fill:#e7e7e7;fill-rule:nonzero;"/><path d="M1506.33,832.271l0,332.912l186.704,0c22.571,0 57.959,-6.337 74,-19.25c38.609,-25.579 45.05,-70.4 45.05,-112.012l0,-76.804c0,-86.434 -45.05,-124.846 -128.812,-124.846l-176.942,-0Zm80.538,64.067l86.821,-0c57.962,-0 57.95,35.2 57.95,80.016l-0,64.071c-3.225,41.613 -19.338,60.85 -57.95,60.85l-86.821,0l-0,-204.937Z" style="fill:#e7e7e7;fill-rule:nonzero;"/><path d="M1995.49,832.271c-135.105,-0 -151.321,48.033 -151.321,169.667l-0,28.779c-0,112.096 45.07,134.466 151.32,134.466l6.442,0c131.958,0 154.442,-47.95 154.442,-169.662l-0,-64.071c-6.354,-89.471 -83.575,-99.179 -154.442,-99.179l-6.442,-0Zm-3.141,60.854l28.937,0c54.725,0 61.184,28.875 61.184,73.7l-0,51.233c-0,63.979 -16.042,83.217 -80.455,83.217c0,3.213 0,0 -3.229,0c-61.091,0 -74.008,-25.65 -74.008,-76.888l0,-25.579c0,-73.691 -9.654,-105.683 67.571,-105.683Z" style="fill:#e7e7e7;fill-rule:nonzero;"/><path d="M4692.71,832.271c-135.191,-0 -151.32,48.033 -151.32,169.667l-0.001,28.779c0.001,112.096 45.071,134.466 151.321,134.466l6.442,0c131.963,0 154.529,-47.95 154.529,-169.662l0,-64.071c-6.437,-89.471 -83.662,-99.179 -154.529,-99.179l-6.442,-0Zm-3.316,60.854l28.941,0c54.721,0 61.184,28.875 61.184,73.7l0.066,51.233l0.017,0c0,63.979 -16.125,83.217 -80.45,83.217c0,3.213 0,0 -3.229,0c-61.179,0 -74.079,-25.65 -74.079,-76.888l-0,-25.579c-0,-73.691 -9.671,-105.683 67.55,-105.683Z" style="fill:#e7e7e7;fill-rule:nonzero;"/><path d="M2195.16,825.942l0,336.112l225.242,0l0,-67.183l-148.092,-0l0,-268.929l-77.15,-0Zm260.709,6.416l-0,332.913l183.387,-0c73.992,-0 99.809,-25.588 99.809,-96.067c-0.001,-41.612 -9.584,-67.187 -54.742,-73.6l-0,-3.212c41.929,-9.621 48.283,-35.192 48.283,-76.805c0,-64.066 -35.4,-83.229 -93.35,-83.229l-183.387,0Zm77.154,60.767l86.892,-0c28.941,-0 38.7,6.417 38.7,35.196c-0,38.408 -16.13,38.416 -54.742,38.416l-70.85,0l-0,-73.612Zm-0.017,128.133l83.679,0c32.155,0 45.055,3.217 45.055,38.417c0.087,41.608 -19.255,41.6 -54.638,41.6l-74.096,-0l0,-80.017Z" style="fill:#e7e7e7;fill-rule:nonzero;"/><path d="M2919.33,1037.22l0,124.841l-77.329,0l-0,-124.841l-112.517,-211.279l80.367,-0l70.779,137.67l74.079,-137.671l86.892,0l-122.275,211.28l0.004,-0Zm415.158,-108.805c0,-38.491 -12.9,-44.816 -48.3,-44.816l-12.812,-0c-29.025,-0 -54.738,3.204 -54.738,38.4c0,35.2 16.13,38.412 48.3,38.412c83.663,6.413 154.442,-3.212 154.442,99.263c-0,25.575 -3.229,60.775 -25.713,76.812c-25.795,22.45 -64.32,25.58 -96.579,25.58l-22.566,-0c-90.125,-0 -135.192,-6.417 -135.192,-108.892l70.779,-0c0,28.783 6.442,48.029 38.613,48.029l45.07,0c28.921,0 48.28,-3.208 48.28,-41.612c-0,-28.867 -16.042,-32.075 -45.071,-35.2c-90.121,-6.413 -157.671,6.416 -157.671,-102.388c-0,-60.858 22.5,-86.433 83.679,-92.85c16.129,-3.208 35.471,-3.208 51.513,-3.208c74.079,-0 131.958,-0 131.958,92.85l-0,9.625l-73.992,-0.004Zm254.325,233.645l-77.312,0l-0,-265.72l-90.121,-0l0,-70.396l260.713,-0l-0,70.396l-93.28,-0l0,265.72Zm180.259,-195.237l151.233,-0l0,51.233l-151.233,0l-0,80.017l160.904,-0l-0,63.983l-235,0l-0,-336.116l231.771,-0l-0,63.983l-157.675,-0l-0,76.9Z" style="fill:#e7e7e7;fill-rule:nonzero;"/><path d="M0,611.458l0,742.713l547.2,-0l0,-742.713l-547.2,0Zm598.621,0l-0,742.713l550.342,-0l-0,-742.713l-550.342,0Zm4641.29,0l-0,742.713l547.204,-0l-0,-742.713l-547.204,0Zm598.629,0l-0,742.713l550.346,-0l-0,-742.713l-550.346,0Zm-334.617,86.509c61.196,-0 122.292,19.25 157.671,48.033c32.171,28.783 57.971,76.808 57.971,131.25l-119.063,0c0,-25.662 -16.025,-48.025 -29.012,-60.854c-19.271,-15.95 -48.23,-25.579 -77.238,-25.579c-28.941,-0 -51.441,6.416 -64.342,19.25c-16.025,6.416 -22.483,28.783 -22.483,51.237c0,28.779 32.171,51.142 90.142,67.179c12.9,0 25.796,6.417 35.379,6.417c41.842,9.621 74.079,19.254 86.892,25.667c19.358,6.412 35.4,12.737 48.3,19.237c22.571,12.746 45.054,28.784 54.721,47.946c9.604,22.45 16.062,48.033 16.062,76.9c0,54.446 -19.358,102.388 -57.987,128.05c-38.613,31.992 -99.775,51.146 -170.555,51.146c-70.783,-0 -125.52,-19.242 -164.133,-51.146c-41.996,-32.242 -64.496,-80.267 -64.496,-141.042l119.063,0c-0,31.988 12.9,57.646 32.15,73.6c22.5,12.83 54.741,19.25 90.125,19.25c28.937,0 57.983,-6.337 70.796,-19.25c16.129,-9.541 25.783,-25.579 25.783,-47.946c-0,-35.2 -48.283,-64.054 -138.404,-83.216l-6.459,-6.417l-12.812,0c-48.279,-6.333 -90.121,-22.371 -112.604,-35.2c-19.359,-12.746 -38.696,-32 -45.071,-51.162c-10.571,-23.138 -16.042,-48.263 -16.021,-73.684c-0,-51.237 16.021,-92.85 54.721,-121.633c35.383,-28.867 90.121,-48.033 160.904,-48.033Zm389.271,16.037l260.708,0c57.954,0 106.233,12.834 138.404,38.413c29.029,28.783 45.071,70.387 45.071,124.833c0,35.2 -9.687,60.779 -22.5,83.229c-12.9,19.167 -38.612,41.533 -67.642,47.946c25.8,6.421 48.3,25.667 54.759,38.417c9.671,16.037 19.341,51.22 19.341,83.216l0,70.396c0,32.079 6.442,54.454 22.567,61.117l0,12.833l-131.958,0c-0,-6.417 -6.442,-16.046 -6.442,-25.667c0,-12.745 -3.229,-28.787 -3.229,-41.616l-0,-57.65c-0,-35.2 -9.688,-60.859 -19.358,-70.4c-12.9,-16.038 -32.238,-22.45 -61.18,-22.45l-115.85,-0l0,217.696l-112.691,-0l-0,-560.313Zm-5777.29,12.759l77.225,-0c141.558,-0 257.479,115.212 257.479,252.883c0,144 -115.921,259.308 -257.479,259.308l-77.225,0l0,-512.191Zm839.975,-0l74.008,-0l0,512.191l-74.008,0c-141.637,0 -257.475,-115.308 -257.475,-259.308c0,-137.671 115.838,-252.883 257.475,-252.883Zm5050,83.145l0,150.5l125.521,0c29.025,0 51.525,-6.504 64.408,-19.25c12.9,-9.625 22.588,-28.791 22.588,-54.45c-0,-22.366 -9.688,-44.812 -19.359,-54.437c-16.129,-15.95 -35.4,-22.363 -57.97,-22.363l-135.192,0l0.004,0Zm-1718.65,19.238l0,332.908l238.109,0l-0,-63.979l-160.884,0l0,-76.817l151.213,0l-0,-54.433l-151.213,0l0,-73.7l157.671,0l0.004,-63.979l-234.9,-0Z" style="fill:#e7e7e7;fill-rule:nonzero;"/><path d="M3801.22,313.75c-54.742,0 -106.25,54.438 -106.25,131.25c-3.229,73.604 45.066,131.263 103.037,131.263c61.092,3.208 109.375,-47.951 109.375,-131.263c3.229,-83.313 -41.754,-131.25 -106.162,-131.25Zm-0,54.45c28.941,0 51.441,35.192 51.441,80.013c0,38.404 -16.129,73.604 -54.654,76.816c-29.029,0 -51.512,-35.2 -51.512,-76.816c-0,-44.821 25.712,-80.013 54.725,-80.013Z" style="fill:#e7e7e7;fill-rule:nonzero;"/><path d="M3965.33,832.271l0,332.912l74.013,0l-0,-102.383l77.22,0c32.155,0 41.842,19.242 41.842,51.238l0,51.145l77.221,0l0,-67.196c0.071,-41.533 -16.025,-63.979 -57.862,-67.183c16.02,-6.417 28.937,-6.421 38.608,-19.25c25.8,-15.95 25.8,-47.942 25.8,-73.6c-0,-83.229 -35.383,-105.683 -115.921,-105.683l-160.921,-0Zm74.013,64.154l77.22,0c41.842,0 45.071,12.746 45.071,51.237c0.067,35.113 -6.458,54.351 -45.07,54.351l-77.221,-0l-0,-105.588Z" style="fill:#e7e7e7;fill-rule:nonzero;"/></g></svg>