<?xml version="1.0" encoding="UTF-8" standalone="no"?><!DOCTYPE svg PUBLIC "-//W3C//DTD SVG 1.1//EN" "http://www.w3.org/Graphics/SVG/1.1/DTD/svg11.dtd"><svg width="100%" height="100%" viewBox="0 0 1534 275" version="1.1" xmlns="http://www.w3.org/2000/svg" xmlns:xlink="http://www.w3.org/1999/xlink" xml:space="preserve" xmlns:serif="http://www.serif.com/" style="fill-rule:evenodd;clip-rule:evenodd;stroke-linejoin:round;stroke-miterlimit:2;"><g><path d="M0.167,193.123l-0,81.877l48.284,0c15.722,0 27.058,-2.118 34.01,-6.349c12.192,-7.51 18.288,-19.197 18.288,-35.064c-0,-13.647 -4.542,-23.96 -13.633,-30.942c-8.128,-6.347 -19.361,-9.522 -33.692,-9.522l-53.257,-0Zm143.289,-0l-0,81.877l19.252,0l-0,-81.877l-19.252,-0Zm87.529,-0c-7.807,-0 -13.209,1.324 -16.204,3.969c-2.887,2.644 -4.33,7.774 -4.33,15.391l0,43.157c0,7.616 1.443,12.747 4.33,15.391c2.995,2.644 8.397,3.969 16.204,3.969l57.113,0c7.807,0 13.151,-1.325 16.039,-3.969c2.994,-2.644 4.495,-7.775 4.495,-15.391l-0,-28.243l-50.213,-0l-0,13.965l31.442,-0l0,18.247l-60.158,0l0,-51.886l60.158,-0l0,9.201l18.771,-3.333c-0,-8.04 -1.393,-13.431 -4.174,-16.182c-2.674,-2.856 -8.125,-4.287 -16.36,-4.287l-57.113,0Zm125.504,0l0,81.878l19.252,-0l-0,-81.878l-19.252,0Zm50.263,0l0,14.601l38.019,-0l-0,67.277l19.25,-0l-0,-67.277l38.183,-0l0,-14.601l-95.452,0Zm158.577,0l-46.846,81.878l19.255,-0l9.625,-17.93l52.454,0l9.946,17.93l21.658,-0l-47.483,-81.878l-18.609,0Zm101.354,0l0,81.878l81.334,-0l-0,-15.391l-62.084,0l0,-66.487l-19.25,0Zm205.6,0c-7.808,0 -13.208,1.325 -16.204,3.97c-2.887,2.644 -4.329,7.774 -4.329,15.39l0,9.043c0,7.616 1.442,12.746 4.329,15.391c2.996,2.644 8.396,3.969 16.204,3.969l51.655,-0l-0,18.724l-58.555,0l0,-9.682l-17.004,3.492c0,8.463 1.334,14.173 4.009,17.135c2.675,2.962 8.237,4.446 16.687,4.446l51.175,-0c7.808,-0 13.204,-1.325 16.2,-3.969c2.992,-2.644 4.496,-7.775 4.496,-15.391l-0,-11.263c-0,-7.616 -1.504,-12.751 -4.496,-15.395c-2.996,-2.645 -8.392,-3.965 -16.2,-3.965l-51.658,0l-0,-17.612l54.225,-0l-0,9.36l17.004,-3.965c-0,-7.722 -1.446,-12.905 -4.333,-15.55c-2.888,-2.75 -8.288,-4.127 -16.2,-4.127l-47.005,-0Zm134.48,-0c-7.805,-0 -13.209,1.324 -16.205,3.969c-2.887,2.644 -4.329,7.774 -4.329,15.391l0,43.157c0,7.616 1.442,12.747 4.329,15.391c2.996,2.644 8.4,3.969 16.205,3.969l60.962,0c7.808,0 13.154,-1.325 16.042,-3.969c2.996,-2.644 4.491,-7.775 4.491,-15.391l0,-43.158c0,-7.616 -1.495,-12.746 -4.491,-15.39c-2.888,-2.645 -8.234,-3.97 -16.042,-3.97l-60.962,0Zm129.941,0l0,62.518c0,7.616 1.442,12.747 4.329,15.391c2.996,2.644 8.396,3.969 16.205,3.969l52.295,-0c7.809,-0 13.155,-1.325 16.042,-3.969c2.996,-2.644 4.492,-7.775 4.492,-15.391l-0,-62.518l-19.246,0l-0,66.487l-54.867,0l0,-66.487l-19.25,0Zm143.359,0l-0,81.878l17.32,-0l0,-44.747c0,-3.068 -0.262,-7.245 -0.8,-12.534c2.034,2.327 4.334,4.546 6.9,6.662l60.8,50.619l13.155,-0l-0,-81.878l-17.325,0l-0,43.003c-0,1.798 0.266,6.503 0.8,14.12c-2.138,-2.433 -5.292,-5.393 -9.463,-8.883l-58.233,-48.24l-13.154,0Zm146.083,0l-0,81.878l48.287,-0c15.721,-0 27.059,-2.118 34.009,-6.349c12.191,-7.51 18.287,-19.197 18.287,-35.064c0,-13.647 -4.546,-23.96 -13.633,-30.942c-8.129,-6.347 -19.358,-9.523 -33.692,-9.523l-53.258,0Zm-1406.73,14.601l34.17,-0c18.181,-0 27.273,8.514 27.273,25.546c0,10.578 -3.637,17.874 -10.909,21.894c-5.348,2.962 -13.902,4.446 -25.667,4.446l-24.867,0l-0,-51.886Zm986.064,-0l63.529,-0l0,51.886l-63.529,0l0,-51.886Zm439.917,-0l34.171,-0c18.179,-0 27.275,8.514 27.275,25.546c-0,10.578 -3.638,17.874 -10.913,21.894c-5.346,2.962 -13.9,4.446 -25.666,4.446l-24.867,0l-0,-51.886Zm-871.404,1.267l17.804,33.321l-36.254,-0l18.45,-33.321Z" style="fill:#fff;fill-rule:nonzero;"/><path d="M356.833,0c-14.821,0 -19.414,4.747 -24.423,14.052l-87.403,150.987l47.144,-0l66.766,-118.809c2.89,-5.16 6.658,-7.858 11.057,-7.858l16.052,-0c3.972,-0 7.679,2.107 10.835,7.642l67.793,119.025l46.925,-0l-87.171,-151.191c-5.412,-9.294 -13.993,-13.848 -25.463,-13.848l-42.113,0Zm385.072,0c-14.808,0 -19.404,4.747 -24.412,14.052l-87.379,150.987l47.12,-0l66.771,-118.809c2.913,-5.16 6.654,-7.858 11.042,-7.858l16.062,-0c3.95,-0 7.667,2.107 10.834,7.642l67.771,119.025l10.495,-0l0,0.016l184.155,0c33.383,0 50.07,-13.395 50.07,-40.025l0,-22.482c0,-26.197 -16.687,-39.411 -50.07,-39.411l-139.313,-0c-6.458,-0 -9.583,-2.059 -9.583,-5.966l-0,-12.794c-0,-3.918 3.125,-6.001 9.583,-6.001l184.175,-0l0,-38.372l-184.175,0c-33.579,0 -50.275,13.429 -50.275,40.241l0,26.002c0,23.508 16.696,35.276 50.275,35.276l139.313,-0c6.262,-0 9.42,2.059 9.42,5.966l0,13.418c0,3.896 -3.158,5.773 -9.421,5.773l-169.812,0l-65.071,-112.831c-5.404,-9.294 -13.971,-13.848 -25.45,-13.848l-42.125,-0.001Zm-741.904,0.003l0,165.054l195.015,-0c41.928,-0 62.78,-17.554 62.78,-52.407l-0,-60.048c-0,-35.07 -20.852,-52.599 -62.78,-52.599l-195.015,-0Zm448.621,-0l-0,38.372l97.412,-0l0,126.679l40.696,-0l0,-126.679l95.692,-0l-0,-38.372l-233.8,-0Zm751.225,-0c-14.821,-0 -19.392,4.74 -24.421,14.011l-87.383,151.043l47.166,-0l18.321,-32.406l135.392,-0l18.767,32.406l46.891,-0l-87.146,-151.203c-5.425,-9.306 -13.983,-13.851 -25.416,-13.851l-42.171,-0Zm99.692,-0l-0,38.372l97.37,-0l0,126.679l40.684,-0l-0,-126.679l95.741,-0l0,-38.372l-233.795,-0Zm-1258.87,38.375l154.343,-0c14.613,-0 21.901,4.759 21.901,14.224l-0,60.048c-0,9.272 -7.288,14.032 -21.901,14.032l-154.343,0l0,-88.304Zm1172.3,-0l16.075,-0c3.975,-0 7.704,2.084 10.846,7.642l29.008,50.321l-95.546,-0l28.559,-50.105c2.95,-5.159 6.683,-7.858 11.058,-7.858Zm-843.001,68.671c-4.399,-0 -8.152,2.734 -11.054,7.882l-28.582,50.105l95.52,-0l-28.994,-50.321c-3.121,-5.593 -6.862,-7.666 -10.835,-7.666l-16.055,-0Zm385.076,-0c-4.387,-0 -8.142,2.734 -11.054,7.882l-28.583,50.105l95.533,-0l-28.996,-50.321c-3.142,-5.593 -6.896,-7.666 -10.846,-7.666l-16.054,-0Z" style="fill:#fff;fill-rule:nonzero;"/></g></svg>