<?xml version="1.0" encoding="UTF-8" standalone="no"?><!DOCTYPE svg PUBLIC "-//W3C//DTD SVG 1.1//EN" "http://www.w3.org/Graphics/SVG/1.1/DTD/svg11.dtd"><svg width="100%" height="100%" viewBox="0 0 13892 3125" version="1.1" xmlns="http://www.w3.org/2000/svg" xmlns:xlink="http://www.w3.org/1999/xlink" xml:space="preserve" xmlns:serif="http://www.serif.com/" style="fill-rule:evenodd;clip-rule:evenodd;stroke-linejoin:round;stroke-miterlimit:2;"><g><g id="layer1_00000091004115902484119600000017836487434593819324_"><path id="path416_00000106146004692004926140000010663881050969063060_" d="M616.421,2830.02c340.762,-0 617.125,-325.905 617.125,-727.709c-0,-401.979 -276.363,-727.708 -617.125,-727.708l-308.567,0l0,1455.59l308.567,-0l-0,-0.175Zm864.646,245.046l-1481.07,-0l3.363,-1978.24l1481.07,0l-3.362,1978.24Z" style="fill:#e7e7e7;fill-rule:nonzero;"/><path id="path420_00000150821998885632451760000001574278938942581122_" d="M2420.03,1373.19c-340.766,-0.001 -617.129,326.962 -617.129,730.358c0,403.4 276.363,730.362 617.129,730.362l308.563,0l-0,-1460.72l-308.563,0Zm-864.829,-276.362l1481.07,-0l-0,1978.24l-1481.07,0l0,-1978.24Z" style="fill:#e7e7e7;fill-rule:nonzero;"/><path id="path444_00000099629854129489181690000001615936492682657936_" d="M13888.9,3080.37l0,-1978.77l-10611.8,0l-0,1976.47l10611.8,2.3Zm-10402.2,-154.284l0,-1610.23l10200.3,-10.262l0,1583.51l-10200.3,36.979Z" style="fill:#e7e7e7;fill-rule:nonzero;"/><g id="text278_00000060015361400365042050000008551725167385036705_"><path id="path280_00000080202625877098884890000001232606369603850922_" d="M4215.33,2545.98l0,-922.467l453.167,0c129.058,0 219.008,28.355 270.337,84.571c51.817,56.217 77.73,154.967 77.73,295.759c-0,230.25 -20.534,378.371 -62.088,443.879c-41.55,65.504 -134.921,97.771 -280.6,97.771l-458.546,-0l0,0.487Zm175.009,-147.146l249.316,0c83.596,0 137.859,-19.066 162.3,-57.195c24.934,-38.621 37.154,-123.68 37.154,-255.184c0,-135.9 -11.245,-222.425 -33.241,-259.579c-22,-37.154 -73.817,-55.242 -155.459,-55.242l-260.07,0l-0,627.2Z" style="fill:#e7e7e7;fill-rule:nonzero;"/><path id="path282_00000064327742012021192920000005370045976052786314_" d="M5489.79,1615.69c167.679,-0.001 275.225,27.866 323.621,83.595c48.4,55.242 72.354,179.9 72.354,372.996c-0,211.184 -24.446,344.154 -72.842,399.396c-48.396,54.75 -165.233,82.617 -351.488,82.617c-167.675,-0 -275.712,-26.888 -325.087,-81.15c-48.883,-54.267 -73.817,-174.034 -73.817,-358.821c0,-219.984 23.955,-357.842 72.35,-414.059c48.4,-56.708 166.7,-84.575 354.909,-84.575Zm-13.688,150.08c-117.325,-0 -186.254,15.154 -206.296,45.462c-20.041,30.313 -29.82,134.438 -29.82,313.358c-0.001,132.48 11.245,212.163 34.22,239.05c23.467,26.888 91.904,40.575 205.317,40.575c108.529,0 173.546,-15.154 195.054,-45.462c21.509,-30.8 32.267,-123.192 32.267,-277.183c-0,-154.475 -10.267,-245.892 -31.288,-273.759c-19.066,-27.862 -86.037,-42.041 -199.454,-42.041Z" style="fill:#e7e7e7;fill-rule:nonzero;"/><path id="path284_00000170969181950151933210000010582040417932666244_" d="M6122.38,1623.51l0,765.545l432.633,0l0,156.921l-607.154,0l0,-922.466l174.521,-0Z" style="fill:#e7e7e7;fill-rule:nonzero;"/><path id="path286_00000075148139973016960820000015708207872681448597_" d="M6605.83,2545.98l0,-922.467l453.171,0c106.079,0 178.429,17.109 217.05,51.33c38.621,33.729 58.175,97.77 58.175,192.121c0,113.899 -45.467,180.874 -135.904,201.404l0,3.425c105.592,16.129 157.9,89.458 157.9,219.495c0,94.346 -20.042,160.342 -60.617,197.984c-40.575,37.641 -111.458,56.708 -212.162,56.708l-477.613,0Zm175.013,-535.296l214.117,0c69.416,0 113.412,-7.821 132.479,-22.975c19.554,-15.154 28.841,-50.841 28.841,-106.083c0,-73.817 -42.041,-110.967 -125.633,-110.967l-249.804,0l-0,240.025Zm-0,388.15l192.117,0l61.595,-1.466c59.154,-0 97.771,-8.309 116.35,-24.929c19.063,-16.621 28.354,-51.821 28.354,-105.596c0,-55.729 -9.779,-90.925 -29.82,-105.592c-19.555,-14.175 -67.463,-21.508 -144.7,-21.508l-223.409,-0l0,259.091l-0.487,0Z" style="fill:#e7e7e7;fill-rule:nonzero;"/><path id="path288_00000091000326469034037970000000706427084087857593_" d="M8191.21,1623.51l-341.708,570.004l0,351.975l-175.008,-0l-0,-351.975l-332.421,-570.005l202.875,0l139.321,243.45c7.821,13.688 20.533,38.617 39.108,74.792l19.554,37.154l19.067,37.154l4.887,0l39.109,-74.308c16.62,-33.242 29.82,-58.171 40.087,-74.792l140.3,-243.45l204.829,0Z" style="fill:#e7e7e7;fill-rule:nonzero;"/><path id="path290_00000161623509521394745720000009883598059959691944_" d="M9298.46,1892.87l-171.095,-0c-0.98,-8.8 -1.467,-14.667 -1.467,-19.067c-3.913,-51.816 -15.646,-84.083 -34.221,-97.283c-19.067,-13.688 -63.55,-20.042 -133.946,-20.042c-83.104,0 -137.367,7.821 -162.787,22.975c-25.421,15.154 -37.642,47.421 -37.642,96.796c0,58.171 10.263,92.879 31.283,104.612c20.534,11.734 88.975,20.534 205.321,26.888c137.367,7.821 226.338,27.375 266.425,58.662c40.575,31.288 60.617,97.284 60.617,196.521c-0,122.7 -23.463,201.896 -70.884,237.584c-47.416,35.683 -151.541,53.283 -312.866,53.283c-145.188,-0 -241.492,-17.6 -289.4,-52.796c-47.421,-35.196 -70.884,-106.079 -70.884,-213.629l-0.491,-33.729l170.125,-0l0.487,19.554c0,64.529 11.242,103.637 33.729,118.3c22.488,14.179 84.084,21.512 184.3,21.512c78.217,0 128.567,-8.312 150.08,-24.933c21.508,-16.621 32.262,-55.242 32.262,-115.371c0,-44.483 -8.308,-74.304 -24.933,-88.483c-16.129,-14.663 -51.329,-23.95 -106.079,-26.883l-96.792,-5.867c-146.171,-8.8 -239.05,-28.842 -279.625,-60.621c-40.575,-31.775 -60.621,-100.704 -60.621,-206.296c0,-107.546 24.446,-179.408 72.842,-215.096c48.883,-36.175 146.654,-54.262 293.312,-54.262c138.834,-0 232.204,16.621 280.6,49.375c48.4,32.754 72.35,97.283 72.35,192.608l0,35.688Z" style="fill:#e7e7e7;fill-rule:nonzero;"/><path id="path292_00000172440075598759129220000001380137517057695399_" d="M9772.62,1780.43l0,765.546l-175.013,0l0.001,-765.546l-266.425,0l-0.001,-156.921l716.663,0l-0,156.921l-275.225,0Z" style="fill:#e7e7e7;fill-rule:nonzero;"/><path id="path294_00000160158279238420784870000001832017275725661853_" d="M10274.7,1770.17l0,238.562l432.634,0l-0,129.058l-432.634,0l0,260.559l460.009,-0l-0,147.146l-635.021,-0l-0,-922.471l631.112,-0l0,147.146l-456.1,-0Z" style="fill:#e7e7e7;fill-rule:nonzero;"/><path id="path296_00000031890876638736762080000010879317159409474457_" d="M10809,2545.98l0,-922.467l454.633,0c112.925,0 191.142,19.555 233.671,58.663c43.021,39.108 64.042,109.992 64.042,212.65c-0,93.371 -10.754,156.921 -32.267,191.142c-21.016,34.221 -65.016,57.687 -131.012,70.883l-0,5.867c102.171,6.354 153.5,65.996 153.5,178.921l-0,203.362l-175.009,0l0,-168.162c0,-94.842 -46.929,-142.746 -140.3,-142.746l-252.25,-0l0,310.908l-175.008,0.979Zm175.008,-458.058l251.271,-0c60.129,-0 99.725,-10.754 118.792,-31.775c20.041,-21.508 29.821,-64.529 29.821,-129.054c-0,-65.996 -8.8,-108.038 -25.909,-127.104c-16.62,-19.555 -53.775,-28.842 -110.97,-28.842l-263.492,-0l0.487,316.775Z" style="fill:#e7e7e7;fill-rule:nonzero;"/><path id="path298_00000153672767514654813310000017692528350798405764_" d="M11800.9,1770.17l-0,238.562l432.637,0l0,129.058l-432.637,0l-0,260.559l460.5,-0l-0,147.146l-635.509,-0l0,-922.471l631.109,-0l-0,147.146l-456.1,-0Z" style="fill:#e7e7e7;fill-rule:nonzero;"/><path id="path300_00000129895023608069811500000000972838694666207157_" d="M12718.5,1615.69c167.68,-0.001 275.225,27.866 323.621,83.595c48.4,55.242 72.35,179.9 72.35,372.996c0,211.184 -24.442,344.154 -72.837,399.396c-48.396,54.75 -165.234,82.617 -351.488,82.617c-167.675,-0 -275.712,-26.888 -325.087,-81.15c-48.884,-54.267 -73.817,-174.034 -73.817,-358.821c-0,-219.984 23.954,-357.842 72.35,-414.059c48.396,-56.22 166.7,-84.575 354.908,-84.575Zm-13.687,150.08c-117.325,-0 -186.254,15.154 -206.296,45.462c-20.042,30.313 -29.821,134.438 -29.821,313.358c0,132.48 11.246,212.163 34.221,239.05c23.467,26.888 91.904,40.575 205.317,40.575c108.529,0 173.546,-15.154 195.054,-45.462c21.508,-30.8 32.267,-123.192 32.267,-277.183c-0,-154.475 -10.267,-245.892 -31.288,-273.759c-19.067,-27.862 -86.037,-42.041 -199.454,-42.041Z" style="fill:#e7e7e7;fill-rule:nonzero;"/></g></g><text x="0px" y="782.45px" style="font-family:'ArialMT', 'Arial', sans-serif;font-size:1026.19px;fill:#e7e7e7;">70</text><g><g><g transform="matrix(1,0,0,0.847458,0,119.357)"><text x="2097.5px" y="782.45px" style="font-family:'ArialMT', 'Arial', sans-serif;font-size:1210.9px;fill:#e7e7e7;">M</text></g><g transform="matrix(1,0,0,0.847458,4.54747e-13,119.357)"><text x="3136.94px" y="782.45px" style="font-family:'ArialMT', 'Arial', sans-serif;font-size:1210.9px;fill:#e7e7e7;">M</text></g></g></g><g><g><g transform="matrix(0.978142,0,0,1,130.756,1.13687e-13)"><text x="5982.08px" y="782.45px" style="font-family:'ArialMT', 'Arial', sans-serif;font-size:1003.72px;fill:#e7e7e7;">SIX</text></g><g transform="matrix(0.978142,0,0,1,170.92,1.13687e-13)"><text x="7819.56px" y="782.45px" style="font-family:'ArialMT', 'Arial', sans-serif;font-size:1003.72px;fill:#e7e7e7;">TRACK</text></g></g></g></g></svg>