<?xml version="1.0" encoding="UTF-8" standalone="no"?><!DOCTYPE svg PUBLIC "-//W3C//DTD SVG 1.1//EN" "http://www.w3.org/Graphics/SVG/1.1/DTD/svg11.dtd"><svg width="100%" height="100%" viewBox="0 0 12425 4371" version="1.1" xmlns="http://www.w3.org/2000/svg" xmlns:xlink="http://www.w3.org/1999/xlink" xml:space="preserve" xmlns:serif="http://www.serif.com/" style="fill-rule:evenodd;clip-rule:evenodd;stroke-linejoin:round;stroke-miterlimit:2;"><g id="Layer-1" serif:id="Layer 1"><g id="g4688"><path id="path1040" d="M9.533,0.829l0,2839.64l2129.77,-0l0,-2839.64l-2129.77,0Zm441.517,353.346l444.104,-0c490.729,-0 887.554,477.483 887.554,1062.67c0,588.804 -396.754,1067.02 -887.554,1067.02l-444.104,-0l0,-2129.69Z" style="fill:#e7e7e7;"/><path id="path1044" d="M2245.58,0.829l0,2839.64l2129.16,-0l-0,-2839.64l-2129.16,0Zm1242.78,358.963l444.079,-0l-0,2128.53l-444.079,-0c-489.896,-0 -887.988,-475.075 -887.988,-1063.26c0,-589.016 398.021,-1065.27 887.988,-1065.27Z" style="fill:#e7e7e7;"/><path id="path1048" d="M5817.21,788.796l0,1277.57l694.121,-0.001c356.6,0.001 468.092,-165.174 468.092,-515.924l-0,-267.234c-0,-360.979 -158.217,-494.408 -514.604,-494.408l-647.609,-0Zm341.417,296.729l298.538,0c118.47,0 172.066,33.337 172.066,197.679l0,267.234c0,135.87 -46.079,218.479 -172.066,218.479l-298.538,-0l0,-683.392Z" style="fill:#e7e7e7;"/><path id="path1052" d="M7628.75,779.946c-345.6,-0 -592.092,71.071 -592.092,467.275l0,360.412c0,394.392 246.492,469.154 592.092,469.154c346.5,0 590.258,-74.762 590.258,-469.154l0,-360.412c0,-396.204 -243.687,-467.275 -590.258,-467.275Zm0,296.046c177.704,-0 240.758,17.045 240.758,207.212l0,288.596c0,190.096 -63.054,209.021 -240.758,209.021c-176.875,-0 -235.492,-18.996 -240.504,-209.021l-0,-288.596c5.008,-190.167 63.629,-207.212 240.504,-207.212Z" style="fill:#e7e7e7;"/><path id="path1058" d="M9238.75,788.771l0,1277.52l677.208,0c272.025,0 418.196,-42.254 418.196,-356.6c0,-160.095 -33.287,-272.858 -220.387,-285.391l-0,-14.546c168.171,-27.496 199.862,-132.192 199.862,-294.721c0,-278.987 -148.908,-326.233 -403.391,-326.233l-671.413,-0l-0.075,-0.025Zm340.854,279.766l286.029,0c95.709,3.067 107.675,31.605 107.675,108.796c0,101.071 -29.591,122.784 -149.383,122.784l-244.321,-0l0,-231.58Zm0,467.275l263.875,0c110.817,0 150.096,14.555 150.096,121.538c0,104.55 -45.537,130.437 -156.908,130.437l-257.063,0l0,-251.975Z" style="fill:#e7e7e7;"/><path id="path1064" d="M11092,1617.74l0,448.549l-339.337,0l-0,-448.55l-454.879,-828.95l390.562,0l229.217,491.146l11.971,0l234.229,-491.146l396.483,0l-468.246,828.95Z" style="fill:#e7e7e7;"/><path id="path1056" d="M8646.71,1768.92l534.305,0l-0.001,297.362l-873.916,0.001l-0,-1277.5l339.612,0l0,980.138Z" style="fill:#e7e7e7;"/><path id="path4686" d="M12224.5,200.538l-0,2440.63l-7110.38,-0l-0,-2440.63l7110.38,0Zm198.521,2642.36l-0.001,-2842.89l-7506.58,0l0,2839.62l7506.58,3.271Zm-12423,353.325l494.421,-0c352.695,-0 563.187,213.416 563.187,569.387c0,375.388 -213.412,579.546 -563.187,579.546l-494.421,0l-0,-1148.93Zm299.796,891.875l141.65,-0c226.85,-3.684 317.62,-94.317 317.62,-323.675c0,-209.096 -112.833,-310.655 -317.62,-310.655l-141.65,0.001l-0,634.329Zm2203.48,-891.875l0,1148.44l-300.496,0.001l0,-1148.45l300.496,-0Zm2250.05,1148.93l-194.063,0l-16.287,-124.108c-78.867,110.812 -215.504,148.887 -320.613,148.887c-347.058,0 -572.725,-266.454 -572.725,-600.358c0,-333.208 225.667,-597.925 572.725,-597.925c238.684,-0 492.609,127.242 519.063,415.067l-298.617,-0c-9.466,-96.963 -107.125,-157.45 -226.221,-157.45c-193.371,-0 -268.408,170.05 -268.408,340.308c0,172.554 75.037,343.925 268.408,343.925c147.913,-0 247.45,-70.721 263.184,-175.267l-209.029,0l-0.001,-221.071l482.513,0l0,627.992l0.071,0Zm1472.61,-1148.93l0,1148.45l-300.354,-0l0,-1148.45l300.354,-0Zm2100.74,257.546l-343.096,-0l-0,891.387l-298.683,0l-0,-891.387l-342.746,-0l-0,-257.546l984.525,-0l-0,257.546Zm1402.37,-257.546l304.112,-0l430.171,1148.93l-313.092,0l-70.579,-205.967l-399.825,0l-73.854,205.967l-306.825,0l429.892,-1148.93Zm19.283,720.575l260.746,-0l-127.1,-401.217l-3.829,0l-129.817,401.217Zm1840.13,-720.575l299.242,-0l-0,891.875l536.046,-0l-0,257.058l-835.288,0l0,-1148.93Z" style="fill:#e7e7e7;"/></g></g></svg>