<?xml version="1.0" encoding="UTF-8" standalone="no"?><!DOCTYPE svg PUBLIC "-//W3C//DTD SVG 1.1//EN" "http://www.w3.org/Graphics/SVG/1.1/DTD/svg11.dtd"><svg width="100%" height="100%" viewBox="0 0 1259 180" version="1.1" xmlns="http://www.w3.org/2000/svg" xmlns:xlink="http://www.w3.org/1999/xlink" xml:space="preserve" xmlns:serif="http://www.serif.com/" style="fill-rule:evenodd;clip-rule:evenodd;stroke-linejoin:round;stroke-miterlimit:2;"><g><path d="M55.841,156.545c30.875,0 55.911,-29.433 55.911,-65.738c-0,-36.315 -25.036,-65.738 -55.911,-65.738l-27.952,-0l-0,131.476l27.952,0Zm78.34,22.136l-134.181,0l0.307,-178.681l134.181,0l-0.307,178.681Z" style="fill:#fff;fill-rule:nonzero;"/><path d="M219.248,24.967c-30.875,-0 -55.911,29.536 -55.911,65.968c0,36.432 25.036,65.968 55.911,65.968l27.952,-0l0,-131.936l-27.952,-0Zm-78.354,-24.967l134.18,-0l0,178.681l-134.18,0l-0,-178.681Z" style="fill:#fff;fill-rule:nonzero;"/><path d="M1258.33,179.167l0,-178.73l-961.43,0l0,178.522l961.43,0.208Zm-942.443,-13.939l0,-145.453l924.139,-0.934l-0.004,143.035l-924.135,3.352Z" style="fill:#fff;fill-rule:nonzero;"/><path d="M381.893,130.896l-0,-83.303l41.074,0c11.671,0 19.833,2.543 24.483,7.629c4.696,5.085 7.042,13.995 7.042,26.73c-0,20.79 -1.88,34.155 -5.634,40.095c-3.754,5.899 -12.22,8.849 -25.4,8.849l-41.565,-0Zm15.854,-13.304l22.586,-0c7.592,-0 12.488,-1.73 14.692,-5.188c2.246,-3.499 3.367,-11.188 3.367,-23.068c-0,-12.287 -1,-20.099 -3,-23.435c-2,-3.336 -6.692,-5.004 -14.08,-5.004l-23.565,0l0,56.695Z" style="fill:#fff;fill-rule:nonzero;"/><path d="M497.367,46.861c15.179,-0 24.954,2.522 29.32,7.567c4.367,5.005 6.551,16.234 6.551,33.687c-0,19.082 -2.205,31.104 -6.613,36.067c-4.367,4.964 -14.975,7.446 -31.829,7.446c-15.183,-0 -24.996,-2.441 -29.446,-7.323c-4.446,-4.923 -6.671,-15.725 -6.671,-32.406c0,-19.854 2.184,-32.324 6.55,-37.41c4.367,-5.085 15.079,-7.628 32.138,-7.628Zm-1.225,13.548c-10.65,-0 -16.875,1.363 -18.671,4.089c-1.796,2.726 -2.692,12.165 -2.692,28.317c0,11.961 1.042,19.162 3.121,21.603c2.121,2.441 8.325,3.662 18.608,3.662c9.834,0 15.734,-1.363 17.692,-4.089c1.958,-2.766 2.938,-11.107 2.938,-25.021c-0,-13.955 -0.938,-22.194 -2.817,-24.716c-1.838,-2.564 -7.896,-3.845 -18.179,-3.845Z" style="fill:#fff;fill-rule:nonzero;"/><path d="M554.696,47.593l-0,69.145l39.179,-0l0,14.158l-55.033,-0l-0,-83.303l15.854,0Z" style="fill:#fff;fill-rule:nonzero;"/><path d="M598.492,130.896l-0,-83.303l41.071,0c9.633,0 16.183,1.546 19.65,4.638c3.508,3.051 5.266,8.829 5.266,17.332c0,10.293 -4.104,16.355 -12.304,18.186l0,0.306c9.55,1.465 14.321,8.076 14.321,19.834c-0,8.503 -1.833,14.463 -5.508,17.881c-3.671,3.417 -10.08,5.126 -19.221,5.126l-43.275,-0Zm15.854,-48.334l19.404,0c6.283,0 10.283,-0.692 11.996,-2.075c1.754,-1.383 2.633,-4.577 2.633,-9.581c0,-6.673 -3.796,-10.009 -11.387,-10.009l-22.646,0l-0,21.665Zm-0,35.03l17.383,-0l5.571,-0.122c5.346,-0 8.854,-0.753 10.529,-2.258c1.713,-1.506 2.571,-4.679 2.571,-9.52c0,-5.045 -0.9,-8.219 -2.696,-9.521c-1.754,-1.302 -6.121,-1.953 -13.1,-1.953l-20.258,0l-0,23.374Z" style="fill:#fff;fill-rule:nonzero;"/><path d="M742.133,47.593l-30.975,51.507l0,31.796l-15.854,-0l0,-31.796l-30.112,-51.507l18.362,0l12.609,21.97c0.695,1.221 1.879,3.479 3.55,6.774l1.775,3.357l1.716,3.356l0.425,0l1.775,-3.356l1.775,-3.357c1.513,-3.01 2.717,-5.269 3.613,-6.774l12.733,-21.97l18.608,0Z" style="fill:#fff;fill-rule:nonzero;"/><path d="M842.463,71.882l-15.488,0c-0.083,-0.773 -0.125,-1.342 -0.125,-1.709c-0.367,-4.678 -1.404,-7.608 -3.121,-8.788c-1.712,-1.22 -5.754,-1.83 -12.121,-1.83c-7.508,-0 -12.425,0.691 -14.75,2.075c-2.287,1.383 -3.429,4.292 -3.429,8.726c0,5.249 0.938,8.402 2.817,9.459c1.875,1.058 8.079,1.872 18.608,2.442c12.446,0.691 20.488,2.461 24.117,5.309c3.675,2.848 5.508,8.768 5.508,17.759c0,11.066 -2.141,18.227 -6.425,21.482c-4.283,3.214 -13.733,4.821 -28.341,4.821c-13.142,-0 -21.875,-1.587 -26.2,-4.76c-4.284,-3.173 -6.425,-9.602 -6.425,-19.285l-0.063,-3.051l15.429,-0l0.059,1.77c-0,5.818 1.02,9.378 3.058,10.679c2.042,1.302 7.612,1.953 16.712,1.953c7.1,0 11.63,-0.752 13.588,-2.258c1.962,-1.505 2.942,-4.984 2.942,-10.436c-0,-4.028 -0.759,-6.692 -2.267,-7.994c-1.471,-1.343 -4.671,-2.156 -9.613,-2.441l-8.75,-0.55c-13.225,-0.773 -21.67,-2.603 -25.341,-5.492c-3.675,-2.888 -5.513,-9.093 -5.513,-18.613c0,-9.724 2.204,-16.193 6.613,-19.407c4.45,-3.255 13.304,-4.882 26.566,-4.882c12.567,-0 21.038,1.485 25.405,4.455c4.366,2.97 6.55,8.767 6.55,17.392l-0,3.174Z" style="fill:#fff;fill-rule:nonzero;"/><path d="M885.396,61.752l-0,69.144l-15.854,-0l-0,-69.144l-24.121,-0l-0,-14.159l64.95,0l-0,14.159l-24.975,-0Z" style="fill:#fff;fill-rule:nonzero;"/><path d="M930.888,60.897l-0,21.482l39.179,-0l-0,11.656l-39.179,0l-0,23.557l41.687,-0l0,13.304l-57.542,-0l0,-83.303l57.175,0l0,13.304l-41.32,0Z" style="fill:#fff;fill-rule:nonzero;"/><path d="M979.283,130.896l0,-83.303l41.196,0c10.246,0 17.304,1.77 21.179,5.309c3.88,3.54 5.817,9.948 5.817,19.224c0,8.422 -0.979,14.179 -2.938,17.271c-1.916,3.092 -5.874,5.228 -11.874,6.408l-0,0.549c9.262,0.57 13.895,5.961 13.895,16.173l0,18.369l-15.854,-0l0,-15.196c0,-8.585 -4.246,-12.877 -12.733,-12.877l-22.833,-0l-0,28.073l-15.855,-0Zm15.855,-41.377l22.77,0c5.43,0 9.021,-0.956 10.775,-2.868c1.796,-1.953 2.692,-5.839 2.692,-11.656c0,-5.94 -0.775,-9.765 -2.325,-11.474c-1.508,-1.749 -4.854,-2.624 -10.037,-2.624l-23.875,0l-0,28.622Z" style="fill:#fff;fill-rule:nonzero;"/><path d="M1069.18,60.897l0,21.482l39.175,-0l0,11.656l-39.175,0l0,23.557l41.684,-0l-0,13.304l-57.538,-0l0,-83.303l57.171,0l0,13.304l-41.317,0Z" style="fill:#fff;fill-rule:nonzero;"/><path d="M1152.28,46.861c15.184,-0 24.954,2.522 29.321,7.567c4.367,5.005 6.55,16.234 6.55,33.687c0,19.082 -2.204,31.104 -6.608,36.067c-4.367,4.964 -14.979,7.446 -31.833,7.446c-15.18,-0 -24.992,-2.441 -29.442,-7.323c-4.45,-4.923 -6.671,-15.725 -6.671,-32.406c0,-19.854 2.183,-32.324 6.55,-37.41c4.367,-5.085 15.079,-7.628 32.133,-7.628Zm-1.22,13.548c-10.655,-0 -16.875,1.363 -18.671,4.089c-1.796,2.726 -2.696,12.165 -2.696,28.317c-0,11.961 1.042,19.162 3.125,21.603c2.121,2.441 8.325,3.662 18.608,3.662c9.834,0 15.729,-1.363 17.688,-4.089c1.962,-2.766 2.941,-11.107 2.941,-25.021c0,-13.955 -0.941,-22.194 -2.816,-24.716c-1.838,-2.564 -7.896,-3.845 -18.179,-3.845Z" style="fill:#fff;fill-rule:nonzero;"/></g></svg>